<?xml version="1.0" encoding="UTF-8" standalone="no"?>
<svg
   xmlns:dc="http://purl.org/dc/elements/1.1/"
   xmlns:cc="http://creativecommons.org/ns#"
   xmlns:rdf="http://www.w3.org/1999/02/22-rdf-syntax-ns#"
   xmlns:svg="http://www.w3.org/2000/svg"
   xmlns="http://www.w3.org/2000/svg"
   xmlns:sodipodi="http://sodipodi.sourceforge.net/DTD/sodipodi-0.dtd"
   xmlns:inkscape="http://www.inkscape.org/namespaces/inkscape"
   inkscape:version="1.0 (4035a4fb49, 2020-05-01)"
   sodipodi:docname="logo_transparent.svg"
   id="svg225"
   xml:space="preserve"
   style="enable-background:new 0 0 1000 1000;"
   viewBox="0 0 1000 1000"
   y="0px"
   x="0px"
   version="1.1"><metadata
   id="metadata231"><rdf:RDF><cc:Work
       rdf:about=""><dc:format>image/svg+xml</dc:format><dc:type
         rdf:resource="http://purl.org/dc/dcmitype/StillImage" /><dc:title></dc:title></cc:Work></rdf:RDF></metadata><defs
   id="defs229" /><sodipodi:namedview
   inkscape:current-layer="svg225"
   inkscape:window-maximized="1"
   inkscape:window-y="0"
   inkscape:window-x="0"
   inkscape:cy="500"
   inkscape:cx="307.04365"
   inkscape:zoom="1.008"
   showgrid="false"
   id="namedview227"
   inkscape:window-height="1745"
   inkscape:window-width="3196"
   inkscape:pageshadow="2"
   inkscape:pageopacity="0"
   guidetolerance="10"
   gridtolerance="10"
   objecttolerance="10"
   borderopacity="1"
   bordercolor="#666666"
   pagecolor="#ffffff" />
<style
   id="style2"
   type="text/css">
	.st0{fill:#34A45B;}
	.st1{display:none;}
	
		.st2{display:inline;fill:none;stroke:#FFFFFF;stroke-width:12;stroke-linecap:round;stroke-miterlimit:10;stroke-dasharray:1.5,16;}
	.st3{display:inline;fill:none;stroke:#FFFFFF;stroke-width:6;stroke-miterlimit:10;}
	.st4{display:inline;}
	.st5{fill:none;stroke:#FFFFFF;stroke-width:12;stroke-linecap:round;stroke-miterlimit:10;}
	.st6{fill:none;stroke:#FFFFFF;stroke-width:12;stroke-linecap:round;stroke-miterlimit:10;stroke-dasharray:1.6502,17.6023;}
	.st7{fill:none;stroke:#FFFFFF;stroke-width:12;stroke-linecap:round;stroke-miterlimit:10;stroke-dasharray:1.6713,17.8277;}
	.st8{fill:none;stroke:#FFFFFF;stroke-width:12;stroke-linecap:round;stroke-miterlimit:10;stroke-dasharray:1.4707,15.688;}
	.st9{fill:none;stroke:#FFFFFF;stroke-width:12;stroke-linecap:round;stroke-miterlimit:10;stroke-dasharray:1.4991,15.9901;}
	.st10{fill:none;stroke:#FFFFFF;stroke-width:12;stroke-linecap:round;stroke-miterlimit:10;stroke-dasharray:1.4766,15.7505;}
	.st11{display:inline;fill:#FFFFFF;}
	.st12{font-family:'DotMatrix';}
	.st13{font-size:137.6834px;}
	.st14{display:inline;fill:none;stroke:#FFFFFF;stroke-width:6;stroke-linecap:round;stroke-miterlimit:10;}
	.st15{fill:none;stroke:#FFFFFF;stroke-width:12;stroke-linecap:round;stroke-miterlimit:10;stroke-dasharray:1.5,16;}
	.st16{fill:#FFFFFF;}
	.st17{fill:none;stroke:#FFFFFF;stroke-width:6;stroke-linecap:round;stroke-miterlimit:10;stroke-dasharray:1.5,16;}
	.st18{fill:none;stroke:#FFFFFF;stroke-width:6;stroke-linecap:round;stroke-miterlimit:10;}
	.st19{fill:none;stroke:#FFFFFF;stroke-width:6;stroke-linecap:round;stroke-miterlimit:10;stroke-dasharray:1.4502,15.4692;}
	.st20{fill:none;stroke:#FFFFFF;stroke-width:6;stroke-linecap:round;stroke-miterlimit:10;stroke-dasharray:1.342,14.3143;}
	.st21{fill:none;stroke:#FFFFFF;stroke-width:6;stroke-linecap:round;stroke-miterlimit:10;stroke-dasharray:1.5376,16.4006;}
	.st22{fill:none;stroke:#FFFFFF;stroke-width:6;stroke-linecap:round;stroke-miterlimit:10;stroke-dasharray:1.3181,14.0599;}
	.st23{fill:none;stroke:#FFFFFF;stroke-width:6;stroke-linecap:round;stroke-miterlimit:10;stroke-dasharray:1.479,15.7756;}
	.st24{fill:none;stroke:#FFFFFF;stroke-width:6;stroke-linecap:round;stroke-miterlimit:10;stroke-dasharray:1.4671,15.6486;}
	.st25{fill:none;stroke:#FFFFFF;stroke-width:6;stroke-linecap:round;stroke-miterlimit:10;stroke-dasharray:1.4689,15.6679;}
	.st26{fill:none;stroke:#FFFFFF;stroke-width:6;stroke-linecap:round;stroke-miterlimit:10;stroke-dasharray:1.404,14.9759;}
	.st27{fill:none;stroke:#FFFFFF;stroke-width:6;stroke-linecap:round;stroke-miterlimit:10;stroke-dasharray:1.4773,15.758;}
	.st28{fill:none;stroke:#FFFFFF;stroke-width:6;stroke-linecap:round;stroke-miterlimit:10;stroke-dasharray:1.5305,16.325;}
	.st29{fill:none;stroke:#FFFFFF;stroke-width:6;stroke-linecap:round;stroke-miterlimit:10;stroke-dasharray:1.5149,16.1591;}
	.st30{fill:none;stroke:#FFFFFF;stroke-width:6;stroke-linecap:round;stroke-miterlimit:10;stroke-dasharray:1.4297,15.2501;}
	.st31{fill:none;stroke:#FFFFFF;stroke-width:6;stroke-linecap:round;stroke-miterlimit:10;stroke-dasharray:1.2477,13.3084;}
	.st32{fill:none;stroke:#FFFFFF;stroke-width:6;stroke-linecap:round;stroke-miterlimit:10;stroke-dasharray:1.4924,15.9185;}
	.st33{fill:none;stroke:#FFFFFF;stroke-width:6;stroke-linecap:round;stroke-miterlimit:10;stroke-dasharray:1.4979,15.9775;}
	.st34{fill:none;stroke:#FFFFFF;stroke-width:6;stroke-linecap:round;stroke-miterlimit:10;stroke-dasharray:1.3516,14.4172;}
</style>

<g
   class="st1"
   id="Ebene_2">
	<polyline
   id="polyline7"
   points="238.6,266.7 120.6,384.8 120.6,766.7 179.6,825.7  "
   class="st2" />
	<polyline
   id="polyline9"
   points="179.6,825.7 238.6,884.7 620.5,884.7 738.6,766.7 738.6,445.4  "
   class="st2" />
	<g
   id="g51"
   class="st4">
		<g
   id="g49">
			<line
   id="line11"
   y2="480.8"
   x2="448.7"
   y1="480.8"
   x1="449.4"
   class="st5" />
			<line
   id="line13"
   y2="480.8"
   x2="420.6"
   y1="480.8"
   x1="431.1"
   class="st6" />
			<polyline
   id="polyline15"
   points="411.8,480.8 411.1,480.8 410.7,481.4    "
   class="st5" />
			<polyline
   id="polyline17"
   points="401.3,496.6 393.8,508.6 393.8,544.1    "
   class="st7" />
			<polyline
   id="polyline19"
   points="393.8,553 393.8,553.7 393.3,554.3    "
   class="st5" />
			<polyline
   id="polyline21"
   points="382.2,565.3 365.9,581.6 208,581.6    "
   class="st8" />
			<polyline
   id="polyline23"
   points="200.2,581.6 199.4,581.6 198.9,581.1    "
   class="st5" />
			<polyline
   id="polyline25"
   points="187.6,569.7 171.6,553.7 171.6,444.5    "
   class="st9" />
			<polyline
   id="polyline27"
   points="171.6,436.5 171.6,435.7 172.3,435.7    "
   class="st5" />
			<line
   id="line29"
   y2="435.7"
   x2="679.8"
   y1="435.7"
   x1="188.1"
   class="st10" />
			<polyline
   id="polyline31"
   points="687.7,435.7 688.4,435.7 688.4,436.5    "
   class="st5" />
			<polyline
   id="polyline33"
   points="688.4,452.5 688.4,553.7 666.7,575.4    "
   class="st9" />
			<polyline
   id="polyline35"
   points="661.1,581.1 660.6,581.6 659.8,581.6    "
   class="st5" />
			<polyline
   id="polyline37"
   points="644.1,581.6 494,581.6 472.2,559.8    "
   class="st8" />
			<polyline
   id="polyline39"
   points="466.7,554.3 466.1,553.7 466.1,553    "
   class="st5" />
			<polyline
   id="polyline41"
   points="466.1,535.1 466.1,508.6 454,489    "
   class="st7" />
			<polyline
   id="polyline43"
   points="449.3,481.4 448.9,480.8 448.2,480.8    "
   class="st5" />
			<line
   id="line45"
   y2="480.8"
   x2="420.1"
   y1="480.8"
   x1="430.6"
   class="st6" />
			<line
   id="line47"
   y2="480.8"
   x2="410.6"
   y1="480.8"
   x1="411.3"
   class="st5" />
		</g>
	</g>
	<path
   id="path53"
   d="M238.6,266.7l31.7-53.7c8.8-14.9,19.2-28.7,31.1-41.2l21.1-22.2l-15,58.5l191.9-76.5c6.7-2.7,13.7-4.4,20.9-5   l84.2-8l-70,36l119.9-10.7c10-0.9,20.1-0.1,29.9,2.2l97.2,23.4l-102,8l77,70L780,254c16.4,4.4,33.6-3.8,40.5-19.3v0v33.6   c0,16.9-12.3,31.4-29,34.1l-33,5.3l48,40l25.2-5.8c22.5-5.2,41.1-20.9,49.8-42.2v0v24.9c0,19.2-7.8,37.7-21.6,51.1l-42.4,41h-53   l14.5,12.6c16.1,14,35.3,24.1,56,29.4l7.5,1.9l-15.6,2.2c-31.3,4.4-63.2-2.2-90.2-18.6l0,0L631.6,339.7L607.8,326   c-36.4-20.9-76.9-33.7-118.7-37.4L238.6,266.7"
   class="st2" />
	<text
   id="text55"
   class="st11 st12 st13"
   transform="matrix(1 0 0 1 168.5303 727.2941)">Fluepdot</text>
	<polyline
   id="polyline57"
   points="229.6,258.3 109,380.9 109,777.4 170.3,838.7  "
   class="st14" />
	<polyline
   id="polyline59"
   points="170.3,838.7 231.5,900 628.1,900 750.6,777.4 750.6,469.1  "
   class="st14" />
	<path
   id="path61"
   d="M229.6,258.3l34.9-55.7c9.1-15.4,42.4-56.6,54.7-69.6l21.9-23l-16.2,76.7l177.5-68.6   c6.9-2.8,14.2-4.5,21.7-5.2L651.6,100l-50.3,35.7l61.4-6c10.4-0.9,20.9-0.1,31,2.3l125.4,39.2l-100.6,21l35.3,30.4   c1.9,1.6,27.3,9.1,27.3,9.1c17.1,4.6,47.6-3.4,54.7-19.5v12.9l-2.1,50.5c-0.7,16.4-11.8,30.6-27.6,35.2l-19.2,5.6l12.1,7.5   c22.3,11.8,47.6-2,47.6-2s36.8-35.7,45.9-57.9l0,0l-0.1,38.4c0,20,0.3,53.5-12.1,68.8l-46.6,51.3c-3.1,3.5-7.5,5.5-12.2,5.7   l-21.7,0.8l11.7,6.7c0,0,40.7,18.7,62.2,24.3l7.8,2l-16.3,5.5c0,0-86.6,18.7-114.7,1.6"
   class="st14" />
</g>
<g
   id="Ebene_3">
	<polyline
   id="polyline64"
   points="237.8,266.7 119.8,384.8 119.8,766.7 178.8,825.7  "
   class="st15" />
	<polyline
   id="polyline66"
   points="178.8,825.7 237.8,884.7 619.7,884.7 737.8,766.7 737.8,445.4  "
   class="st15" />
	<g
   id="g108">
		<g
   id="g106">
			<line
   id="line68"
   y2="480.8"
   x2="447.9"
   y1="480.8"
   x1="448.6"
   class="st5" />
			<line
   id="line70"
   y2="480.8"
   x2="419.8"
   y1="480.8"
   x1="430.3"
   class="st6" />
			<polyline
   id="polyline72"
   points="411,480.8 410.3,480.8 409.9,481.4    "
   class="st5" />
			<polyline
   id="polyline74"
   points="400.5,496.6 393.1,508.6 393.1,544.1    "
   class="st7" />
			<polyline
   id="polyline76"
   points="393.1,553 393.1,553.7 392.5,554.3    "
   class="st5" />
			<polyline
   id="polyline78"
   points="381.4,565.3 365.2,581.6 207.3,581.6    "
   class="st8" />
			<polyline
   id="polyline80"
   points="199.4,581.6 198.7,581.6 198.1,581.1    "
   class="st5" />
			<polyline
   id="polyline82"
   points="186.8,569.7 170.8,553.7 170.8,444.5    "
   class="st9" />
			<polyline
   id="polyline84"
   points="170.8,436.5 170.8,435.7 171.6,435.7    "
   class="st5" />
			<line
   id="line86"
   y2="435.7"
   x2="679"
   y1="435.7"
   x1="187.3"
   class="st10" />
			<polyline
   id="polyline88"
   points="686.9,435.7 687.6,435.7 687.6,436.5    "
   class="st5" />
			<polyline
   id="polyline90"
   points="687.6,452.5 687.6,553.7 666,575.4    "
   class="st9" />
			<polyline
   id="polyline92"
   points="660.3,581.1 659.8,581.6 659,581.6    "
   class="st5" />
			<polyline
   id="polyline94"
   points="643.3,581.6 493.3,581.6 471.5,559.8    "
   class="st8" />
			<polyline
   id="polyline96"
   points="465.9,554.3 465.4,553.7 465.4,553    "
   class="st5" />
			<polyline
   id="polyline98"
   points="465.4,535.1 465.4,508.6 453.2,489    "
   class="st7" />
			<polyline
   id="polyline100"
   points="448.6,481.4 448.2,480.8 447.4,480.8    "
   class="st5" />
			<line
   id="line102"
   y2="480.8"
   x2="419.4"
   y1="480.8"
   x1="429.8"
   class="st6" />
			<line
   id="line104"
   y2="480.8"
   x2="409.8"
   y1="480.8"
   x1="410.6"
   class="st5" />
		</g>
	</g>
	<path
   id="path110"
   d="M237.8,266.7l31.7-53.7c8.8-14.9,19.2-28.7,31.1-41.2l21.1-22.2l-15,58.5l191.9-76.5c6.7-2.7,13.7-4.4,20.9-5   l84.2-8l-70,36l119.9-10.7c10-0.9,20.1-0.1,29.9,2.2l97.2,23.4l-102,8l77,70l23.5,6.3c16.4,4.4,33.6-3.8,40.5-19.3v0v33.6   c0,16.9-12.3,31.4-29,34.1l-33,5.3l48,40l25.2-5.8c22.5-5.2,41.1-20.9,49.8-42.2v0v24.9c0,19.2-7.8,37.7-21.6,51.1l-42.4,41h-53   l14.5,12.6c16.1,14,35.3,24.1,56,29.4l7.5,1.9l-15.6,2.2c-31.3,4.4-63.2-2.2-90.2-18.6l0,0L630.8,339.7L607,326   c-36.4-20.9-76.9-33.7-118.7-37.4L237.8,266.7"
   class="st15" />
	<g
   id="g128">
		<path
   id="path112"
   d="M167.8,638.1c0-1.8,0.7-3.4,2.1-4.8c1.4-1.3,3-2,5-2c1.9,0,3.6,0.7,5,2c1.4,1.3,2.1,2.9,2.1,4.8    c0,1.8-0.7,3.4-2.1,4.8c-1.4,1.3-3,2-5,2c-1.9,0-3.6-0.7-5-2C168.5,641.5,167.8,639.9,167.8,638.1z M167.8,651.6    c0-1.8,0.7-3.4,2.1-4.7c1.4-1.3,3-1.9,5-1.9c1.8,0,3.4,0.6,4.8,1.9c1.4,1.3,2.1,2.8,2.1,4.7c0,1.8-0.7,3.4-2.1,4.7    c-1.4,1.3-3,1.9-4.8,1.9c-1.9,0-3.6-0.6-5-1.9C168.5,655,167.8,653.4,167.8,651.6z M167.8,665.1c0-1.8,0.7-3.4,2.1-4.8    c1.4-1.4,3-2.1,5-2.1c1.8,0,3.4,0.7,4.8,2.1s2.1,3,2.1,4.8c0,1.9-0.7,3.6-2.1,5s-3,2.1-4.8,2.1c-1.9,0-3.6-0.7-5-2.1    C168.5,668.6,167.8,667,167.8,665.1z M167.8,678.8c0-1.8,0.7-3.4,2.1-4.8c1.4-1.3,3-2,5-2c1.8,0,3.4,0.7,4.8,2    c1.4,1.3,2.1,2.9,2.1,4.8c0,1.9-0.7,3.6-2.1,4.9c-1.4,1.3-3,2-4.8,2c-1.9,0-3.6-0.7-5-2C168.5,682.4,167.8,680.8,167.8,678.8z     M167.8,693.1c0-1.8,0.7-3.4,2.1-4.8c1.4-1.3,3-2,5-2c1.8,0,3.4,0.7,4.8,2c1.4,1.3,2.1,2.9,2.1,4.8c0,1.8-0.7,3.4-2.1,4.8    c-1.4,1.3-3,2-4.8,2c-1.9,0-3.6-0.7-5-2C168.5,696.6,167.8,695,167.8,693.1z M167.8,706.8c0-1.9,0.7-3.6,2.1-4.9c1.4-1.3,3-2,5-2    c1.8,0,3.4,0.7,4.8,2c1.4,1.3,2.1,3,2.1,4.9s-0.7,3.6-2.1,4.9c-1.4,1.3-3,2-4.8,2c-1.9,0-3.6-0.7-5-2    C168.5,710.3,167.8,708.7,167.8,706.8z M167.8,720.4c0-1.8,0.7-3.4,2.1-4.8c1.4-1.3,3.1-2,5.1-2c1.9,0,3.6,0.7,5,2    c1.4,1.3,2.1,2.9,2.1,4.8c0,1.9-0.7,3.6-2.1,4.9c-1.4,1.3-3,2-5,2c-2,0-3.7-0.7-5.1-2C168.5,724,167.8,722.3,167.8,720.4z     M181.7,679.1c0-1.7,0.7-3.3,2-4.5c1.3-1.3,3-1.9,4.9-1.9c1.9,0,3.6,0.6,4.9,1.9c1.3,1.3,2,2.8,2,4.5c0,1.8-0.7,3.4-2,4.7    c-1.3,1.3-3,1.9-4.9,1.9c-1.9,0-3.6-0.6-4.9-1.9C182.3,682.5,181.7,680.9,181.7,679.1z M181.8,638.1c0-1.8,0.7-3.4,2-4.8    c1.3-1.3,3-2,4.9-2c1.9,0,3.6,0.7,4.9,2c1.3,1.3,2,2.9,2,4.8c0,1.8-0.7,3.4-2,4.8c-1.3,1.3-3,2-4.9,2c-1.9,0-3.6-0.7-4.9-2    C182.5,641.5,181.8,639.9,181.8,638.1z M195.4,679.2c0-1.8,0.7-3.4,2.1-4.7c1.4-1.3,3.1-1.9,5.1-1.9c1.9,0,3.6,0.6,5,1.9    c1.4,1.3,2.1,2.8,2.1,4.7c0,1.9-0.7,3.5-2.1,4.8c-1.4,1.3-3,1.9-5,1.9c-2,0-3.7-0.6-5.1-1.9C196.1,682.8,195.4,681.2,195.4,679.2z     M195.6,638.1c0-1.8,0.7-3.4,2-4.8c1.3-1.3,2.9-2,4.8-2c1.8,0,3.4,0.7,4.8,2c1.3,1.3,2,2.9,2,4.8c0,1.9-0.7,3.6-2,4.9    c-1.3,1.3-2.9,2-4.8,2c-1.8,0-3.4-0.7-4.8-2C196.2,641.6,195.6,640,195.6,638.1z M209.1,638.1c0-1.8,0.7-3.4,2.1-4.8    c1.4-1.3,3-2,5-2c1.8,0,3.4,0.7,4.8,2c1.4,1.3,2.1,2.9,2.1,4.8c0,1.9-0.7,3.6-2.1,4.9c-1.4,1.3-3,2-4.8,2c-1.9,0-3.6-0.7-5-2    C209.8,641.6,209.1,640,209.1,638.1z"
   class="st16" />
		<path
   id="path114"
   d="M236.6,637.8c0-1.7,0.7-3.3,2.1-4.5c1.4-1.3,3-1.9,5-1.9c1.9,0,3.6,0.6,5,1.9c1.4,1.3,2.1,2.8,2.1,4.5    c0,1.8-0.7,3.4-2.1,4.7c-1.4,1.3-3,1.9-5,1.9c-1.9,0-3.6-0.6-5-1.9C237.3,641.2,236.6,639.6,236.6,637.8z M236.6,720.7    c0-1.8,0.7-3.4,2.1-4.7c1.4-1.3,3-1.9,5-1.9c1.8,0,3.4,0.6,4.8,1.9c1.4,1.3,2.1,2.8,2.1,4.7c0,1.8-0.7,3.4-2.1,4.7    c-1.4,1.3-3,1.9-4.8,1.9c-1.9,0-3.6-0.6-5-1.9C237.3,724.1,236.6,722.5,236.6,720.7z M250.2,679.2c0-1.8,0.7-3.4,2.1-4.8    c1.4-1.3,3-2,5-2c1.9,0,3.6,0.7,5,2c1.4,1.3,2.1,2.9,2.1,4.8c0,1.9-0.7,3.6-2.1,4.9c-1.4,1.3-3,2-5,2c-1.9,0-3.6-0.7-5-2    C250.9,682.8,250.2,681.2,250.2,679.2z M250.2,693c0-1.8,0.7-3.4,2.1-4.8c1.4-1.4,3.1-2.1,5.2-2.1c1.9,0,3.6,0.7,5,2.1    c1.4,1.4,2.1,3,2.1,4.8c0,1.9-0.7,3.6-2.1,5c-1.4,1.4-3.1,2.1-5,2.1c-2,0-3.7-0.7-5.2-2.1C250.9,696.6,250.2,694.9,250.2,693z     M250.4,651.8c0-1.8,0.7-3.4,2.1-4.8c1.4-1.3,3-2,5-2c1.8,0,3.4,0.7,4.8,2c1.4,1.3,2.1,2.9,2.1,4.8c0,1.8-0.7,3.4-2.1,4.8    c-1.4,1.3-3,2-4.8,2c-1.9,0-3.6-0.7-5-2C251.1,655.3,250.4,653.7,250.4,651.8z M250.4,665.5c0-1.8,0.7-3.4,2.1-4.8s3-2.1,5-2.1    c1.8,0,3.4,0.7,4.8,2.1c1.4,1.4,2.1,3,2.1,4.8c0,1.9-0.7,3.6-2.1,5c-1.4,1.4-3,2.1-4.8,2.1c-1.9,0-3.6-0.7-5-2.1    S250.4,667.4,250.4,665.5z M250.5,706.9c0-1.9,0.7-3.6,2.1-4.9c1.4-1.3,3.1-2,5.1-2c1.9,0,3.6,0.7,5,2c1.4,1.3,2.1,3,2.1,4.9    s-0.7,3.6-2.1,4.9c-1.4,1.3-3,2-5,2c-2,0-3.7-0.7-5.1-2C251.2,710.5,250.5,708.8,250.5,706.9z M250.5,720.5c0-1.8,0.7-3.4,2-4.8    c1.3-1.3,3-2,4.9-2c1.9,0,3.6,0.7,4.9,2c1.3,1.3,2,2.9,2,4.8c0,1.8-0.7,3.4-2,4.8c-1.3,1.3-3,2-4.9,2c-1.9,0-3.6-0.7-4.9-2    C251.2,724,250.5,722.4,250.5,720.5z M250.7,637.8c0-1.7,0.7-3.3,2.1-4.5c1.4-1.3,3-1.9,5-1.9c1.8,0,3.4,0.6,4.8,1.9    c1.4,1.3,2.1,2.8,2.1,4.5c0,1.8-0.7,3.4-2.1,4.7c-1.4,1.3-3,1.9-4.8,1.9c-1.9,0-3.6-0.6-5-1.9    C251.3,641.2,250.7,639.6,250.7,637.8z M264.3,720.5c0-1.8,0.7-3.4,2.1-4.8c1.4-1.3,3-2,5-2s3.6,0.7,5,2c1.4,1.3,2.1,2.9,2.1,4.8    c0,1.8-0.7,3.4-2.1,4.8c-1.4,1.3-3,2-5,2s-3.6-0.7-5-2C265,724,264.3,722.4,264.3,720.5z"
   class="st16" />
		<path
   id="path116"
   d="M291.5,665.7c0-1.8,0.7-3.4,2-4.7c1.3-1.3,3-1.9,4.9-1.9c1.9,0,3.6,0.6,4.9,1.9c1.3,1.3,2,2.8,2,4.7    c0,1.9-0.7,3.5-2,4.8c-1.3,1.3-3,1.9-4.9,1.9c-1.9,0-3.6-0.6-4.9-1.9C292.2,669.3,291.5,667.7,291.5,665.7z M291.5,679.2    c0-1.8,0.7-3.4,2.1-4.8c1.4-1.3,3-2,5-2c1.8,0,3.4,0.7,4.8,2c1.4,1.3,2.1,2.9,2.1,4.8c0,1.8-0.7,3.4-2.1,4.8c-1.4,1.3-3,2-4.8,2    c-1.9,0-3.6-0.7-5-2C292.2,682.7,291.5,681.1,291.5,679.2z M291.5,693c0-1.9,0.7-3.6,2.1-5c1.4-1.4,3-2.1,5-2.1    c1.8,0,3.4,0.7,4.8,2.1c1.4,1.4,2.1,3,2.1,5s-0.7,3.6-2.1,5c-1.4,1.4-3,2.1-4.8,2.1c-1.9,0-3.6-0.7-5-2.1    C292.2,696.6,291.5,694.9,291.5,693z M291.5,706.8c0-1.8,0.7-3.4,2.1-4.8c1.4-1.3,3-2,5-2c1.8,0,3.4,0.7,4.8,2    c1.4,1.3,2.1,2.9,2.1,4.8c0,1.8-0.7,3.4-2.1,4.8c-1.4,1.3-3,2-4.8,2c-1.9,0-3.6-0.7-5-2C292.2,710.2,291.5,708.6,291.5,706.8z     M305.4,720.4c0-1.9,0.7-3.6,2-4.9c1.3-1.3,3-2,4.9-2c1.9,0,3.6,0.7,4.9,2c1.3,1.3,2,3,2,4.9c0,1.9-0.7,3.6-2,4.9    c-1.3,1.3-3,2-4.9,2c-1.9,0-3.6-0.7-4.9-2C306.1,724,305.4,722.3,305.4,720.4z M319.2,720.5c0-1.8,0.6-3.4,1.9-4.8    c1.3-1.3,2.9-2,4.8-2c1.8,0,3.4,0.7,4.7,2c1.3,1.3,1.9,2.9,1.9,4.8c0,1.8-0.6,3.4-1.9,4.8c-1.3,1.3-2.8,2-4.7,2    c-1.9,0-3.5-0.7-4.8-2C319.9,724,319.2,722.4,319.2,720.5z M332.6,665.7c0-1.9,0.7-3.6,2.1-4.9c1.4-1.3,3.1-2,5.1-2    c2,0,3.7,0.7,5.1,2c1.4,1.3,2.1,3,2.1,4.9c0,1.9-0.7,3.6-2.1,4.9c-1.4,1.3-3.1,2-5.1,2c-2,0-3.7-0.7-5.1-2    C333.3,669.3,332.6,667.7,332.6,665.7z M332.6,679.5c0-1.8,0.7-3.4,2.1-4.8c1.4-1.4,3.1-2.1,5.1-2.1c2,0,3.7,0.7,5.1,2.1    c1.4,1.4,2.1,3,2.1,4.8c0,1.9-0.7,3.6-2.1,5c-1.4,1.4-3.1,2.1-5.1,2.1c-2,0-3.7-0.7-5.1-2.1C333.3,683.1,332.6,681.4,332.6,679.5z     M332.6,693.3c0-1.8,0.7-3.4,2.1-4.8c1.4-1.3,3.1-2,5.1-2c2,0,3.7,0.7,5.1,2c1.4,1.3,2.1,2.9,2.1,4.8c0,1.8-0.7,3.4-2.1,4.8    c-1.4,1.3-3.1,2-5.1,2c-2,0-3.7-0.7-5.1-2C333.3,696.7,332.6,695.1,332.6,693.3z M333,706.8c0-1.8,0.7-3.4,2.1-4.8    c1.4-1.3,3-2,5-2c1.8,0,3.4,0.7,4.8,2c1.4,1.3,2.1,2.9,2.1,4.8c0,1.9-0.7,3.6-2.1,4.9c-1.4,1.3-3,2-4.8,2c-1.9,0-3.6-0.7-5-2    C333.7,710.3,333,708.7,333,706.8z M333,720.4c0-1.8,0.6-3.4,1.9-4.8c1.3-1.3,2.9-2,4.8-2c1.8,0,3.4,0.7,4.7,2    c1.3,1.3,1.9,2.9,1.9,4.8c0,1.9-0.6,3.6-1.9,4.9c-1.3,1.3-2.8,2-4.7,2c-1.9,0-3.5-0.7-4.8-2C333.6,724,333,722.3,333,720.4z"
   class="st16" />
		<path
   id="path118"
   d="M360.4,679.4c0-1.9,0.7-3.6,2.1-5c1.4-1.4,3-2.1,5-2.1c1.8,0,3.4,0.7,4.8,2.1s2.1,3,2.1,5    c0,2-0.7,3.7-2.1,5.1s-3,2.1-4.8,2.1c-1.9,0-3.6-0.7-5-2.1C361.1,683.1,360.4,681.4,360.4,679.4z M360.4,693.3    c0-1.8,0.7-3.4,2.1-4.8c1.4-1.3,3-2,5-2c1.8,0,3.4,0.7,4.8,2c1.4,1.3,2.1,2.9,2.1,4.8c0,1.8-0.7,3.4-2.1,4.8c-1.4,1.3-3,2-4.8,2    c-1.9,0-3.6-0.7-5-2C361.1,696.7,360.4,695.1,360.4,693.3z M360.4,706.9c0-1.8,0.7-3.4,2.1-4.7c1.4-1.3,3-1.9,5-1.9    c1.9,0,3.6,0.6,5,1.9c1.4,1.3,2.1,2.8,2.1,4.7c0,1.9-0.7,3.5-2.1,4.8c-1.4,1.3-3,1.9-5,1.9c-1.9,0-3.6-0.6-5-1.9    C361.1,710.5,360.4,708.8,360.4,706.9z M374,665.7c0-1.8,0.7-3.4,2.1-4.8c1.4-1.3,3-2,5-2c1.9,0,3.6,0.7,5,2    c1.4,1.3,2.1,2.9,2.1,4.8c0,1.8-0.7,3.4-2.1,4.8c-1.4,1.3-3,2-5,2c-1.9,0-3.6-0.7-5-2C374.7,669.2,374,667.6,374,665.7z     M374.3,693.1c0-1.8,0.7-3.4,2-4.8c1.3-1.3,3-2,4.9-2c1.8,0,3.4,0.7,4.8,2c1.3,1.3,2,2.9,2,4.8c0,1.9-0.7,3.6-2,4.9    c-1.3,1.3-2.9,2-4.8,2c-1.9,0-3.6-0.7-4.9-2C375,696.7,374.3,695.1,374.3,693.1z M374.3,720.8c0-1.7,0.7-3.3,2.1-4.5    c1.4-1.3,3-1.9,5-1.9c1.9,0,3.6,0.6,5,1.9c1.4,1.3,2.1,2.8,2.1,4.5c0,1.7-0.7,3.3-2.1,4.5c-1.4,1.3-3,1.9-5,1.9    c-1.9,0-3.6-0.6-5-1.9C375,724.1,374.3,722.6,374.3,720.8z M387.9,693.1c0-1.8,0.7-3.4,2.1-4.8c1.4-1.3,3-2,5-2    c1.8,0,3.4,0.7,4.8,2c1.4,1.3,2.1,2.9,2.1,4.8c0,1.8-0.7,3.4-2.1,4.8c-1.4,1.3-3,2-4.8,2c-1.9,0-3.6-0.7-5-2    C388.6,696.6,387.9,695,387.9,693.1z M388.1,665.5c0-1.9,0.7-3.6,2-5c1.3-1.4,3-2.1,4.9-2.1c1.8,0,3.4,0.7,4.8,2.1    c1.3,1.4,2,3,2,5c0,1.9-0.7,3.6-2,5c-1.3,1.4-2.9,2.1-4.8,2.1c-1.9,0-3.6-0.7-4.9-2.1C388.7,669.1,388.1,667.4,388.1,665.5z     M388.3,720.5c0-1.8,0.7-3.4,2-4.7c1.3-1.3,3-1.9,4.9-1.9c1.9,0,3.6,0.6,4.9,1.9c1.3,1.3,2,2.8,2,4.7c0,1.9-0.7,3.5-2,4.8    c-1.3,1.3-3,1.9-4.9,1.9c-1.9,0-3.6-0.6-4.9-1.9C389,724.1,388.3,722.5,388.3,720.5z M401.8,679.2c0-2,0.7-3.7,2.1-5.1    c1.4-1.4,3-2.1,5-2.1c1.9,0,3.6,0.7,5,2.1c1.4,1.4,2.1,3.1,2.1,5.1c0,2-0.7,3.7-2.1,5.1c-1.4,1.4-3,2.1-5,2.1    c-1.9,0-3.6-0.7-5-2.1C402.5,683,401.8,681.3,401.8,679.2z M401.8,693.1c0-1.8,0.7-3.4,2.1-4.8c1.4-1.3,3-2,5-2c1.9,0,3.6,0.7,5,2    c1.4,1.3,2.1,2.9,2.1,4.8c0,1.8-0.7,3.4-2.1,4.8c-1.4,1.3-3,2-5,2c-1.9,0-3.6-0.7-5-2C402.5,696.6,401.8,695,401.8,693.1z"
   class="st16" />
		<path
   id="path120"
   d="M429.2,665.6c0-1.9,0.7-3.6,2.1-4.9c1.4-1.3,3.1-2,5.1-2c1.9,0,3.6,0.7,5,2c1.4,1.3,2.1,3,2.1,4.9    c0,1.9-0.7,3.6-2.1,4.9c-1.4,1.3-3,2-5,2c-2,0-3.7-0.7-5.1-2C429.9,669.2,429.2,667.5,429.2,665.6z M429.2,679.5    c0-1.9,0.7-3.6,2.1-5s3-2.1,5-2.1c1.8,0,3.4,0.7,4.8,2.1s2.1,3,2.1,5s-0.7,3.6-2.1,5s-3,2.1-4.8,2.1c-1.9,0-3.6-0.7-5-2.1    S429.2,681.4,429.2,679.5z M429.2,693.3c0-1.8,0.7-3.4,2.1-4.8c1.4-1.3,3-2,5-2c1.8,0,3.4,0.7,4.8,2c1.4,1.3,2.1,2.9,2.1,4.8    c0,1.9-0.7,3.6-2.1,4.9c-1.4,1.3-3,2-4.8,2c-1.9,0-3.6-0.7-5-2C429.9,696.8,429.2,695.2,429.2,693.3z M429.2,706.8    c0-1.8,0.7-3.4,2.1-4.7c1.4-1.3,3.1-1.9,5.1-1.9s3.7,0.6,5.1,1.9c1.4,1.3,2.1,2.8,2.1,4.7c0,1.9-0.7,3.5-2.1,4.8    c-1.4,1.3-3.1,1.9-5.1,1.9s-3.7-0.6-5.1-1.9C429.9,710.3,429.2,708.7,429.2,706.8z M429.2,720.4c0-1.9,0.7-3.6,2.1-4.9    c1.4-1.3,3.1-2,5.1-2s3.7,0.7,5.1,2c1.4,1.3,2.1,3,2.1,4.9c0,1.9-0.7,3.6-2.1,4.9c-1.4,1.3-3.1,2-5.1,2s-3.7-0.7-5.1-2    C429.9,724,429.2,722.3,429.2,720.4z M429.2,734.3c0-1.9,0.7-3.6,2.1-5s3-2.1,5-2.1s3.6,0.7,5,2.1s2.1,3,2.1,5    c0,1.9-0.7,3.6-2.1,5s-3,2.1-5,2.1s-3.6-0.7-5-2.1S429.2,736.2,429.2,734.3z M429.2,747.9c0-1.8,0.7-3.4,2.1-4.7    c1.4-1.3,3-1.9,5-1.9s3.6,0.6,5,1.9c1.4,1.3,2.1,2.8,2.1,4.7c0,1.8-0.7,3.4-2.1,4.7c-1.4,1.3-3,1.9-5,1.9s-3.6-0.6-5-1.9    C429.9,751.3,429.2,749.8,429.2,747.9z M443.4,665.5c0-1.8,0.7-3.4,2-4.8c1.3-1.3,2.9-2,4.8-2c1.8,0,3.4,0.7,4.8,2    c1.3,1.3,2,2.9,2,4.8c0,1.8-0.7,3.4-2,4.8c-1.3,1.3-2.9,2-4.8,2c-1.8,0-3.4-0.7-4.8-2C444.1,668.9,443.4,667.3,443.4,665.5z     M443.7,720.5c0-1.8,0.6-3.4,1.9-4.8c1.2-1.3,2.8-2,4.6-2c1.7,0,3.2,0.7,4.5,2c1.2,1.3,1.9,2.9,1.9,4.8c0,1.8-0.6,3.4-1.9,4.8    c-1.2,1.3-2.7,2-4.5,2c-1.8,0-3.4-0.7-4.6-2C444.3,724,443.7,722.4,443.7,720.5z M456.5,720.5c0-1.8,0.7-3.4,2.1-4.8    c1.4-1.3,3.1-2,5.2-2c2,0,3.7,0.7,5.2,2c1.4,1.3,2.1,2.9,2.1,4.8c0,1.8-0.7,3.4-2.1,4.8c-1.4,1.3-3.1,2-5.2,2c-2,0-3.7-0.7-5.2-2    C457.2,724,456.5,722.4,456.5,720.5z M456.9,665.5c0-1.8,0.7-3.4,2.1-4.8c1.4-1.3,3-2,5-2s3.6,0.7,5,2c1.4,1.3,2.1,2.9,2.1,4.8    c0,1.8-0.7,3.4-2.1,4.8c-1.4,1.3-3,2-5,2s-3.6-0.7-5-2C457.6,668.9,456.9,667.3,456.9,665.5z M470.4,693c0-1.8,0.7-3.4,2.1-4.8    c1.4-1.4,3-2.1,5-2.1s3.6,0.7,5,2.1c1.4,1.4,2.1,3,2.1,4.8c0,1.9-0.7,3.6-2.1,5c-1.4,1.4-3,2.1-5,2.1s-3.6-0.7-5-2.1    C471.1,696.6,470.4,694.9,470.4,693z M470.4,706.8c0-1.8,0.7-3.4,2.1-4.8c1.4-1.3,3.1-2,5.1-2c1.9,0,3.6,0.7,5,2    c1.4,1.3,2.1,2.9,2.1,4.8c0,1.9-0.7,3.6-2.1,4.9c-1.4,1.3-3,2-5,2c-2,0-3.7-0.7-5.1-2C471.1,710.3,470.4,708.7,470.4,706.8z     M471.1,679c0-1.9,0.6-3.6,1.9-5c1.3-1.4,2.9-2.1,4.8-2.1c1.8,0,3.4,0.7,4.7,2.1c1.3,1.4,1.9,3,1.9,5c0,2-0.6,3.7-1.9,5.1    c-1.3,1.4-2.8,2.1-4.7,2.1c-1.9,0-3.5-0.7-4.8-2.1C471.7,682.7,471.1,681,471.1,679z"
   class="st16" />
		<path
   id="path122"
   d="M509.7,698c-1.4,1.3-3.1,1.9-5.2,1.9c-2.1,0-3.9-0.6-5.3-1.9c-1.4-1.3-2.1-2.8-2.1-4.7    c0-1.7,0.7-3.3,2.1-4.5c1.4-1.3,3.2-1.9,5.3-1.9c2,0,3.7,0.6,5.2,1.9c1.4,1.3,2.1,2.8,2.1,4.5C511.8,695.1,511.1,696.7,509.7,698z     M509.4,712c-1.4,1.4-3.1,2.1-5.1,2.1c-2,0-3.7-0.7-5.1-2.1s-2.1-3.1-2.1-5.1c0-1.9,0.7-3.6,2.1-5s3.1-2.1,5.1-2.1    c2,0,3.7,0.7,5.1,2.1s2.1,3,2.1,5C511.4,708.9,510.7,710.6,509.4,712z M509.8,684.8c-1.4,1.4-3.1,2.1-5.1,2.1    c-2,0-3.7-0.7-5.1-2.1s-2.1-3.1-2.1-5.1c0-2,0.7-3.7,2.1-5.1s3.1-2.1,5.1-2.1c2,0,3.7,0.7,5.1,2.1s2.1,3.1,2.1,5.1    C511.8,681.7,511.1,683.4,509.8,684.8z M523,725.3c-1.4,1.3-3,2-5,2s-3.6-0.7-5-2c-1.4-1.3-2.1-3-2.1-4.9c0-1.9,0.7-3.6,2.1-4.9    c1.4-1.3,3-2,5-2s3.6,0.7,5,2c1.4,1.3,2.1,3,2.1,4.9C525.1,722.3,524.4,724,523,725.3z M523.2,670.7c-1.3,1.4-2.9,2.1-4.8,2.1    c-1.8,0-3.4-0.7-4.8-2.1c-1.3-1.4-2-3-2-5c0-1.9,0.7-3.6,2-5c1.3-1.4,2.9-2.1,4.8-2.1c1.8,0,3.4,0.7,4.8,2.1c1.3,1.4,2,3,2,5    C525.2,667.7,524.5,669.3,523.2,670.7z M536.7,725.3c-1.3,1.3-2.9,2-4.8,2c-1.9,0-3.6-0.7-4.9-2c-1.3-1.3-2-3-2-4.9    c0-1.9,0.7-3.6,2-4.9c1.3-1.3,3-2,4.9-2c1.8,0,3.4,0.7,4.8,2c1.3,1.3,2,3,2,4.9C538.7,722.3,538,724,536.7,725.3z M537,670.2    c-1.3,1.3-3,2-4.9,2s-3.6-0.7-4.9-2c-1.3-1.3-2-2.9-2-4.8c0-1.8,0.7-3.4,2-4.8c1.3-1.3,3-2,4.9-2s3.6,0.7,4.9,2    c1.3,1.3,2,2.9,2,4.8C539,667.3,538.3,668.9,537,670.2z M550.8,642.8c-1.4,1.3-3,2-5,2c-2,0-3.7-0.7-5.1-2    c-1.4-1.3-2.1-2.9-2.1-4.8c0-1.8,0.7-3.4,2.1-4.8c1.4-1.3,3.1-2,5.1-2c1.9,0,3.6,0.7,5,2c1.4,1.3,2.1,2.9,2.1,4.8    C552.9,639.9,552.2,641.5,550.8,642.8z M550.8,656.8c-1.4,1.4-3,2.1-5,2.1c-2,0-3.7-0.7-5.1-2.1s-2.1-3-2.1-5s0.7-3.6,2.1-5    s3.1-2.1,5.1-2.1c1.9,0,3.6,0.7,5,2.1s2.1,3,2.1,5S552.2,655.4,550.8,656.8z M550.8,670.5c-1.4,1.3-3,2-5,2c-2,0-3.7-0.7-5.1-2    c-1.4-1.3-2.1-3-2.1-4.9c0-1.8,0.7-3.4,2.1-4.8c1.4-1.3,3.1-2,5.1-2c1.9,0,3.6,0.7,5,2c1.4,1.3,2.1,2.9,2.1,4.8    C552.9,667.5,552.2,669.2,550.8,670.5z M550.8,684c-1.4,1.3-3,2-5,2c-2,0-3.7-0.7-5.1-2c-1.4-1.3-2.1-2.9-2.1-4.8    c0-1.8,0.7-3.4,2.1-4.8c1.4-1.3,3.1-2,5.1-2c1.9,0,3.6,0.7,5,2c1.4,1.3,2.1,2.9,2.1,4.8C552.9,681.1,552.2,682.7,550.8,684z     M550.8,697.8c-1.4,1.4-3,2.1-5,2.1c-2,0-3.7-0.7-5.1-2.1c-1.4-1.4-2.1-3-2.1-5c0-1.8,0.7-3.4,2.1-4.8c1.4-1.4,3.1-2.1,5.1-2.1    c1.9,0,3.6,0.7,5,2.1c1.4,1.4,2.1,3,2.1,4.8C552.9,694.8,552.2,696.5,550.8,697.8z M550.8,711.7c-1.4,1.4-3,2.1-5,2.1    c-2,0-3.7-0.7-5.1-2.1c-1.4-1.4-2.1-3-2.1-5c0-1.8,0.7-3.4,2.1-4.8s3.1-2.1,5.1-2.1c1.9,0,3.6,0.7,5,2.1s2.1,3,2.1,4.8    C552.9,708.7,552.2,710.4,550.8,711.7z M550.8,725.3c-1.4,1.3-3,2-5,2c-2,0-3.7-0.7-5.1-2c-1.4-1.3-2.1-2.9-2.1-4.8    c0-1.8,0.7-3.4,2.1-4.8c1.4-1.3,3.1-2,5.1-2c1.9,0,3.6,0.7,5,2c1.4,1.3,2.1,2.9,2.1,4.8C552.9,722.4,552.2,724,550.8,725.3z"
   class="st16" />
		<path
   id="path124"
   d="M566.9,679.5c0-1.7,0.7-3.3,2.1-4.5c1.4-1.3,3-1.9,5-1.9c1.9,0,3.6,0.6,5,1.9c1.4,1.3,2.1,2.8,2.1,4.5    c0,1.7-0.7,3.3-2.1,4.5c-1.4,1.3-3,1.9-5,1.9c-1.9,0-3.6-0.6-5-1.9C567.6,682.8,566.9,681.3,566.9,679.5z M566.9,692.9    c0-1.8,0.7-3.4,2.1-4.8c1.4-1.4,3-2.1,5-2.1c1.9,0,3.6,0.7,5,2.1c1.4,1.4,2.1,3,2.1,4.8c0,1.9-0.7,3.6-2.1,5c-1.4,1.4-3,2.1-5,2.1    c-1.9,0-3.6-0.7-5-2.1C567.6,696.5,566.9,694.8,566.9,692.9z M566.9,706.6c0-1.8,0.7-3.4,2.1-4.8c1.4-1.3,3-2,5-2    c1.9,0,3.6,0.7,5,2c1.4,1.3,2.1,2.9,2.1,4.8c0,1.9-0.7,3.6-2.1,4.9c-1.4,1.3-3,2-5,2c-1.9,0-3.6-0.7-5-2    C567.6,710.2,566.9,708.6,566.9,706.6z M580.5,665.5c0-1.8,0.7-3.4,2.1-4.8c1.4-1.3,3-2,5-2c1.8,0,3.4,0.7,4.8,2    c1.4,1.3,2.1,2.9,2.1,4.8c0,1.9-0.7,3.6-2.1,4.9c-1.4,1.3-3,2-4.8,2c-1.9,0-3.6-0.7-5-2C581.2,669,580.5,667.4,580.5,665.5z     M581,720.4c0-1.9,0.7-3.6,2-4.9c1.3-1.3,3-2,4.9-2c1.8,0,3.4,0.7,4.8,2c1.3,1.3,2,3,2,4.9c0,1.9-0.7,3.6-2,4.9    c-1.3,1.3-2.9,2-4.8,2c-1.9,0-3.6-0.7-4.9-2C581.6,724,581,722.3,581,720.4z M594.4,665.2c0-1.7,0.7-3.3,2.1-4.5    c1.4-1.3,3-1.9,5-1.9s3.6,0.6,5,1.9c1.4,1.3,2.1,2.8,2.1,4.5c0,1.8-0.7,3.4-2.1,4.7c-1.4,1.3-3,1.9-5,1.9s-3.6-0.6-5-1.9    C595.1,668.6,594.4,667,594.4,665.2z M594.6,720.5c0-1.8,0.7-3.4,2.1-4.8c1.4-1.3,3-2,5-2c1.8,0,3.4,0.7,4.8,2    c1.4,1.3,2.1,2.9,2.1,4.8c0,1.8-0.7,3.4-2.1,4.8c-1.4,1.3-3,2-4.8,2c-1.9,0-3.6-0.7-5-2C595.3,724,594.6,722.4,594.6,720.5z     M608.1,679.4c0-1.8,0.7-3.4,2.1-4.8s3.1-2.1,5.1-2.1c1.9,0,3.6,0.7,5,2.1s2.1,3,2.1,4.8c0,1.9-0.7,3.6-2.1,5s-3,2.1-5,2.1    c-2,0-3.7-0.7-5.1-2.1S608.1,681.3,608.1,679.4z M608.1,693.3c0-1.9,0.7-3.6,2.1-4.9c1.4-1.3,3.1-2,5.1-2c1.9,0,3.6,0.7,5,2    c1.4,1.3,2.1,3,2.1,4.9s-0.7,3.6-2.1,4.9c-1.4,1.3-3,2-5,2c-2,0-3.7-0.7-5.1-2C608.8,696.8,608.1,695.2,608.1,693.3z M608.5,706.9    c0-1.8,0.7-3.4,2-4.8c1.3-1.3,3-2,4.9-2s3.6,0.7,4.9,2c1.3,1.3,2,2.9,2,4.8c0,1.9-0.7,3.6-2,4.9c-1.3,1.3-3,2-4.9,2    s-3.6-0.7-4.9-2C609.2,710.5,608.5,708.8,608.5,706.9z"
   class="st16" />
		<path
   id="path126"
   d="M635.7,679.2c0-1.8,0.7-3.4,2-4.8c1.3-1.3,3-2,4.9-2c1.8,0,3.4,0.7,4.8,2c1.3,1.3,2,2.9,2,4.8    c0,1.9-0.7,3.6-2,4.9c-1.3,1.3-2.9,2-4.8,2c-1.9,0-3.6-0.7-4.9-2C636.4,682.8,635.7,681.2,635.7,679.2z M649.4,638.1    c0-1.8,0.7-3.4,2.1-4.8c1.4-1.3,3.1-2,5.1-2c1.9,0,3.6,0.7,5,2c1.4,1.3,2.1,2.9,2.1,4.8c0,1.8-0.7,3.4-2.1,4.8c-1.4,1.3-3,2-5,2    c-2,0-3.7-0.7-5.1-2C650.1,641.5,649.4,639.9,649.4,638.1z M649.4,651.7c0-1.9,0.7-3.6,2.1-4.9c1.4-1.3,3.1-2,5.1-2    c1.9,0,3.6,0.7,5,2c1.4,1.3,2.1,3,2.1,4.9s-0.7,3.6-2.1,4.9c-1.4,1.3-3,2-5,2c-2,0-3.7-0.7-5.1-2    C650.1,655.3,649.4,653.6,649.4,651.7z M649.4,665.3c0-1.8,0.7-3.4,2.1-4.8c1.4-1.3,3.1-2,5.1-2c2,0,3.7,0.7,5.1,2    c1.4,1.3,2.1,2.9,2.1,4.8c0,1.9-0.7,3.6-2.1,4.9c-1.4,1.3-3.1,2-5.1,2c-2,0-3.7-0.7-5.1-2C650.1,668.9,649.4,667.3,649.4,665.3z     M649.4,679.1c0-1.8,0.7-3.4,2.1-4.8c1.4-1.4,3.1-2.1,5.1-2.1c2,0,3.7,0.7,5.1,2.1s2.1,3,2.1,4.8c0,1.9-0.7,3.6-2.1,5    s-3.1,2.1-5.1,2.1c-2,0-3.7-0.7-5.1-2.1C650.1,682.7,649.4,681,649.4,679.1z M649.4,693.1c0-1.8,0.7-3.4,2.1-4.8    c1.4-1.3,3.1-2,5.1-2c2,0,3.7,0.7,5.1,2c1.4,1.3,2.1,2.9,2.1,4.8c0,1.9-0.7,3.6-2.1,4.9c-1.4,1.3-3.1,2-5.1,2c-2,0-3.7-0.7-5.1-2    C650.1,696.7,649.4,695.1,649.4,693.1z M649.4,706.9c0-1.9,0.7-3.6,2.1-4.9c1.4-1.3,3-2,5-2c1.8,0,3.4,0.7,4.8,2    c1.4,1.3,2.1,3,2.1,4.9s-0.7,3.6-2.1,4.9c-1.4,1.3-3,2-4.8,2c-1.9,0-3.6-0.7-5-2C650.1,710.5,649.4,708.8,649.4,706.9z     M663.3,720.5c0-1.8,0.7-3.4,2.1-4.8c1.4-1.3,3-2,5-2c1.8,0,3.4,0.7,4.8,2c1.4,1.3,2.1,2.9,2.1,4.8c0,1.8-0.7,3.4-2.1,4.8    c-1.4,1.3-3,2-4.8,2c-1.9,0-3.6-0.7-5-2C664,724,663.3,722.4,663.3,720.5z M663.7,679.7c0-1.8,0.7-3.4,2-4.8c1.3-1.3,3-2,4.9-2    s3.6,0.7,4.9,2c1.3,1.3,2,2.9,2,4.8c0,1.8-0.7,3.4-2,4.8c-1.3,1.3-3,2-4.9,2s-3.6-0.7-4.9-2C664.4,683.1,663.7,681.5,663.7,679.7z    "
   class="st16" />
	</g>
	<polyline
   id="polyline130"
   points="228.8,258.3 108.2,380.9 108.2,777.4 169.5,838.7  "
   class="st17" />
	<polyline
   id="polyline132"
   points="169.5,838.7 230.8,900 627.3,900 749.9,777.4 749.9,469.1  "
   class="st17" />
	<g
   id="g186">
		<g
   id="g184">
			<line
   id="line134"
   y2="257.7"
   x2="229.2"
   y1="258.3"
   x1="228.8"
   class="st18" />
			<path
   id="path136"
   d="M237.4,244.6l26.3-42c9.1-15.4,42.4-56.6,54.7-69.6l16.1-16.9"
   class="st19" />
			<polyline
   id="polyline138"
   points="339.8,110.5 340.4,110 340.2,110.7    "
   class="st18" />
			<line
   id="line140"
   y2="179"
   x2="325.8"
   y1="124.7"
   x1="337.2"
   class="st20" />
			<polyline
   id="polyline142"
   points="324.3,186 324.1,186.7 324.8,186.4    "
   class="st18" />
			<path
   id="path144"
   d="M340.1,180.5l161.5-62.4c6.9-2.8,14.2-4.5,21.7-5.2l118.6-12"
   class="st21" />
			<polyline
   id="polyline146"
   points="650,100.1 650.8,100 650.2,100.5    "
   class="st18" />
			<line
   id="line148"
   y2="131.2"
   x2="606.8"
   y1="108.6"
   x1="638.7"
   class="st22" />
			<polyline
   id="polyline150"
   points="601.1,135.3 600.5,135.7 601.2,135.6    "
   class="st18" />
			<path
   id="path152"
   d="M616.9,134.1l45-4.4c10.4-0.9,20.9-0.1,31,2.3L810,168.6"
   class="st23" />
			<polyline
   id="polyline154"
   points="817.6,171 818.3,171.2 817.6,171.4    "
   class="st18" />
			<line
   id="line156"
   y2="190.5"
   x2="726.1"
   y1="174.6"
   x1="802.2"
   class="st24" />
			<polyline
   id="polyline158"
   points="718.5,192.1 717.7,192.2 718.3,192.7    "
   class="st18" />
			<path
   id="path160"
   d="M730.2,203l22.9,19.7c1.9,1.6,27.3,9.1,27.3,9.1c14.4,3.9,38.3-1.2,49.8-12.5"
   class="st25" />
			<path
   id="path162"
   d="M834.7,212.9c0.1-0.2,0.2-0.4,0.3-0.7v0.8"
   class="st18" />
			<path
   id="path164"
   d="M834.9,227.9l-2,47.6c-0.7,16.4-11.8,30.6-27.6,35.2l-11.3,3.3"
   class="st26" />
			<polyline
   id="polyline166"
   points="786.9,316.2 786.1,316.4 786.8,316.8    "
   class="st18" />
			<path
   id="path168"
   d="M800.3,324.9c21.8,10,45.6-3,45.6-3s29.2-28.4,42-50.2"
   class="st27" />
			<path
   id="path170"
   d="M891.5,264.7c0.1-0.2,0.2-0.5,0.3-0.7l0,0.8"
   class="st18" />
			<path
   id="path172"
   d="M891.7,281.1l-0.1,21.3c0,20,0.3,53.5-12.1,68.8L833,422.5c-3.1,3.5-7.5,5.5-12.2,5.7l-12.8,0.4"
   class="st28" />
			<polyline
   id="polyline174"
   points="799.9,428.9 799.1,429 799.8,429.3    "
   class="st18" />
			<path
   id="path176"
   d="M813.9,437.1c9.8,4.4,40.3,17.9,58.3,22.6"
   class="st29" />
			<polyline
   id="polyline178"
   points="880.1,461.8 880.8,462 880.1,462.2    "
   class="st18" />
			<path
   id="path180"
   d="M865.6,467.1l-1.1,0.4c0,0-73.5,15.8-107,5"
   class="st30" />
			<path
   id="path182"
   d="M750.5,469.5c-0.2-0.1-0.4-0.3-0.6-0.4"
   class="st18" />
		</g>
	</g>
	<path
   id="path188"
   d="M244.4,281.2L478,301.7c41.8,3.7,82.3,16.4,118.7,37.4l93.7,80"
   class="st17" />
	<line
   id="line190"
   y2="451"
   x2="672.3"
   y1="451"
   x1="183.7"
   class="st17" />
	<g
   id="g206">
		<g
   id="g204">
			<line
   id="line192"
   y2="574.2"
   x2="171.3"
   y1="573.7"
   x1="170.8"
   class="st18" />
			<line
   id="line194"
   y2="589.2"
   x2="186.3"
   y1="583.6"
   x1="180.7"
   class="st31" />
			<polyline
   id="polyline196"
   points="191,593.9 191.6,594.4 192.3,594.4    "
   class="st18" />
			<polyline
   id="polyline198"
   points="208.2,594.4 371,594.4 408.7,556.7 408.7,513 413.7,503.4    "
   class="st32" />
			<polyline
   id="polyline200"
   points="417.3,496.3 417.7,495.7 418.4,495.7    "
   class="st18" />
			<line
   id="line202"
   y2="495.7"
   x2="429.2"
   y1="495.7"
   x1="428.5"
   class="st18" />
		</g>
	</g>
	<g
   id="g222">
		<g
   id="g220">
			<line
   id="line208"
   y2="574.2"
   x2="687.1"
   y1="573.7"
   x1="687.6"
   class="st18" />
			<polyline
   id="polyline210"
   points="675.8,585.5 666.9,594.4 487.4,594.4 455.9,562.9    "
   class="st33" />
			<polyline
   id="polyline212"
   points="450.3,557.2 449.7,556.7 449.7,556    "
   class="st18" />
			<polyline
   id="polyline214"
   points="449.7,541.5 449.7,513 444.4,502.7    "
   class="st34" />
			<polyline
   id="polyline216"
   points="441.1,496.3 440.8,495.7 440,495.7    "
   class="st18" />
			<line
   id="line218"
   y2="495.7"
   x2="429.2"
   y1="495.7"
   x1="430"
   class="st18" />
		</g>
	</g>
</g>
</svg>
