G04 #@! TF.GenerationSoftware,KiCad,Pcbnew,5.1.6*
G04 #@! TF.CreationDate,2020-06-20T19:13:06+02:00*
G04 #@! TF.ProjectId,fluepdot,666c7565-7064-46f7-942e-6b696361645f,rev?*
G04 #@! TF.SameCoordinates,Original*
G04 #@! TF.FileFunction,Legend,Top*
G04 #@! TF.FilePolarity,Positive*
%FSLAX46Y46*%
G04 Gerber Fmt 4.6, Leading zero omitted, Abs format (unit mm)*
G04 Created by KiCad (PCBNEW 5.1.6) date 2020-06-20 19:13:06*
%MOMM*%
%LPD*%
G01*
G04 APERTURE LIST*
%ADD10C,0.150000*%
%ADD11C,0.100000*%
%ADD12C,0.120000*%
%ADD13C,0.300000*%
%ADD14C,0.200000*%
%ADD15C,0.254000*%
G04 APERTURE END LIST*
D10*
X85600000Y-122652380D02*
X85600000Y-122128571D01*
X85552380Y-122033333D01*
X85457142Y-121985714D01*
X85266666Y-121985714D01*
X85171428Y-122033333D01*
X85600000Y-122604761D02*
X85504761Y-122652380D01*
X85266666Y-122652380D01*
X85171428Y-122604761D01*
X85123809Y-122509523D01*
X85123809Y-122414285D01*
X85171428Y-122319047D01*
X85266666Y-122271428D01*
X85504761Y-122271428D01*
X85600000Y-122223809D01*
X86504761Y-122652380D02*
X86504761Y-121652380D01*
X86504761Y-122604761D02*
X86409523Y-122652380D01*
X86219047Y-122652380D01*
X86123809Y-122604761D01*
X86076190Y-122557142D01*
X86028571Y-122461904D01*
X86028571Y-122176190D01*
X86076190Y-122080952D01*
X86123809Y-122033333D01*
X86219047Y-121985714D01*
X86409523Y-121985714D01*
X86504761Y-122033333D01*
X87409523Y-122652380D02*
X87409523Y-121652380D01*
X87409523Y-122604761D02*
X87314285Y-122652380D01*
X87123809Y-122652380D01*
X87028571Y-122604761D01*
X86980952Y-122557142D01*
X86933333Y-122461904D01*
X86933333Y-122176190D01*
X86980952Y-122080952D01*
X87028571Y-122033333D01*
X87123809Y-121985714D01*
X87314285Y-121985714D01*
X87409523Y-122033333D01*
X87885714Y-122652380D02*
X87885714Y-121985714D01*
X87885714Y-122176190D02*
X87933333Y-122080952D01*
X87980952Y-122033333D01*
X88076190Y-121985714D01*
X88171428Y-121985714D01*
D11*
G36*
X93400000Y-121500000D02*
G01*
X79800000Y-121500000D01*
X79800000Y-116000000D01*
X93400000Y-116000000D01*
X93400000Y-121500000D01*
G37*
X93400000Y-121500000D02*
X79800000Y-121500000D01*
X79800000Y-116000000D01*
X93400000Y-116000000D01*
X93400000Y-121500000D01*
D12*
X79500000Y-121800000D02*
X80700000Y-121800000D01*
X79500000Y-120600000D02*
X79500000Y-121800000D01*
X93700000Y-121800000D02*
X92500000Y-121800000D01*
X93700000Y-120600000D02*
X93700000Y-121800000D01*
X93700000Y-115700000D02*
X92500000Y-115700000D01*
X93700000Y-117100000D02*
X93700000Y-115700000D01*
X79500000Y-115700000D02*
X80700000Y-115700000D01*
X79500000Y-117000000D02*
X79500000Y-115700000D01*
X94000000Y-122200000D02*
X92200000Y-122200000D01*
X94000000Y-120400000D02*
X94000000Y-122200000D01*
X94000000Y-115400000D02*
X94000000Y-117300000D01*
X92200000Y-115400000D02*
X94000000Y-115400000D01*
X79200000Y-122200000D02*
X81000000Y-122200000D01*
X79200000Y-122200000D02*
X79200000Y-120400000D01*
X79200000Y-115400000D02*
X81000000Y-115400000D01*
X79200000Y-117200000D02*
X79200000Y-115400000D01*
D11*
X56100000Y-123200000D02*
X56100000Y-123800000D01*
X55600000Y-123800000D02*
X56100000Y-123800000D01*
X53700000Y-123200000D02*
X53700000Y-123800000D01*
X54200000Y-123800000D02*
X53700000Y-123800000D01*
X71300000Y-123300000D02*
X71300000Y-123200000D01*
X66300000Y-123200000D02*
X66300000Y-123800000D01*
X68800000Y-123200000D02*
X68800000Y-123800000D01*
X73900000Y-123200000D02*
X73900000Y-123800000D01*
X76500000Y-123200000D02*
X76500000Y-123800000D01*
X76500000Y-123800000D02*
X72800000Y-123800000D01*
X69800000Y-123800000D02*
X66300000Y-123800000D01*
X54519047Y-123526190D02*
X54828571Y-123526190D01*
X54661904Y-123716666D01*
X54733333Y-123716666D01*
X54780952Y-123740476D01*
X54804761Y-123764285D01*
X54828571Y-123811904D01*
X54828571Y-123930952D01*
X54804761Y-123978571D01*
X54780952Y-124002380D01*
X54733333Y-124026190D01*
X54590476Y-124026190D01*
X54542857Y-124002380D01*
X54519047Y-123978571D01*
X55019047Y-123883333D02*
X55257142Y-123883333D01*
X54971428Y-124026190D02*
X55138095Y-123526190D01*
X55304761Y-124026190D01*
X61200000Y-123300000D02*
X61200000Y-123200000D01*
X63700000Y-123800000D02*
X62500000Y-123800000D01*
X59900000Y-123800000D02*
X58600000Y-123800000D01*
X58600000Y-123200000D02*
X58600000Y-123800000D01*
X63700000Y-123200000D02*
X63700000Y-123800000D01*
D13*
X82121428Y-174121428D02*
X82835714Y-173621428D01*
X82121428Y-173264285D02*
X83621428Y-173264285D01*
X83621428Y-173835714D01*
X83550000Y-173978571D01*
X83478571Y-174050000D01*
X83335714Y-174121428D01*
X83121428Y-174121428D01*
X82978571Y-174050000D01*
X82907142Y-173978571D01*
X82835714Y-173835714D01*
X82835714Y-173264285D01*
X82907142Y-174764285D02*
X82907142Y-175264285D01*
X82121428Y-175478571D02*
X82121428Y-174764285D01*
X83621428Y-174764285D01*
X83621428Y-175478571D01*
X82192857Y-176050000D02*
X82121428Y-176264285D01*
X82121428Y-176621428D01*
X82192857Y-176764285D01*
X82264285Y-176835714D01*
X82407142Y-176907142D01*
X82550000Y-176907142D01*
X82692857Y-176835714D01*
X82764285Y-176764285D01*
X82835714Y-176621428D01*
X82907142Y-176335714D01*
X82978571Y-176192857D01*
X83050000Y-176121428D01*
X83192857Y-176050000D01*
X83335714Y-176050000D01*
X83478571Y-176121428D01*
X83550000Y-176192857D01*
X83621428Y-176335714D01*
X83621428Y-176692857D01*
X83550000Y-176907142D01*
X82907142Y-177550000D02*
X82907142Y-178050000D01*
X82121428Y-178264285D02*
X82121428Y-177550000D01*
X83621428Y-177550000D01*
X83621428Y-178264285D01*
X83621428Y-178692857D02*
X83621428Y-179550000D01*
X82121428Y-179121428D02*
X83621428Y-179121428D01*
D11*
X70061904Y-124002380D02*
X70133333Y-124026190D01*
X70252380Y-124026190D01*
X70300000Y-124002380D01*
X70323809Y-123978571D01*
X70347619Y-123930952D01*
X70347619Y-123883333D01*
X70323809Y-123835714D01*
X70300000Y-123811904D01*
X70252380Y-123788095D01*
X70157142Y-123764285D01*
X70109523Y-123740476D01*
X70085714Y-123716666D01*
X70061904Y-123669047D01*
X70061904Y-123621428D01*
X70085714Y-123573809D01*
X70109523Y-123550000D01*
X70157142Y-123526190D01*
X70276190Y-123526190D01*
X70347619Y-123550000D01*
X70561904Y-123764285D02*
X70728571Y-123764285D01*
X70800000Y-124026190D02*
X70561904Y-124026190D01*
X70561904Y-123526190D01*
X70800000Y-123526190D01*
X71252380Y-124026190D02*
X71014285Y-124026190D01*
X71014285Y-123526190D01*
X71419047Y-123764285D02*
X71585714Y-123764285D01*
X71657142Y-124026190D02*
X71419047Y-124026190D01*
X71419047Y-123526190D01*
X71657142Y-123526190D01*
X72157142Y-123978571D02*
X72133333Y-124002380D01*
X72061904Y-124026190D01*
X72014285Y-124026190D01*
X71942857Y-124002380D01*
X71895238Y-123954761D01*
X71871428Y-123907142D01*
X71847619Y-123811904D01*
X71847619Y-123740476D01*
X71871428Y-123645238D01*
X71895238Y-123597619D01*
X71942857Y-123550000D01*
X72014285Y-123526190D01*
X72061904Y-123526190D01*
X72133333Y-123550000D01*
X72157142Y-123573809D01*
X72300000Y-123526190D02*
X72585714Y-123526190D01*
X72442857Y-124026190D02*
X72442857Y-123526190D01*
X60402380Y-124026190D02*
X60235714Y-123788095D01*
X60116666Y-124026190D02*
X60116666Y-123526190D01*
X60307142Y-123526190D01*
X60354761Y-123550000D01*
X60378571Y-123573809D01*
X60402380Y-123621428D01*
X60402380Y-123692857D01*
X60378571Y-123740476D01*
X60354761Y-123764285D01*
X60307142Y-123788095D01*
X60116666Y-123788095D01*
X60592857Y-124002380D02*
X60664285Y-124026190D01*
X60783333Y-124026190D01*
X60830952Y-124002380D01*
X60854761Y-123978571D01*
X60878571Y-123930952D01*
X60878571Y-123883333D01*
X60854761Y-123835714D01*
X60830952Y-123811904D01*
X60783333Y-123788095D01*
X60688095Y-123764285D01*
X60640476Y-123740476D01*
X60616666Y-123716666D01*
X60592857Y-123669047D01*
X60592857Y-123621428D01*
X60616666Y-123573809D01*
X60640476Y-123550000D01*
X60688095Y-123526190D01*
X60807142Y-123526190D01*
X60878571Y-123550000D01*
X61307142Y-123692857D02*
X61307142Y-124026190D01*
X61188095Y-123502380D02*
X61069047Y-123859523D01*
X61378571Y-123859523D01*
X61640476Y-123740476D02*
X61592857Y-123716666D01*
X61569047Y-123692857D01*
X61545238Y-123645238D01*
X61545238Y-123621428D01*
X61569047Y-123573809D01*
X61592857Y-123550000D01*
X61640476Y-123526190D01*
X61735714Y-123526190D01*
X61783333Y-123550000D01*
X61807142Y-123573809D01*
X61830952Y-123621428D01*
X61830952Y-123645238D01*
X61807142Y-123692857D01*
X61783333Y-123716666D01*
X61735714Y-123740476D01*
X61640476Y-123740476D01*
X61592857Y-123764285D01*
X61569047Y-123788095D01*
X61545238Y-123835714D01*
X61545238Y-123930952D01*
X61569047Y-123978571D01*
X61592857Y-124002380D01*
X61640476Y-124026190D01*
X61735714Y-124026190D01*
X61783333Y-124002380D01*
X61807142Y-123978571D01*
X61830952Y-123930952D01*
X61830952Y-123835714D01*
X61807142Y-123788095D01*
X61783333Y-123764285D01*
X61735714Y-123740476D01*
X62283333Y-123526190D02*
X62045238Y-123526190D01*
X62021428Y-123764285D01*
X62045238Y-123740476D01*
X62092857Y-123716666D01*
X62211904Y-123716666D01*
X62259523Y-123740476D01*
X62283333Y-123764285D01*
X62307142Y-123811904D01*
X62307142Y-123930952D01*
X62283333Y-123978571D01*
X62259523Y-124002380D01*
X62211904Y-124026190D01*
X62092857Y-124026190D01*
X62045238Y-124002380D01*
X62021428Y-123978571D01*
X76495238Y-122692857D02*
X76495238Y-123026190D01*
X76376190Y-122502380D02*
X76257142Y-122859523D01*
X76566666Y-122859523D01*
X73733333Y-122526190D02*
X74042857Y-122526190D01*
X73876190Y-122716666D01*
X73947619Y-122716666D01*
X73995238Y-122740476D01*
X74019047Y-122764285D01*
X74042857Y-122811904D01*
X74042857Y-122930952D01*
X74019047Y-122978571D01*
X73995238Y-123002380D01*
X73947619Y-123026190D01*
X73804761Y-123026190D01*
X73757142Y-123002380D01*
X73733333Y-122978571D01*
X71157142Y-122573809D02*
X71180952Y-122550000D01*
X71228571Y-122526190D01*
X71347619Y-122526190D01*
X71395238Y-122550000D01*
X71419047Y-122573809D01*
X71442857Y-122621428D01*
X71442857Y-122669047D01*
X71419047Y-122740476D01*
X71133333Y-123026190D01*
X71442857Y-123026190D01*
X68942857Y-123026190D02*
X68657142Y-123026190D01*
X68800000Y-123026190D02*
X68800000Y-122526190D01*
X68752380Y-122597619D01*
X68704761Y-122645238D01*
X68657142Y-122669047D01*
X66276190Y-122526190D02*
X66323809Y-122526190D01*
X66371428Y-122550000D01*
X66395238Y-122573809D01*
X66419047Y-122621428D01*
X66442857Y-122716666D01*
X66442857Y-122835714D01*
X66419047Y-122930952D01*
X66395238Y-122978571D01*
X66371428Y-123002380D01*
X66323809Y-123026190D01*
X66276190Y-123026190D01*
X66228571Y-123002380D01*
X66204761Y-122978571D01*
X66180952Y-122930952D01*
X66157142Y-122835714D01*
X66157142Y-122716666D01*
X66180952Y-122621428D01*
X66204761Y-122573809D01*
X66228571Y-122550000D01*
X66276190Y-122526190D01*
X61235714Y-122764285D02*
X61307142Y-122788095D01*
X61330952Y-122811904D01*
X61354761Y-122859523D01*
X61354761Y-122930952D01*
X61330952Y-122978571D01*
X61307142Y-123002380D01*
X61259523Y-123026190D01*
X61069047Y-123026190D01*
X61069047Y-122526190D01*
X61235714Y-122526190D01*
X61283333Y-122550000D01*
X61307142Y-122573809D01*
X61330952Y-122621428D01*
X61330952Y-122669047D01*
X61307142Y-122716666D01*
X61283333Y-122740476D01*
X61235714Y-122764285D01*
X61069047Y-122764285D01*
X63580952Y-122883333D02*
X63819047Y-122883333D01*
X63533333Y-123026190D02*
X63700000Y-122526190D01*
X63866666Y-123026190D01*
X58219047Y-122550000D02*
X58171428Y-122526190D01*
X58100000Y-122526190D01*
X58028571Y-122550000D01*
X57980952Y-122597619D01*
X57957142Y-122645238D01*
X57933333Y-122740476D01*
X57933333Y-122811904D01*
X57957142Y-122907142D01*
X57980952Y-122954761D01*
X58028571Y-123002380D01*
X58100000Y-123026190D01*
X58147619Y-123026190D01*
X58219047Y-123002380D01*
X58242857Y-122978571D01*
X58242857Y-122811904D01*
X58147619Y-122811904D01*
X58457142Y-123026190D02*
X58457142Y-122526190D01*
X58742857Y-123026190D01*
X58742857Y-122526190D01*
X58980952Y-123026190D02*
X58980952Y-122526190D01*
X59100000Y-122526190D01*
X59171428Y-122550000D01*
X59219047Y-122597619D01*
X59242857Y-122645238D01*
X59266666Y-122740476D01*
X59266666Y-122811904D01*
X59242857Y-122907142D01*
X59219047Y-122954761D01*
X59171428Y-123002380D01*
X59100000Y-123026190D01*
X58980952Y-123026190D01*
X55719047Y-122550000D02*
X55671428Y-122526190D01*
X55600000Y-122526190D01*
X55528571Y-122550000D01*
X55480952Y-122597619D01*
X55457142Y-122645238D01*
X55433333Y-122740476D01*
X55433333Y-122811904D01*
X55457142Y-122907142D01*
X55480952Y-122954761D01*
X55528571Y-123002380D01*
X55600000Y-123026190D01*
X55647619Y-123026190D01*
X55719047Y-123002380D01*
X55742857Y-122978571D01*
X55742857Y-122811904D01*
X55647619Y-122811904D01*
X55957142Y-123026190D02*
X55957142Y-122526190D01*
X56242857Y-123026190D01*
X56242857Y-122526190D01*
X56480952Y-123026190D02*
X56480952Y-122526190D01*
X56600000Y-122526190D01*
X56671428Y-122550000D01*
X56719047Y-122597619D01*
X56742857Y-122645238D01*
X56766666Y-122740476D01*
X56766666Y-122811904D01*
X56742857Y-122907142D01*
X56719047Y-122954761D01*
X56671428Y-123002380D01*
X56600000Y-123026190D01*
X56480952Y-123026190D01*
X52719047Y-122835714D02*
X53100000Y-122835714D01*
X52909523Y-123026190D02*
X52909523Y-122645238D01*
X53600000Y-123026190D02*
X53314285Y-123026190D01*
X53457142Y-123026190D02*
X53457142Y-122526190D01*
X53409523Y-122597619D01*
X53361904Y-122645238D01*
X53314285Y-122669047D01*
X53790476Y-122573809D02*
X53814285Y-122550000D01*
X53861904Y-122526190D01*
X53980952Y-122526190D01*
X54028571Y-122550000D01*
X54052380Y-122573809D01*
X54076190Y-122621428D01*
X54076190Y-122669047D01*
X54052380Y-122740476D01*
X53766666Y-123026190D01*
X54076190Y-123026190D01*
X54219047Y-122526190D02*
X54385714Y-123026190D01*
X54552380Y-122526190D01*
D10*
X94190476Y-124152380D02*
X94809523Y-124152380D01*
X94476190Y-124533333D01*
X94619047Y-124533333D01*
X94714285Y-124580952D01*
X94761904Y-124628571D01*
X94809523Y-124723809D01*
X94809523Y-124961904D01*
X94761904Y-125057142D01*
X94714285Y-125104761D01*
X94619047Y-125152380D01*
X94333333Y-125152380D01*
X94238095Y-125104761D01*
X94190476Y-125057142D01*
X95666666Y-124485714D02*
X95666666Y-125152380D01*
X95428571Y-124104761D02*
X95190476Y-124819047D01*
X95809523Y-124819047D01*
X96590476Y-124152380D02*
X97209523Y-124152380D01*
X96876190Y-124533333D01*
X97019047Y-124533333D01*
X97114285Y-124580952D01*
X97161904Y-124628571D01*
X97209523Y-124723809D01*
X97209523Y-124961904D01*
X97161904Y-125057142D01*
X97114285Y-125104761D01*
X97019047Y-125152380D01*
X96733333Y-125152380D01*
X96638095Y-125104761D01*
X96590476Y-125057142D01*
X97542857Y-124152380D02*
X98161904Y-124152380D01*
X97828571Y-124533333D01*
X97971428Y-124533333D01*
X98066666Y-124580952D01*
X98114285Y-124628571D01*
X98161904Y-124723809D01*
X98161904Y-124961904D01*
X98114285Y-125057142D01*
X98066666Y-125104761D01*
X97971428Y-125152380D01*
X97685714Y-125152380D01*
X97590476Y-125104761D01*
X97542857Y-125057142D01*
X94714285Y-170047619D02*
X94761904Y-170000000D01*
X94857142Y-169952380D01*
X95095238Y-169952380D01*
X95190476Y-170000000D01*
X95238095Y-170047619D01*
X95285714Y-170142857D01*
X95285714Y-170238095D01*
X95238095Y-170380952D01*
X94666666Y-170952380D01*
X95285714Y-170952380D01*
X97785714Y-170952380D02*
X97214285Y-170952380D01*
X97500000Y-170952380D02*
X97500000Y-169952380D01*
X97404761Y-170095238D01*
X97309523Y-170190476D01*
X97214285Y-170238095D01*
D12*
X42300000Y-135450000D02*
X42300000Y-132150000D01*
X42300000Y-132150000D02*
X36900000Y-132150000D01*
X42300000Y-135450000D02*
X36900000Y-135450000D01*
X43000000Y-128650000D02*
X44200000Y-128650000D01*
X49600000Y-128650000D02*
X49600000Y-121550000D01*
X43000000Y-128650000D02*
X43000000Y-121550000D01*
X48400000Y-128650000D02*
X49600000Y-128650000D01*
X44200000Y-121550000D02*
X43000000Y-121550000D01*
X48400000Y-121550000D02*
X49600000Y-121550000D01*
X69520000Y-141700000D02*
X69520000Y-142700000D01*
X72880000Y-141700000D02*
X72880000Y-142700000D01*
X98830000Y-169130000D02*
X97500000Y-169130000D01*
X98830000Y-167800000D02*
X98830000Y-169130000D01*
X96230000Y-169130000D02*
X93630000Y-169130000D01*
X96230000Y-166530000D02*
X96230000Y-169130000D01*
X98830000Y-166530000D02*
X96230000Y-166530000D01*
X93630000Y-169130000D02*
X93630000Y-125830000D01*
X98830000Y-166530000D02*
X98830000Y-125830000D01*
X98830000Y-125830000D02*
X93630000Y-125830000D01*
X38900000Y-131860000D02*
X40850000Y-131860000D01*
X38900000Y-131860000D02*
X36950000Y-131860000D01*
X38900000Y-126740000D02*
X40850000Y-126740000D01*
X38900000Y-126740000D02*
X35450000Y-126740000D01*
X36140000Y-153660000D02*
X40400000Y-153660000D01*
X40400000Y-153660000D02*
X40400000Y-141340000D01*
X40400000Y-141340000D02*
X36140000Y-141340000D01*
X32040000Y-153660000D02*
X23680000Y-153660000D01*
X23680000Y-153660000D02*
X23680000Y-141340000D01*
X23680000Y-141340000D02*
X32040000Y-141340000D01*
X40620000Y-148750000D02*
X41120000Y-149250000D01*
X41120000Y-149250000D02*
X41120000Y-148250000D01*
X41120000Y-148250000D02*
X40620000Y-148750000D01*
X69340000Y-160860000D02*
X67525000Y-160860000D01*
X69340000Y-160615000D02*
X69340000Y-160860000D01*
X73200000Y-160615000D02*
X69340000Y-160615000D01*
X77060000Y-160615000D02*
X77060000Y-160860000D01*
X73200000Y-160615000D02*
X77060000Y-160615000D01*
X69340000Y-172385000D02*
X69340000Y-172140000D01*
X73200000Y-172385000D02*
X69340000Y-172385000D01*
X77060000Y-172385000D02*
X77060000Y-172140000D01*
X73200000Y-172385000D02*
X77060000Y-172385000D01*
X69340000Y-144360000D02*
X67525000Y-144360000D01*
X69340000Y-144115000D02*
X69340000Y-144360000D01*
X73200000Y-144115000D02*
X69340000Y-144115000D01*
X77060000Y-144115000D02*
X77060000Y-144360000D01*
X73200000Y-144115000D02*
X77060000Y-144115000D01*
X69340000Y-155885000D02*
X69340000Y-155640000D01*
X73200000Y-155885000D02*
X69340000Y-155885000D01*
X77060000Y-155885000D02*
X77060000Y-155640000D01*
X73200000Y-155885000D02*
X77060000Y-155885000D01*
X86260000Y-145030000D02*
X86260000Y-144100000D01*
X86260000Y-141870000D02*
X86260000Y-142800000D01*
X86260000Y-141870000D02*
X84100000Y-141870000D01*
X86260000Y-145030000D02*
X84800000Y-145030000D01*
X86260000Y-161980000D02*
X86260000Y-161050000D01*
X86260000Y-158820000D02*
X86260000Y-159750000D01*
X86260000Y-158820000D02*
X84100000Y-158820000D01*
X86260000Y-161980000D02*
X84800000Y-161980000D01*
X82760000Y-145030000D02*
X82760000Y-144100000D01*
X82760000Y-141870000D02*
X82760000Y-142800000D01*
X82760000Y-141870000D02*
X80600000Y-141870000D01*
X82760000Y-145030000D02*
X81300000Y-145030000D01*
X82760000Y-161980000D02*
X82760000Y-161050000D01*
X82760000Y-158820000D02*
X82760000Y-159750000D01*
X82760000Y-158820000D02*
X80600000Y-158820000D01*
X82760000Y-161980000D02*
X81300000Y-161980000D01*
X86260000Y-148630000D02*
X86260000Y-147700000D01*
X86260000Y-145470000D02*
X86260000Y-146400000D01*
X86260000Y-145470000D02*
X84100000Y-145470000D01*
X86260000Y-148630000D02*
X84800000Y-148630000D01*
X86260000Y-165480000D02*
X86260000Y-164550000D01*
X86260000Y-162320000D02*
X86260000Y-163250000D01*
X86260000Y-162320000D02*
X84100000Y-162320000D01*
X86260000Y-165480000D02*
X84800000Y-165480000D01*
X82760000Y-148630000D02*
X82760000Y-147700000D01*
X82760000Y-145470000D02*
X82760000Y-146400000D01*
X82760000Y-145470000D02*
X80600000Y-145470000D01*
X82760000Y-148630000D02*
X81300000Y-148630000D01*
X82760000Y-165480000D02*
X82760000Y-164550000D01*
X82760000Y-162320000D02*
X82760000Y-163250000D01*
X82760000Y-162320000D02*
X80600000Y-162320000D01*
X82760000Y-165480000D02*
X81300000Y-165480000D01*
X82760000Y-152180000D02*
X82760000Y-151250000D01*
X82760000Y-149020000D02*
X82760000Y-149950000D01*
X82760000Y-149020000D02*
X80600000Y-149020000D01*
X82760000Y-152180000D02*
X81300000Y-152180000D01*
X86260000Y-168980000D02*
X86260000Y-168050000D01*
X86260000Y-165820000D02*
X86260000Y-166750000D01*
X86260000Y-165820000D02*
X84100000Y-165820000D01*
X86260000Y-168980000D02*
X84800000Y-168980000D01*
X86260000Y-152130000D02*
X86260000Y-151200000D01*
X86260000Y-148970000D02*
X86260000Y-149900000D01*
X86260000Y-148970000D02*
X84100000Y-148970000D01*
X86260000Y-152130000D02*
X84800000Y-152130000D01*
X82760000Y-168980000D02*
X82760000Y-168050000D01*
X82760000Y-165820000D02*
X82760000Y-166750000D01*
X82760000Y-165820000D02*
X80600000Y-165820000D01*
X82760000Y-168980000D02*
X81300000Y-168980000D01*
X82760000Y-155680000D02*
X82760000Y-154750000D01*
X82760000Y-152520000D02*
X82760000Y-153450000D01*
X82760000Y-152520000D02*
X80600000Y-152520000D01*
X82760000Y-155680000D02*
X81300000Y-155680000D01*
X86260000Y-172480000D02*
X86260000Y-171550000D01*
X86260000Y-169320000D02*
X86260000Y-170250000D01*
X86260000Y-169320000D02*
X84100000Y-169320000D01*
X86260000Y-172480000D02*
X84800000Y-172480000D01*
X86260000Y-155680000D02*
X86260000Y-154750000D01*
X86260000Y-152520000D02*
X86260000Y-153450000D01*
X86260000Y-152520000D02*
X84100000Y-152520000D01*
X86260000Y-155680000D02*
X84800000Y-155680000D01*
X82760000Y-172480000D02*
X82760000Y-171550000D01*
X82760000Y-169320000D02*
X82760000Y-170250000D01*
X82760000Y-169320000D02*
X80600000Y-169320000D01*
X82760000Y-172480000D02*
X81300000Y-172480000D01*
X88100000Y-140500000D02*
X90100000Y-140500000D01*
X90100000Y-140500000D02*
X90100000Y-136650000D01*
X88100000Y-140500000D02*
X88100000Y-136650000D01*
X90500000Y-159000000D02*
X92500000Y-159000000D01*
X92500000Y-159000000D02*
X92500000Y-155150000D01*
X90500000Y-159000000D02*
X90500000Y-155150000D01*
X90500000Y-140500000D02*
X92500000Y-140500000D01*
X92500000Y-140500000D02*
X92500000Y-136650000D01*
X90500000Y-140500000D02*
X90500000Y-136650000D01*
X88100000Y-159000000D02*
X90100000Y-159000000D01*
X90100000Y-159000000D02*
X90100000Y-155150000D01*
X88100000Y-159000000D02*
X88100000Y-155150000D01*
X90500000Y-145100000D02*
X92500000Y-145100000D01*
X92500000Y-145100000D02*
X92500000Y-141250000D01*
X90500000Y-145100000D02*
X90500000Y-141250000D01*
X90500000Y-163600000D02*
X92500000Y-163600000D01*
X92500000Y-163600000D02*
X92500000Y-159750000D01*
X90500000Y-163600000D02*
X90500000Y-159750000D01*
X88100000Y-145100000D02*
X90100000Y-145100000D01*
X90100000Y-145100000D02*
X90100000Y-141250000D01*
X88100000Y-145100000D02*
X88100000Y-141250000D01*
X88100000Y-163600000D02*
X90100000Y-163600000D01*
X90100000Y-163600000D02*
X90100000Y-159750000D01*
X88100000Y-163600000D02*
X88100000Y-159750000D01*
X90500000Y-149700000D02*
X92500000Y-149700000D01*
X92500000Y-149700000D02*
X92500000Y-145850000D01*
X90500000Y-149700000D02*
X90500000Y-145850000D01*
X90500000Y-168200000D02*
X92500000Y-168200000D01*
X92500000Y-168200000D02*
X92500000Y-164350000D01*
X90500000Y-168200000D02*
X90500000Y-164350000D01*
X88100000Y-149700000D02*
X90100000Y-149700000D01*
X90100000Y-149700000D02*
X90100000Y-145850000D01*
X88100000Y-149700000D02*
X88100000Y-145850000D01*
X88100000Y-168200000D02*
X90100000Y-168200000D01*
X90100000Y-168200000D02*
X90100000Y-164350000D01*
X88100000Y-168200000D02*
X88100000Y-164350000D01*
X90500000Y-154400000D02*
X92500000Y-154400000D01*
X92500000Y-154400000D02*
X92500000Y-150550000D01*
X90500000Y-154400000D02*
X90500000Y-150550000D01*
X88100000Y-172800000D02*
X90100000Y-172800000D01*
X90100000Y-172800000D02*
X90100000Y-168950000D01*
X88100000Y-172800000D02*
X88100000Y-168950000D01*
X88100000Y-154400000D02*
X90100000Y-154400000D01*
X90100000Y-154400000D02*
X90100000Y-150550000D01*
X88100000Y-154400000D02*
X88100000Y-150550000D01*
X90500000Y-172800000D02*
X92500000Y-172800000D01*
X92500000Y-172800000D02*
X92500000Y-168950000D01*
X90500000Y-172800000D02*
X90500000Y-168950000D01*
X35290000Y-157762779D02*
X35290000Y-157437221D01*
X36310000Y-157762779D02*
X36310000Y-157437221D01*
X36790000Y-157762779D02*
X36790000Y-157437221D01*
X37810000Y-157762779D02*
X37810000Y-157437221D01*
X39310000Y-157437221D02*
X39310000Y-157762779D01*
X38290000Y-157437221D02*
X38290000Y-157762779D01*
X31540000Y-168600000D02*
X31540000Y-171285000D01*
X31540000Y-171285000D02*
X33460000Y-171285000D01*
X33460000Y-171285000D02*
X33460000Y-168600000D01*
X31540000Y-164700000D02*
X31540000Y-167385000D01*
X31540000Y-167385000D02*
X33460000Y-167385000D01*
X33460000Y-167385000D02*
X33460000Y-164700000D01*
X31540000Y-160800000D02*
X31540000Y-163485000D01*
X31540000Y-163485000D02*
X33460000Y-163485000D01*
X33460000Y-163485000D02*
X33460000Y-160800000D01*
X51770000Y-122000000D02*
X52270000Y-122000000D01*
X51770000Y-121260000D02*
X51770000Y-122000000D01*
X77990000Y-115440000D02*
X77990000Y-121760000D01*
X52010000Y-115440000D02*
X52010000Y-121760000D01*
X52010000Y-121760000D02*
X77990000Y-121760000D01*
X52010000Y-115440000D02*
X77990000Y-115440000D01*
X52010000Y-115900000D02*
X77990000Y-115900000D01*
X52010000Y-121200000D02*
X77990000Y-121200000D01*
X52510000Y-125537221D02*
X52510000Y-125862779D01*
X51490000Y-125537221D02*
X51490000Y-125862779D01*
X51505000Y-144590000D02*
X52230000Y-144590000D01*
X52230000Y-144590000D02*
X52230000Y-145315000D01*
X47735000Y-149810000D02*
X47010000Y-149810000D01*
X47010000Y-149810000D02*
X47010000Y-149085000D01*
X51505000Y-149810000D02*
X52230000Y-149810000D01*
X52230000Y-149810000D02*
X52230000Y-149085000D01*
X47735000Y-144590000D02*
X47010000Y-144590000D01*
X52940000Y-127950000D02*
X52940000Y-131400000D01*
X52940000Y-127950000D02*
X52940000Y-126000000D01*
X58060000Y-127950000D02*
X58060000Y-129900000D01*
X58060000Y-127950000D02*
X58060000Y-126000000D01*
X44900000Y-146340000D02*
X43000000Y-146340000D01*
X43500000Y-148660000D02*
X44900000Y-148660000D01*
D14*
X83500000Y-174400000D02*
X83500000Y-174400000D01*
X83600000Y-174400000D02*
X83600000Y-174400000D01*
X83500000Y-174400000D02*
X83500000Y-174400000D01*
D11*
X85450000Y-175300000D02*
X85450000Y-177300000D01*
X90550000Y-175300000D02*
X90550000Y-177300000D01*
X86000000Y-173750000D02*
X90000000Y-173750000D01*
X86000000Y-178850000D02*
X90000000Y-178850000D01*
D14*
X83600000Y-174400000D02*
G75*
G02*
X83500000Y-174400000I-50000J0D01*
G01*
X83500000Y-174400000D02*
G75*
G02*
X83600000Y-174400000I50000J0D01*
G01*
X83600000Y-174400000D02*
G75*
G02*
X83500000Y-174400000I-50000J0D01*
G01*
D12*
X81700000Y-129620000D02*
X80700000Y-129620000D01*
X81700000Y-132980000D02*
X80700000Y-132980000D01*
X81700000Y-133320000D02*
X80700000Y-133320000D01*
X81700000Y-136680000D02*
X80700000Y-136680000D01*
X73270000Y-141700000D02*
X73270000Y-142700000D01*
X76630000Y-141700000D02*
X76630000Y-142700000D01*
X73270000Y-158200000D02*
X73270000Y-159200000D01*
X76630000Y-158200000D02*
X76630000Y-159200000D01*
X69570000Y-158200000D02*
X69570000Y-159200000D01*
X72930000Y-158200000D02*
X72930000Y-159200000D01*
X49437221Y-139590000D02*
X49762779Y-139590000D01*
X49437221Y-140610000D02*
X49762779Y-140610000D01*
X47790000Y-131262779D02*
X47790000Y-130937221D01*
X48810000Y-131262779D02*
X48810000Y-130937221D01*
X50410000Y-130937221D02*
X50410000Y-131262779D01*
X49390000Y-130937221D02*
X49390000Y-131262779D01*
X50990000Y-131262779D02*
X50990000Y-130937221D01*
X52010000Y-131262779D02*
X52010000Y-130937221D01*
X81362779Y-129110000D02*
X81037221Y-129110000D01*
X81362779Y-128090000D02*
X81037221Y-128090000D01*
X85862779Y-136810000D02*
X85537221Y-136810000D01*
X85862779Y-135790000D02*
X85537221Y-135790000D01*
X85862779Y-139810000D02*
X85537221Y-139810000D01*
X85862779Y-138790000D02*
X85537221Y-138790000D01*
X85862779Y-141410000D02*
X85537221Y-141410000D01*
X85862779Y-140390000D02*
X85537221Y-140390000D01*
X42610000Y-157437221D02*
X42610000Y-157762779D01*
X41590000Y-157437221D02*
X41590000Y-157762779D01*
X43290000Y-157437221D02*
X43290000Y-157762779D01*
X44310000Y-157437221D02*
X44310000Y-157762779D01*
X39990000Y-157762779D02*
X39990000Y-157437221D01*
X41010000Y-157762779D02*
X41010000Y-157437221D01*
X33790000Y-157762779D02*
X33790000Y-157437221D01*
X34810000Y-157762779D02*
X34810000Y-157437221D01*
X85862779Y-138310000D02*
X85537221Y-138310000D01*
X85862779Y-137290000D02*
X85537221Y-137290000D01*
X47837221Y-150640000D02*
X48162779Y-150640000D01*
X47837221Y-151660000D02*
X48162779Y-151660000D01*
X46190000Y-131262779D02*
X46190000Y-130937221D01*
X47210000Y-131262779D02*
X47210000Y-130937221D01*
X49437221Y-141540000D02*
X49762779Y-141540000D01*
X49437221Y-142560000D02*
X49762779Y-142560000D01*
X33337221Y-132390000D02*
X33662779Y-132390000D01*
X33337221Y-133410000D02*
X33662779Y-133410000D01*
X76610000Y-175149221D02*
X76610000Y-175474779D01*
X75590000Y-175149221D02*
X75590000Y-175474779D01*
X53960000Y-142630000D02*
X53960000Y-141700000D01*
X53960000Y-139470000D02*
X53960000Y-140400000D01*
X53960000Y-139470000D02*
X51800000Y-139470000D01*
X53960000Y-142630000D02*
X52500000Y-142630000D01*
X45240000Y-139570000D02*
X45240000Y-140500000D01*
X45240000Y-142730000D02*
X45240000Y-141800000D01*
X45240000Y-142730000D02*
X47400000Y-142730000D01*
X45240000Y-139570000D02*
X46700000Y-139570000D01*
X90240000Y-127720000D02*
X90240000Y-128650000D01*
X90240000Y-130880000D02*
X90240000Y-129950000D01*
X90240000Y-130880000D02*
X92400000Y-130880000D01*
X90240000Y-127720000D02*
X91700000Y-127720000D01*
X86440000Y-131720000D02*
X86440000Y-132650000D01*
X86440000Y-134880000D02*
X86440000Y-133950000D01*
X86440000Y-134880000D02*
X88600000Y-134880000D01*
X86440000Y-131720000D02*
X87900000Y-131720000D01*
X86440000Y-127720000D02*
X86440000Y-128650000D01*
X86440000Y-130880000D02*
X86440000Y-129950000D01*
X86440000Y-130880000D02*
X88600000Y-130880000D01*
X86440000Y-127720000D02*
X87900000Y-127720000D01*
X85100000Y-127250000D02*
X85100000Y-123950000D01*
X85100000Y-123950000D02*
X79700000Y-123950000D01*
X85100000Y-127250000D02*
X79700000Y-127250000D01*
X92400000Y-127300000D02*
X92400000Y-124000000D01*
X92400000Y-124000000D02*
X87000000Y-124000000D01*
X92400000Y-127300000D02*
X87000000Y-127300000D01*
X42300000Y-139050000D02*
X42300000Y-135750000D01*
X42300000Y-135750000D02*
X36900000Y-135750000D01*
X42300000Y-139050000D02*
X36900000Y-139050000D01*
X42500000Y-126350000D02*
X42500000Y-123050000D01*
X42500000Y-123050000D02*
X37100000Y-123050000D01*
X42500000Y-126350000D02*
X37100000Y-126350000D01*
X38350000Y-122610000D02*
X42560000Y-122610000D01*
X42560000Y-122610000D02*
X42560000Y-119590000D01*
X42560000Y-119590000D02*
X38350000Y-119590000D01*
X44010000Y-130937221D02*
X44010000Y-131262779D01*
X42990000Y-130937221D02*
X42990000Y-131262779D01*
X58075279Y-136190000D02*
X57749721Y-136190000D01*
X58075279Y-137210000D02*
X57749721Y-137210000D01*
X58050279Y-151990000D02*
X57724721Y-151990000D01*
X58050279Y-153010000D02*
X57724721Y-153010000D01*
X60837221Y-171210000D02*
X61162779Y-171210000D01*
X60837221Y-170190000D02*
X61162779Y-170190000D01*
X45610000Y-130925221D02*
X45610000Y-131250779D01*
X44590000Y-130925221D02*
X44590000Y-131250779D01*
X47837221Y-152190000D02*
X48162779Y-152190000D01*
X47837221Y-153210000D02*
X48162779Y-153210000D01*
X45190000Y-150612779D02*
X45190000Y-150287221D01*
X46210000Y-150612779D02*
X46210000Y-150287221D01*
X47837221Y-153740000D02*
X48162779Y-153740000D01*
X47837221Y-154760000D02*
X48162779Y-154760000D01*
X33790000Y-130762779D02*
X33790000Y-130437221D01*
X34810000Y-130762779D02*
X34810000Y-130437221D01*
X33349721Y-124290000D02*
X33675279Y-124290000D01*
X33349721Y-125310000D02*
X33675279Y-125310000D01*
X33210000Y-130437221D02*
X33210000Y-130762779D01*
X32190000Y-130437221D02*
X32190000Y-130762779D01*
X31390000Y-127558578D02*
X31390000Y-127041422D01*
X32810000Y-127558578D02*
X32810000Y-127041422D01*
X33390000Y-127558578D02*
X33390000Y-127041422D01*
X34810000Y-127558578D02*
X34810000Y-127041422D01*
X58390000Y-177962779D02*
X58390000Y-177637221D01*
X59410000Y-177962779D02*
X59410000Y-177637221D01*
X76610000Y-178237221D02*
X76610000Y-178562779D01*
X75590000Y-178237221D02*
X75590000Y-178562779D01*
X57420000Y-161200000D02*
X57420000Y-160420000D01*
X57420000Y-160420000D02*
X56420000Y-160420000D01*
X39180000Y-161200000D02*
X39180000Y-160420000D01*
X39180000Y-160420000D02*
X40180000Y-160420000D01*
X57420000Y-186165000D02*
X39180000Y-186165000D01*
X39180000Y-186165000D02*
X39180000Y-179745000D01*
X57420000Y-186165000D02*
X57420000Y-179745000D01*
X57420000Y-179745000D02*
X57800000Y-179745000D01*
X33460000Y-159000000D02*
X33460000Y-156315000D01*
X33460000Y-156315000D02*
X31540000Y-156315000D01*
X31540000Y-156315000D02*
X31540000Y-159000000D01*
D10*
X69325000Y-128150000D02*
X69325000Y-128400000D01*
X77075000Y-128150000D02*
X77075000Y-128495000D01*
X77075000Y-140050000D02*
X77075000Y-139705000D01*
X69325000Y-140050000D02*
X69325000Y-139705000D01*
X69325000Y-128150000D02*
X77075000Y-128150000D01*
X69325000Y-140050000D02*
X77075000Y-140050000D01*
X69325000Y-128400000D02*
X67500000Y-128400000D01*
X65275000Y-169725000D02*
X65275000Y-169700000D01*
X61125000Y-169725000D02*
X61125000Y-169620000D01*
X61125000Y-159575000D02*
X61125000Y-159680000D01*
X65275000Y-159575000D02*
X65275000Y-159680000D01*
X65275000Y-169725000D02*
X61125000Y-169725000D01*
X65275000Y-159575000D02*
X61125000Y-159575000D01*
X65275000Y-169700000D02*
X66650000Y-169700000D01*
X65275000Y-153100000D02*
X66650000Y-153100000D01*
X65275000Y-142975000D02*
X61125000Y-142975000D01*
X65275000Y-153125000D02*
X61125000Y-153125000D01*
X65275000Y-142975000D02*
X65275000Y-143080000D01*
X61125000Y-142975000D02*
X61125000Y-143080000D01*
X61125000Y-153125000D02*
X61125000Y-153020000D01*
X65275000Y-153125000D02*
X65275000Y-153100000D01*
X65275000Y-137275000D02*
X65275000Y-137250000D01*
X61125000Y-137275000D02*
X61125000Y-137170000D01*
X61125000Y-127125000D02*
X61125000Y-127230000D01*
X65275000Y-127125000D02*
X65275000Y-127230000D01*
X65275000Y-137275000D02*
X61125000Y-137275000D01*
X65275000Y-127125000D02*
X61125000Y-127125000D01*
X65275000Y-137250000D02*
X66650000Y-137250000D01*
D12*
X43100000Y-117250000D02*
X48500000Y-117250000D01*
X43100000Y-120550000D02*
X48500000Y-120550000D01*
X43100000Y-117250000D02*
X43100000Y-120550000D01*
X39197936Y-117410000D02*
X40402064Y-117410000D01*
X39197936Y-115590000D02*
X40402064Y-115590000D01*
X90240000Y-131720000D02*
X91700000Y-131720000D01*
X90240000Y-134880000D02*
X92400000Y-134880000D01*
X90240000Y-134880000D02*
X90240000Y-133950000D01*
X90240000Y-131720000D02*
X90240000Y-132650000D01*
X32190000Y-135997936D02*
X32190000Y-137202064D01*
X34010000Y-135997936D02*
X34010000Y-137202064D01*
X62070000Y-179430000D02*
X62070000Y-178100000D01*
X63400000Y-179430000D02*
X62070000Y-179430000D01*
X62070000Y-176830000D02*
X62070000Y-174230000D01*
X64670000Y-176830000D02*
X62070000Y-176830000D01*
X64670000Y-179430000D02*
X64670000Y-176830000D01*
X62070000Y-174230000D02*
X74890000Y-174230000D01*
X64670000Y-179430000D02*
X74890000Y-179430000D01*
X74890000Y-179430000D02*
X74890000Y-174230000D01*
D11*
X34728571Y-135761904D02*
X34728571Y-134961904D01*
X34919047Y-134961904D01*
X35033333Y-135000000D01*
X35109523Y-135076190D01*
X35147619Y-135152380D01*
X35185714Y-135304761D01*
X35185714Y-135419047D01*
X35147619Y-135571428D01*
X35109523Y-135647619D01*
X35033333Y-135723809D01*
X34919047Y-135761904D01*
X34728571Y-135761904D01*
X35490476Y-135038095D02*
X35528571Y-135000000D01*
X35604761Y-134961904D01*
X35795238Y-134961904D01*
X35871428Y-135000000D01*
X35909523Y-135038095D01*
X35947619Y-135114285D01*
X35947619Y-135190476D01*
X35909523Y-135304761D01*
X35452380Y-135761904D01*
X35947619Y-135761904D01*
X36214285Y-134961904D02*
X36709523Y-134961904D01*
X36442857Y-135266666D01*
X36557142Y-135266666D01*
X36633333Y-135304761D01*
X36671428Y-135342857D01*
X36709523Y-135419047D01*
X36709523Y-135609523D01*
X36671428Y-135685714D01*
X36633333Y-135723809D01*
X36557142Y-135761904D01*
X36328571Y-135761904D01*
X36252380Y-135723809D01*
X36214285Y-135685714D01*
D10*
X50952380Y-122466666D02*
X50952380Y-122942857D01*
X49952380Y-122942857D01*
X50952380Y-121609523D02*
X50952380Y-122180952D01*
X50952380Y-121895238D02*
X49952380Y-121895238D01*
X50095238Y-121990476D01*
X50190476Y-122085714D01*
X50238095Y-122180952D01*
X69152380Y-143390476D02*
X68676190Y-143723809D01*
X69152380Y-143961904D02*
X68152380Y-143961904D01*
X68152380Y-143580952D01*
X68200000Y-143485714D01*
X68247619Y-143438095D01*
X68342857Y-143390476D01*
X68485714Y-143390476D01*
X68580952Y-143438095D01*
X68628571Y-143485714D01*
X68676190Y-143580952D01*
X68676190Y-143961904D01*
X69152380Y-142961904D02*
X68152380Y-142961904D01*
X69152380Y-142390476D01*
X68152380Y-142390476D01*
X68152380Y-142009523D02*
X68152380Y-141390476D01*
X68533333Y-141723809D01*
X68533333Y-141580952D01*
X68580952Y-141485714D01*
X68628571Y-141438095D01*
X68723809Y-141390476D01*
X68961904Y-141390476D01*
X69057142Y-141438095D01*
X69104761Y-141485714D01*
X69152380Y-141580952D01*
X69152380Y-141866666D01*
X69104761Y-141961904D01*
X69057142Y-142009523D01*
D11*
X35119047Y-132461904D02*
X35119047Y-131661904D01*
X35957142Y-132385714D02*
X35919047Y-132423809D01*
X35804761Y-132461904D01*
X35728571Y-132461904D01*
X35614285Y-132423809D01*
X35538095Y-132347619D01*
X35500000Y-132271428D01*
X35461904Y-132119047D01*
X35461904Y-132004761D01*
X35500000Y-131852380D01*
X35538095Y-131776190D01*
X35614285Y-131700000D01*
X35728571Y-131661904D01*
X35804761Y-131661904D01*
X35919047Y-131700000D01*
X35957142Y-131738095D01*
X36719047Y-132461904D02*
X36261904Y-132461904D01*
X36490476Y-132461904D02*
X36490476Y-131661904D01*
X36414285Y-131776190D01*
X36338095Y-131852380D01*
X36261904Y-131890476D01*
D10*
X39366666Y-140052380D02*
X39366666Y-140766666D01*
X39319047Y-140909523D01*
X39223809Y-141004761D01*
X39080952Y-141052380D01*
X38985714Y-141052380D01*
X40366666Y-141052380D02*
X39795238Y-141052380D01*
X40080952Y-141052380D02*
X40080952Y-140052380D01*
X39985714Y-140195238D01*
X39890476Y-140290476D01*
X39795238Y-140338095D01*
X76823809Y-173752380D02*
X76823809Y-172752380D01*
X77871428Y-173657142D02*
X77823809Y-173704761D01*
X77680952Y-173752380D01*
X77585714Y-173752380D01*
X77442857Y-173704761D01*
X77347619Y-173609523D01*
X77300000Y-173514285D01*
X77252380Y-173323809D01*
X77252380Y-173180952D01*
X77300000Y-172990476D01*
X77347619Y-172895238D01*
X77442857Y-172800000D01*
X77585714Y-172752380D01*
X77680952Y-172752380D01*
X77823809Y-172800000D01*
X77871428Y-172847619D01*
X78728571Y-173085714D02*
X78728571Y-173752380D01*
X78490476Y-172704761D02*
X78252380Y-173419047D01*
X78871428Y-173419047D01*
X76823809Y-157152380D02*
X76823809Y-156152380D01*
X77871428Y-157057142D02*
X77823809Y-157104761D01*
X77680952Y-157152380D01*
X77585714Y-157152380D01*
X77442857Y-157104761D01*
X77347619Y-157009523D01*
X77300000Y-156914285D01*
X77252380Y-156723809D01*
X77252380Y-156580952D01*
X77300000Y-156390476D01*
X77347619Y-156295238D01*
X77442857Y-156200000D01*
X77585714Y-156152380D01*
X77680952Y-156152380D01*
X77823809Y-156200000D01*
X77871428Y-156247619D01*
X78204761Y-156152380D02*
X78823809Y-156152380D01*
X78490476Y-156533333D01*
X78633333Y-156533333D01*
X78728571Y-156580952D01*
X78776190Y-156628571D01*
X78823809Y-156723809D01*
X78823809Y-156961904D01*
X78776190Y-157057142D01*
X78728571Y-157104761D01*
X78633333Y-157152380D01*
X78347619Y-157152380D01*
X78252380Y-157104761D01*
X78204761Y-157057142D01*
D11*
X36161904Y-160814285D02*
X35780952Y-161080952D01*
X36161904Y-161271428D02*
X35361904Y-161271428D01*
X35361904Y-160966666D01*
X35400000Y-160890476D01*
X35438095Y-160852380D01*
X35514285Y-160814285D01*
X35628571Y-160814285D01*
X35704761Y-160852380D01*
X35742857Y-160890476D01*
X35780952Y-160966666D01*
X35780952Y-161271428D01*
X35438095Y-160509523D02*
X35400000Y-160471428D01*
X35361904Y-160395238D01*
X35361904Y-160204761D01*
X35400000Y-160128571D01*
X35438095Y-160090476D01*
X35514285Y-160052380D01*
X35590476Y-160052380D01*
X35704761Y-160090476D01*
X36161904Y-160547619D01*
X36161904Y-160052380D01*
X35361904Y-159785714D02*
X35361904Y-159290476D01*
X35666666Y-159557142D01*
X35666666Y-159442857D01*
X35704761Y-159366666D01*
X35742857Y-159328571D01*
X35819047Y-159290476D01*
X36009523Y-159290476D01*
X36085714Y-159328571D01*
X36123809Y-159366666D01*
X36161904Y-159442857D01*
X36161904Y-159671428D01*
X36123809Y-159747619D01*
X36085714Y-159785714D01*
X37661904Y-160814285D02*
X37280952Y-161080952D01*
X37661904Y-161271428D02*
X36861904Y-161271428D01*
X36861904Y-160966666D01*
X36900000Y-160890476D01*
X36938095Y-160852380D01*
X37014285Y-160814285D01*
X37128571Y-160814285D01*
X37204761Y-160852380D01*
X37242857Y-160890476D01*
X37280952Y-160966666D01*
X37280952Y-161271428D01*
X36938095Y-160509523D02*
X36900000Y-160471428D01*
X36861904Y-160395238D01*
X36861904Y-160204761D01*
X36900000Y-160128571D01*
X36938095Y-160090476D01*
X37014285Y-160052380D01*
X37090476Y-160052380D01*
X37204761Y-160090476D01*
X37661904Y-160547619D01*
X37661904Y-160052380D01*
X36938095Y-159747619D02*
X36900000Y-159709523D01*
X36861904Y-159633333D01*
X36861904Y-159442857D01*
X36900000Y-159366666D01*
X36938095Y-159328571D01*
X37014285Y-159290476D01*
X37090476Y-159290476D01*
X37204761Y-159328571D01*
X37661904Y-159785714D01*
X37661904Y-159290476D01*
X39161904Y-155514285D02*
X38780952Y-155780952D01*
X39161904Y-155971428D02*
X38361904Y-155971428D01*
X38361904Y-155666666D01*
X38400000Y-155590476D01*
X38438095Y-155552380D01*
X38514285Y-155514285D01*
X38628571Y-155514285D01*
X38704761Y-155552380D01*
X38742857Y-155590476D01*
X38780952Y-155666666D01*
X38780952Y-155971428D01*
X39161904Y-154752380D02*
X39161904Y-155209523D01*
X39161904Y-154980952D02*
X38361904Y-154980952D01*
X38476190Y-155057142D01*
X38552380Y-155133333D01*
X38590476Y-155209523D01*
X38361904Y-154257142D02*
X38361904Y-154180952D01*
X38400000Y-154104761D01*
X38438095Y-154066666D01*
X38514285Y-154028571D01*
X38666666Y-153990476D01*
X38857142Y-153990476D01*
X39009523Y-154028571D01*
X39085714Y-154066666D01*
X39123809Y-154104761D01*
X39161904Y-154180952D01*
X39161904Y-154257142D01*
X39123809Y-154333333D01*
X39085714Y-154371428D01*
X39009523Y-154409523D01*
X38857142Y-154447619D01*
X38666666Y-154447619D01*
X38514285Y-154409523D01*
X38438095Y-154371428D01*
X38400000Y-154333333D01*
X38361904Y-154257142D01*
X31211904Y-171047619D02*
X30411904Y-171047619D01*
X30411904Y-170742857D01*
X30450000Y-170666666D01*
X30488095Y-170628571D01*
X30564285Y-170590476D01*
X30678571Y-170590476D01*
X30754761Y-170628571D01*
X30792857Y-170666666D01*
X30830952Y-170742857D01*
X30830952Y-171047619D01*
X30411904Y-170323809D02*
X31211904Y-170133333D01*
X30640476Y-169980952D01*
X31211904Y-169828571D01*
X30411904Y-169638095D01*
X31211904Y-168876190D02*
X30830952Y-169142857D01*
X31211904Y-169333333D02*
X30411904Y-169333333D01*
X30411904Y-169028571D01*
X30450000Y-168952380D01*
X30488095Y-168914285D01*
X30564285Y-168876190D01*
X30678571Y-168876190D01*
X30754761Y-168914285D01*
X30792857Y-168952380D01*
X30830952Y-169028571D01*
X30830952Y-169333333D01*
X31211904Y-168114285D02*
X31211904Y-168571428D01*
X31211904Y-168342857D02*
X30411904Y-168342857D01*
X30526190Y-168419047D01*
X30602380Y-168495238D01*
X30640476Y-168571428D01*
X31211904Y-166595238D02*
X31211904Y-166976190D01*
X30411904Y-166976190D01*
X30792857Y-166328571D02*
X30792857Y-166061904D01*
X31211904Y-165947619D02*
X31211904Y-166328571D01*
X30411904Y-166328571D01*
X30411904Y-165947619D01*
X31211904Y-165604761D02*
X30411904Y-165604761D01*
X30411904Y-165414285D01*
X30450000Y-165300000D01*
X30526190Y-165223809D01*
X30602380Y-165185714D01*
X30754761Y-165147619D01*
X30869047Y-165147619D01*
X31021428Y-165185714D01*
X31097619Y-165223809D01*
X31173809Y-165300000D01*
X31211904Y-165414285D01*
X31211904Y-165604761D01*
X30488095Y-164842857D02*
X30450000Y-164804761D01*
X30411904Y-164728571D01*
X30411904Y-164538095D01*
X30450000Y-164461904D01*
X30488095Y-164423809D01*
X30564285Y-164385714D01*
X30640476Y-164385714D01*
X30754761Y-164423809D01*
X31211904Y-164880952D01*
X31211904Y-164385714D01*
X31211904Y-162695238D02*
X31211904Y-163076190D01*
X30411904Y-163076190D01*
X30792857Y-162428571D02*
X30792857Y-162161904D01*
X31211904Y-162047619D02*
X31211904Y-162428571D01*
X30411904Y-162428571D01*
X30411904Y-162047619D01*
X31211904Y-161704761D02*
X30411904Y-161704761D01*
X30411904Y-161514285D01*
X30450000Y-161400000D01*
X30526190Y-161323809D01*
X30602380Y-161285714D01*
X30754761Y-161247619D01*
X30869047Y-161247619D01*
X31021428Y-161285714D01*
X31097619Y-161323809D01*
X31173809Y-161400000D01*
X31211904Y-161514285D01*
X31211904Y-161704761D01*
X31211904Y-160485714D02*
X31211904Y-160942857D01*
X31211904Y-160714285D02*
X30411904Y-160714285D01*
X30526190Y-160790476D01*
X30602380Y-160866666D01*
X30640476Y-160942857D01*
D10*
X64666666Y-122352380D02*
X64666666Y-123066666D01*
X64619047Y-123209523D01*
X64523809Y-123304761D01*
X64380952Y-123352380D01*
X64285714Y-123352380D01*
X65095238Y-122447619D02*
X65142857Y-122400000D01*
X65238095Y-122352380D01*
X65476190Y-122352380D01*
X65571428Y-122400000D01*
X65619047Y-122447619D01*
X65666666Y-122542857D01*
X65666666Y-122638095D01*
X65619047Y-122780952D01*
X65047619Y-123352380D01*
X65666666Y-123352380D01*
X50898142Y-126342857D02*
X50945761Y-126390476D01*
X50993380Y-126533333D01*
X50993380Y-126628571D01*
X50945761Y-126771428D01*
X50850523Y-126866666D01*
X50755285Y-126914285D01*
X50564809Y-126961904D01*
X50421952Y-126961904D01*
X50231476Y-126914285D01*
X50136238Y-126866666D01*
X50041000Y-126771428D01*
X49993380Y-126628571D01*
X49993380Y-126533333D01*
X50041000Y-126390476D01*
X50088619Y-126342857D01*
X50993380Y-125390476D02*
X50993380Y-125961904D01*
X50993380Y-125676190D02*
X49993380Y-125676190D01*
X50136238Y-125771428D01*
X50231476Y-125866666D01*
X50279095Y-125961904D01*
X50993380Y-124438095D02*
X50993380Y-125009523D01*
X50993380Y-124723809D02*
X49993380Y-124723809D01*
X50136238Y-124819047D01*
X50231476Y-124914285D01*
X50279095Y-125009523D01*
X44638095Y-144152380D02*
X44638095Y-144961904D01*
X44685714Y-145057142D01*
X44733333Y-145104761D01*
X44828571Y-145152380D01*
X45019047Y-145152380D01*
X45114285Y-145104761D01*
X45161904Y-145057142D01*
X45209523Y-144961904D01*
X45209523Y-144152380D01*
X45590476Y-144152380D02*
X46209523Y-144152380D01*
X45876190Y-144533333D01*
X46019047Y-144533333D01*
X46114285Y-144580952D01*
X46161904Y-144628571D01*
X46209523Y-144723809D01*
X46209523Y-144961904D01*
X46161904Y-145057142D01*
X46114285Y-145104761D01*
X46019047Y-145152380D01*
X45733333Y-145152380D01*
X45638095Y-145104761D01*
X45590476Y-145057142D01*
X52552380Y-129376190D02*
X51552380Y-129376190D01*
X52457142Y-128328571D02*
X52504761Y-128376190D01*
X52552380Y-128519047D01*
X52552380Y-128614285D01*
X52504761Y-128757142D01*
X52409523Y-128852380D01*
X52314285Y-128900000D01*
X52123809Y-128947619D01*
X51980952Y-128947619D01*
X51790476Y-128900000D01*
X51695238Y-128852380D01*
X51600000Y-128757142D01*
X51552380Y-128614285D01*
X51552380Y-128519047D01*
X51600000Y-128376190D01*
X51647619Y-128328571D01*
X51980952Y-127757142D02*
X51933333Y-127852380D01*
X51885714Y-127900000D01*
X51790476Y-127947619D01*
X51742857Y-127947619D01*
X51647619Y-127900000D01*
X51600000Y-127852380D01*
X51552380Y-127757142D01*
X51552380Y-127566666D01*
X51600000Y-127471428D01*
X51647619Y-127423809D01*
X51742857Y-127376190D01*
X51790476Y-127376190D01*
X51885714Y-127423809D01*
X51933333Y-127471428D01*
X51980952Y-127566666D01*
X51980952Y-127757142D01*
X52028571Y-127852380D01*
X52076190Y-127900000D01*
X52171428Y-127947619D01*
X52361904Y-127947619D01*
X52457142Y-127900000D01*
X52504761Y-127852380D01*
X52552380Y-127757142D01*
X52552380Y-127566666D01*
X52504761Y-127471428D01*
X52457142Y-127423809D01*
X52361904Y-127376190D01*
X52171428Y-127376190D01*
X52076190Y-127423809D01*
X52028571Y-127471428D01*
X51980952Y-127566666D01*
D11*
X41828904Y-148780333D02*
X41828904Y-148323190D01*
X42628904Y-148551761D02*
X41828904Y-148551761D01*
X41828904Y-148170809D02*
X42628904Y-147904142D01*
X41828904Y-147637476D01*
X42590809Y-147408904D02*
X42628904Y-147294619D01*
X42628904Y-147104142D01*
X42590809Y-147027952D01*
X42552714Y-146989857D01*
X42476523Y-146951761D01*
X42400333Y-146951761D01*
X42324142Y-146989857D01*
X42286047Y-147027952D01*
X42247952Y-147104142D01*
X42209857Y-147256523D01*
X42171761Y-147332714D01*
X42133666Y-147370809D01*
X42057476Y-147408904D01*
X41981285Y-147408904D01*
X41905095Y-147370809D01*
X41867000Y-147332714D01*
X41828904Y-147256523D01*
X41828904Y-147066047D01*
X41867000Y-146951761D01*
X42628904Y-146189857D02*
X42628904Y-146647000D01*
X42628904Y-146418428D02*
X41828904Y-146418428D01*
X41943190Y-146494619D01*
X42019380Y-146570809D01*
X42057476Y-146647000D01*
D15*
X86932380Y-176814047D02*
X87113809Y-176874523D01*
X87416190Y-176874523D01*
X87537142Y-176814047D01*
X87597619Y-176753571D01*
X87658095Y-176632619D01*
X87658095Y-176511666D01*
X87597619Y-176390714D01*
X87537142Y-176330238D01*
X87416190Y-176269761D01*
X87174285Y-176209285D01*
X87053333Y-176148809D01*
X86992857Y-176088333D01*
X86932380Y-175967380D01*
X86932380Y-175846428D01*
X86992857Y-175725476D01*
X87053333Y-175665000D01*
X87174285Y-175604523D01*
X87476666Y-175604523D01*
X87658095Y-175665000D01*
X88867619Y-176874523D02*
X88141904Y-176874523D01*
X88504761Y-176874523D02*
X88504761Y-175604523D01*
X88383809Y-175785952D01*
X88262857Y-175906904D01*
X88141904Y-175967380D01*
D11*
X83661904Y-131852380D02*
X83280952Y-132119047D01*
X83661904Y-132309523D02*
X82861904Y-132309523D01*
X82861904Y-132004761D01*
X82900000Y-131928571D01*
X82938095Y-131890476D01*
X83014285Y-131852380D01*
X83128571Y-131852380D01*
X83204761Y-131890476D01*
X83242857Y-131928571D01*
X83280952Y-132004761D01*
X83280952Y-132309523D01*
X83661904Y-131509523D02*
X82861904Y-131509523D01*
X83661904Y-131052380D01*
X82861904Y-131052380D01*
X82861904Y-130328571D02*
X82861904Y-130480952D01*
X82900000Y-130557142D01*
X82938095Y-130595238D01*
X83052380Y-130671428D01*
X83204761Y-130709523D01*
X83509523Y-130709523D01*
X83585714Y-130671428D01*
X83623809Y-130633333D01*
X83661904Y-130557142D01*
X83661904Y-130404761D01*
X83623809Y-130328571D01*
X83585714Y-130290476D01*
X83509523Y-130252380D01*
X83319047Y-130252380D01*
X83242857Y-130290476D01*
X83204761Y-130328571D01*
X83166666Y-130404761D01*
X83166666Y-130557142D01*
X83204761Y-130633333D01*
X83242857Y-130671428D01*
X83319047Y-130709523D01*
X83661904Y-135552380D02*
X83280952Y-135819047D01*
X83661904Y-136009523D02*
X82861904Y-136009523D01*
X82861904Y-135704761D01*
X82900000Y-135628571D01*
X82938095Y-135590476D01*
X83014285Y-135552380D01*
X83128571Y-135552380D01*
X83204761Y-135590476D01*
X83242857Y-135628571D01*
X83280952Y-135704761D01*
X83280952Y-136009523D01*
X83661904Y-135209523D02*
X82861904Y-135209523D01*
X83661904Y-134752380D01*
X82861904Y-134752380D01*
X82861904Y-133990476D02*
X82861904Y-134371428D01*
X83242857Y-134409523D01*
X83204761Y-134371428D01*
X83166666Y-134295238D01*
X83166666Y-134104761D01*
X83204761Y-134028571D01*
X83242857Y-133990476D01*
X83319047Y-133952380D01*
X83509523Y-133952380D01*
X83585714Y-133990476D01*
X83623809Y-134028571D01*
X83661904Y-134104761D01*
X83661904Y-134295238D01*
X83623809Y-134371428D01*
X83585714Y-134409523D01*
D10*
X78052380Y-143390476D02*
X77576190Y-143723809D01*
X78052380Y-143961904D02*
X77052380Y-143961904D01*
X77052380Y-143580952D01*
X77100000Y-143485714D01*
X77147619Y-143438095D01*
X77242857Y-143390476D01*
X77385714Y-143390476D01*
X77480952Y-143438095D01*
X77528571Y-143485714D01*
X77576190Y-143580952D01*
X77576190Y-143961904D01*
X78052380Y-142961904D02*
X77052380Y-142961904D01*
X78052380Y-142390476D01*
X77052380Y-142390476D01*
X77385714Y-141485714D02*
X78052380Y-141485714D01*
X77004761Y-141723809D02*
X77719047Y-141961904D01*
X77719047Y-141342857D01*
X77952380Y-159590476D02*
X77476190Y-159923809D01*
X77952380Y-160161904D02*
X76952380Y-160161904D01*
X76952380Y-159780952D01*
X77000000Y-159685714D01*
X77047619Y-159638095D01*
X77142857Y-159590476D01*
X77285714Y-159590476D01*
X77380952Y-159638095D01*
X77428571Y-159685714D01*
X77476190Y-159780952D01*
X77476190Y-160161904D01*
X77952380Y-159161904D02*
X76952380Y-159161904D01*
X77952380Y-158590476D01*
X76952380Y-158590476D01*
X77047619Y-158161904D02*
X77000000Y-158114285D01*
X76952380Y-158019047D01*
X76952380Y-157780952D01*
X77000000Y-157685714D01*
X77047619Y-157638095D01*
X77142857Y-157590476D01*
X77238095Y-157590476D01*
X77380952Y-157638095D01*
X77952380Y-158209523D01*
X77952380Y-157590476D01*
X69252380Y-159590476D02*
X68776190Y-159923809D01*
X69252380Y-160161904D02*
X68252380Y-160161904D01*
X68252380Y-159780952D01*
X68300000Y-159685714D01*
X68347619Y-159638095D01*
X68442857Y-159590476D01*
X68585714Y-159590476D01*
X68680952Y-159638095D01*
X68728571Y-159685714D01*
X68776190Y-159780952D01*
X68776190Y-160161904D01*
X69252380Y-159161904D02*
X68252380Y-159161904D01*
X69252380Y-158590476D01*
X68252380Y-158590476D01*
X69252380Y-157590476D02*
X69252380Y-158161904D01*
X69252380Y-157876190D02*
X68252380Y-157876190D01*
X68395238Y-157971428D01*
X68490476Y-158066666D01*
X68538095Y-158161904D01*
X48982142Y-139155380D02*
X48648809Y-138679190D01*
X48410714Y-139155380D02*
X48410714Y-138155380D01*
X48791666Y-138155380D01*
X48886904Y-138203000D01*
X48934523Y-138250619D01*
X48982142Y-138345857D01*
X48982142Y-138488714D01*
X48934523Y-138583952D01*
X48886904Y-138631571D01*
X48791666Y-138679190D01*
X48410714Y-138679190D01*
X49363095Y-138250619D02*
X49410714Y-138203000D01*
X49505952Y-138155380D01*
X49744047Y-138155380D01*
X49839285Y-138203000D01*
X49886904Y-138250619D01*
X49934523Y-138345857D01*
X49934523Y-138441095D01*
X49886904Y-138583952D01*
X49315476Y-139155380D01*
X49934523Y-139155380D01*
X50886904Y-139155380D02*
X50315476Y-139155380D01*
X50601190Y-139155380D02*
X50601190Y-138155380D01*
X50505952Y-138298238D01*
X50410714Y-138393476D01*
X50315476Y-138441095D01*
X48752380Y-134742857D02*
X48276190Y-135076190D01*
X48752380Y-135314285D02*
X47752380Y-135314285D01*
X47752380Y-134933333D01*
X47800000Y-134838095D01*
X47847619Y-134790476D01*
X47942857Y-134742857D01*
X48085714Y-134742857D01*
X48180952Y-134790476D01*
X48228571Y-134838095D01*
X48276190Y-134933333D01*
X48276190Y-135314285D01*
X47847619Y-134361904D02*
X47800000Y-134314285D01*
X47752380Y-134219047D01*
X47752380Y-133980952D01*
X47800000Y-133885714D01*
X47847619Y-133838095D01*
X47942857Y-133790476D01*
X48038095Y-133790476D01*
X48180952Y-133838095D01*
X48752380Y-134409523D01*
X48752380Y-133790476D01*
X47752380Y-133171428D02*
X47752380Y-133076190D01*
X47800000Y-132980952D01*
X47847619Y-132933333D01*
X47942857Y-132885714D01*
X48133333Y-132838095D01*
X48371428Y-132838095D01*
X48561904Y-132885714D01*
X48657142Y-132933333D01*
X48704761Y-132980952D01*
X48752380Y-133076190D01*
X48752380Y-133171428D01*
X48704761Y-133266666D01*
X48657142Y-133314285D01*
X48561904Y-133361904D01*
X48371428Y-133409523D01*
X48133333Y-133409523D01*
X47942857Y-133361904D01*
X47847619Y-133314285D01*
X47800000Y-133266666D01*
X47752380Y-133171428D01*
X50352380Y-134742857D02*
X49876190Y-135076190D01*
X50352380Y-135314285D02*
X49352380Y-135314285D01*
X49352380Y-134933333D01*
X49400000Y-134838095D01*
X49447619Y-134790476D01*
X49542857Y-134742857D01*
X49685714Y-134742857D01*
X49780952Y-134790476D01*
X49828571Y-134838095D01*
X49876190Y-134933333D01*
X49876190Y-135314285D01*
X50352380Y-133790476D02*
X50352380Y-134361904D01*
X50352380Y-134076190D02*
X49352380Y-134076190D01*
X49495238Y-134171428D01*
X49590476Y-134266666D01*
X49638095Y-134361904D01*
X50352380Y-133314285D02*
X50352380Y-133123809D01*
X50304761Y-133028571D01*
X50257142Y-132980952D01*
X50114285Y-132885714D01*
X49923809Y-132838095D01*
X49542857Y-132838095D01*
X49447619Y-132885714D01*
X49400000Y-132933333D01*
X49352380Y-133028571D01*
X49352380Y-133219047D01*
X49400000Y-133314285D01*
X49447619Y-133361904D01*
X49542857Y-133409523D01*
X49780952Y-133409523D01*
X49876190Y-133361904D01*
X49923809Y-133314285D01*
X49971428Y-133219047D01*
X49971428Y-133028571D01*
X49923809Y-132933333D01*
X49876190Y-132885714D01*
X49780952Y-132838095D01*
X51952380Y-134742857D02*
X51476190Y-135076190D01*
X51952380Y-135314285D02*
X50952380Y-135314285D01*
X50952380Y-134933333D01*
X51000000Y-134838095D01*
X51047619Y-134790476D01*
X51142857Y-134742857D01*
X51285714Y-134742857D01*
X51380952Y-134790476D01*
X51428571Y-134838095D01*
X51476190Y-134933333D01*
X51476190Y-135314285D01*
X51952380Y-133790476D02*
X51952380Y-134361904D01*
X51952380Y-134076190D02*
X50952380Y-134076190D01*
X51095238Y-134171428D01*
X51190476Y-134266666D01*
X51238095Y-134361904D01*
X51380952Y-133219047D02*
X51333333Y-133314285D01*
X51285714Y-133361904D01*
X51190476Y-133409523D01*
X51142857Y-133409523D01*
X51047619Y-133361904D01*
X51000000Y-133314285D01*
X50952380Y-133219047D01*
X50952380Y-133028571D01*
X51000000Y-132933333D01*
X51047619Y-132885714D01*
X51142857Y-132838095D01*
X51190476Y-132838095D01*
X51285714Y-132885714D01*
X51333333Y-132933333D01*
X51380952Y-133028571D01*
X51380952Y-133219047D01*
X51428571Y-133314285D01*
X51476190Y-133361904D01*
X51571428Y-133409523D01*
X51761904Y-133409523D01*
X51857142Y-133361904D01*
X51904761Y-133314285D01*
X51952380Y-133219047D01*
X51952380Y-133028571D01*
X51904761Y-132933333D01*
X51857142Y-132885714D01*
X51761904Y-132838095D01*
X51571428Y-132838095D01*
X51476190Y-132885714D01*
X51428571Y-132933333D01*
X51380952Y-133028571D01*
D11*
X83385714Y-128961904D02*
X83119047Y-128580952D01*
X82928571Y-128961904D02*
X82928571Y-128161904D01*
X83233333Y-128161904D01*
X83309523Y-128200000D01*
X83347619Y-128238095D01*
X83385714Y-128314285D01*
X83385714Y-128428571D01*
X83347619Y-128504761D01*
X83309523Y-128542857D01*
X83233333Y-128580952D01*
X82928571Y-128580952D01*
X84147619Y-128961904D02*
X83690476Y-128961904D01*
X83919047Y-128961904D02*
X83919047Y-128161904D01*
X83842857Y-128276190D01*
X83766666Y-128352380D01*
X83690476Y-128390476D01*
X84414285Y-128161904D02*
X84947619Y-128161904D01*
X84604761Y-128961904D01*
D10*
X85252380Y-134842857D02*
X84776190Y-135176190D01*
X85252380Y-135414285D02*
X84252380Y-135414285D01*
X84252380Y-135033333D01*
X84300000Y-134938095D01*
X84347619Y-134890476D01*
X84442857Y-134842857D01*
X84585714Y-134842857D01*
X84680952Y-134890476D01*
X84728571Y-134938095D01*
X84776190Y-135033333D01*
X84776190Y-135414285D01*
X85252380Y-133890476D02*
X85252380Y-134461904D01*
X85252380Y-134176190D02*
X84252380Y-134176190D01*
X84395238Y-134271428D01*
X84490476Y-134366666D01*
X84538095Y-134461904D01*
X84252380Y-133033333D02*
X84252380Y-133223809D01*
X84300000Y-133319047D01*
X84347619Y-133366666D01*
X84490476Y-133461904D01*
X84680952Y-133509523D01*
X85061904Y-133509523D01*
X85157142Y-133461904D01*
X85204761Y-133414285D01*
X85252380Y-133319047D01*
X85252380Y-133128571D01*
X85204761Y-133033333D01*
X85157142Y-132985714D01*
X85061904Y-132938095D01*
X84823809Y-132938095D01*
X84728571Y-132985714D01*
X84680952Y-133033333D01*
X84633333Y-133128571D01*
X84633333Y-133319047D01*
X84680952Y-133414285D01*
X84728571Y-133461904D01*
X84823809Y-133509523D01*
X82057142Y-139752380D02*
X81723809Y-139276190D01*
X81485714Y-139752380D02*
X81485714Y-138752380D01*
X81866666Y-138752380D01*
X81961904Y-138800000D01*
X82009523Y-138847619D01*
X82057142Y-138942857D01*
X82057142Y-139085714D01*
X82009523Y-139180952D01*
X81961904Y-139228571D01*
X81866666Y-139276190D01*
X81485714Y-139276190D01*
X83009523Y-139752380D02*
X82438095Y-139752380D01*
X82723809Y-139752380D02*
X82723809Y-138752380D01*
X82628571Y-138895238D01*
X82533333Y-138990476D01*
X82438095Y-139038095D01*
X83914285Y-138752380D02*
X83438095Y-138752380D01*
X83390476Y-139228571D01*
X83438095Y-139180952D01*
X83533333Y-139133333D01*
X83771428Y-139133333D01*
X83866666Y-139180952D01*
X83914285Y-139228571D01*
X83961904Y-139323809D01*
X83961904Y-139561904D01*
X83914285Y-139657142D01*
X83866666Y-139704761D01*
X83771428Y-139752380D01*
X83533333Y-139752380D01*
X83438095Y-139704761D01*
X83390476Y-139657142D01*
X82057142Y-141352380D02*
X81723809Y-140876190D01*
X81485714Y-141352380D02*
X81485714Y-140352380D01*
X81866666Y-140352380D01*
X81961904Y-140400000D01*
X82009523Y-140447619D01*
X82057142Y-140542857D01*
X82057142Y-140685714D01*
X82009523Y-140780952D01*
X81961904Y-140828571D01*
X81866666Y-140876190D01*
X81485714Y-140876190D01*
X83009523Y-141352380D02*
X82438095Y-141352380D01*
X82723809Y-141352380D02*
X82723809Y-140352380D01*
X82628571Y-140495238D01*
X82533333Y-140590476D01*
X82438095Y-140638095D01*
X83866666Y-140685714D02*
X83866666Y-141352380D01*
X83628571Y-140304761D02*
X83390476Y-141019047D01*
X84009523Y-141019047D01*
D11*
X42461904Y-155514285D02*
X42080952Y-155780952D01*
X42461904Y-155971428D02*
X41661904Y-155971428D01*
X41661904Y-155666666D01*
X41700000Y-155590476D01*
X41738095Y-155552380D01*
X41814285Y-155514285D01*
X41928571Y-155514285D01*
X42004761Y-155552380D01*
X42042857Y-155590476D01*
X42080952Y-155666666D01*
X42080952Y-155971428D01*
X42461904Y-154752380D02*
X42461904Y-155209523D01*
X42461904Y-154980952D02*
X41661904Y-154980952D01*
X41776190Y-155057142D01*
X41852380Y-155133333D01*
X41890476Y-155209523D01*
X41661904Y-154485714D02*
X41661904Y-153990476D01*
X41966666Y-154257142D01*
X41966666Y-154142857D01*
X42004761Y-154066666D01*
X42042857Y-154028571D01*
X42119047Y-153990476D01*
X42309523Y-153990476D01*
X42385714Y-154028571D01*
X42423809Y-154066666D01*
X42461904Y-154142857D01*
X42461904Y-154371428D01*
X42423809Y-154447619D01*
X42385714Y-154485714D01*
X44161904Y-155514285D02*
X43780952Y-155780952D01*
X44161904Y-155971428D02*
X43361904Y-155971428D01*
X43361904Y-155666666D01*
X43400000Y-155590476D01*
X43438095Y-155552380D01*
X43514285Y-155514285D01*
X43628571Y-155514285D01*
X43704761Y-155552380D01*
X43742857Y-155590476D01*
X43780952Y-155666666D01*
X43780952Y-155971428D01*
X44161904Y-154752380D02*
X44161904Y-155209523D01*
X44161904Y-154980952D02*
X43361904Y-154980952D01*
X43476190Y-155057142D01*
X43552380Y-155133333D01*
X43590476Y-155209523D01*
X43438095Y-154447619D02*
X43400000Y-154409523D01*
X43361904Y-154333333D01*
X43361904Y-154142857D01*
X43400000Y-154066666D01*
X43438095Y-154028571D01*
X43514285Y-153990476D01*
X43590476Y-153990476D01*
X43704761Y-154028571D01*
X44161904Y-154485714D01*
X44161904Y-153990476D01*
X40861904Y-155514285D02*
X40480952Y-155780952D01*
X40861904Y-155971428D02*
X40061904Y-155971428D01*
X40061904Y-155666666D01*
X40100000Y-155590476D01*
X40138095Y-155552380D01*
X40214285Y-155514285D01*
X40328571Y-155514285D01*
X40404761Y-155552380D01*
X40442857Y-155590476D01*
X40480952Y-155666666D01*
X40480952Y-155971428D01*
X40861904Y-154752380D02*
X40861904Y-155209523D01*
X40861904Y-154980952D02*
X40061904Y-154980952D01*
X40176190Y-155057142D01*
X40252380Y-155133333D01*
X40290476Y-155209523D01*
X40861904Y-153990476D02*
X40861904Y-154447619D01*
X40861904Y-154219047D02*
X40061904Y-154219047D01*
X40176190Y-154295238D01*
X40252380Y-154371428D01*
X40290476Y-154447619D01*
X34661904Y-160033333D02*
X34280952Y-160300000D01*
X34661904Y-160490476D02*
X33861904Y-160490476D01*
X33861904Y-160185714D01*
X33900000Y-160109523D01*
X33938095Y-160071428D01*
X34014285Y-160033333D01*
X34128571Y-160033333D01*
X34204761Y-160071428D01*
X34242857Y-160109523D01*
X34280952Y-160185714D01*
X34280952Y-160490476D01*
X34661904Y-159652380D02*
X34661904Y-159500000D01*
X34623809Y-159423809D01*
X34585714Y-159385714D01*
X34471428Y-159309523D01*
X34319047Y-159271428D01*
X34014285Y-159271428D01*
X33938095Y-159309523D01*
X33900000Y-159347619D01*
X33861904Y-159423809D01*
X33861904Y-159576190D01*
X33900000Y-159652380D01*
X33938095Y-159690476D01*
X34014285Y-159728571D01*
X34204761Y-159728571D01*
X34280952Y-159690476D01*
X34319047Y-159652380D01*
X34357142Y-159576190D01*
X34357142Y-159423809D01*
X34319047Y-159347619D01*
X34280952Y-159309523D01*
X34204761Y-159271428D01*
D10*
X83033333Y-138252380D02*
X82700000Y-137776190D01*
X82461904Y-138252380D02*
X82461904Y-137252380D01*
X82842857Y-137252380D01*
X82938095Y-137300000D01*
X82985714Y-137347619D01*
X83033333Y-137442857D01*
X83033333Y-137585714D01*
X82985714Y-137680952D01*
X82938095Y-137728571D01*
X82842857Y-137776190D01*
X82461904Y-137776190D01*
X83604761Y-137680952D02*
X83509523Y-137633333D01*
X83461904Y-137585714D01*
X83414285Y-137490476D01*
X83414285Y-137442857D01*
X83461904Y-137347619D01*
X83509523Y-137300000D01*
X83604761Y-137252380D01*
X83795238Y-137252380D01*
X83890476Y-137300000D01*
X83938095Y-137347619D01*
X83985714Y-137442857D01*
X83985714Y-137490476D01*
X83938095Y-137585714D01*
X83890476Y-137633333D01*
X83795238Y-137680952D01*
X83604761Y-137680952D01*
X83509523Y-137728571D01*
X83461904Y-137776190D01*
X83414285Y-137871428D01*
X83414285Y-138061904D01*
X83461904Y-138157142D01*
X83509523Y-138204761D01*
X83604761Y-138252380D01*
X83795238Y-138252380D01*
X83890476Y-138204761D01*
X83938095Y-138157142D01*
X83985714Y-138061904D01*
X83985714Y-137871428D01*
X83938095Y-137776190D01*
X83890476Y-137728571D01*
X83795238Y-137680952D01*
X50433333Y-151652380D02*
X50100000Y-151176190D01*
X49861904Y-151652380D02*
X49861904Y-150652380D01*
X50242857Y-150652380D01*
X50338095Y-150700000D01*
X50385714Y-150747619D01*
X50433333Y-150842857D01*
X50433333Y-150985714D01*
X50385714Y-151080952D01*
X50338095Y-151128571D01*
X50242857Y-151176190D01*
X49861904Y-151176190D01*
X50766666Y-150652380D02*
X51433333Y-150652380D01*
X51004761Y-151652380D01*
X47152380Y-133866666D02*
X46676190Y-134200000D01*
X47152380Y-134438095D02*
X46152380Y-134438095D01*
X46152380Y-134057142D01*
X46200000Y-133961904D01*
X46247619Y-133914285D01*
X46342857Y-133866666D01*
X46485714Y-133866666D01*
X46580952Y-133914285D01*
X46628571Y-133961904D01*
X46676190Y-134057142D01*
X46676190Y-134438095D01*
X46152380Y-133009523D02*
X46152380Y-133200000D01*
X46200000Y-133295238D01*
X46247619Y-133342857D01*
X46390476Y-133438095D01*
X46580952Y-133485714D01*
X46961904Y-133485714D01*
X47057142Y-133438095D01*
X47104761Y-133390476D01*
X47152380Y-133295238D01*
X47152380Y-133104761D01*
X47104761Y-133009523D01*
X47057142Y-132961904D01*
X46961904Y-132914285D01*
X46723809Y-132914285D01*
X46628571Y-132961904D01*
X46580952Y-133009523D01*
X46533333Y-133104761D01*
X46533333Y-133295238D01*
X46580952Y-133390476D01*
X46628571Y-133438095D01*
X46723809Y-133485714D01*
X49433333Y-143952380D02*
X49100000Y-143476190D01*
X48861904Y-143952380D02*
X48861904Y-142952380D01*
X49242857Y-142952380D01*
X49338095Y-143000000D01*
X49385714Y-143047619D01*
X49433333Y-143142857D01*
X49433333Y-143285714D01*
X49385714Y-143380952D01*
X49338095Y-143428571D01*
X49242857Y-143476190D01*
X48861904Y-143476190D01*
X50338095Y-142952380D02*
X49861904Y-142952380D01*
X49814285Y-143428571D01*
X49861904Y-143380952D01*
X49957142Y-143333333D01*
X50195238Y-143333333D01*
X50290476Y-143380952D01*
X50338095Y-143428571D01*
X50385714Y-143523809D01*
X50385714Y-143761904D01*
X50338095Y-143857142D01*
X50290476Y-143904761D01*
X50195238Y-143952380D01*
X49957142Y-143952380D01*
X49861904Y-143904761D01*
X49814285Y-143857142D01*
X30833333Y-133352380D02*
X30500000Y-132876190D01*
X30261904Y-133352380D02*
X30261904Y-132352380D01*
X30642857Y-132352380D01*
X30738095Y-132400000D01*
X30785714Y-132447619D01*
X30833333Y-132542857D01*
X30833333Y-132685714D01*
X30785714Y-132780952D01*
X30738095Y-132828571D01*
X30642857Y-132876190D01*
X30261904Y-132876190D01*
X31690476Y-132685714D02*
X31690476Y-133352380D01*
X31452380Y-132304761D02*
X31214285Y-133019047D01*
X31833333Y-133019047D01*
X77982380Y-175478666D02*
X77506190Y-175812000D01*
X77982380Y-176050095D02*
X76982380Y-176050095D01*
X76982380Y-175669142D01*
X77030000Y-175573904D01*
X77077619Y-175526285D01*
X77172857Y-175478666D01*
X77315714Y-175478666D01*
X77410952Y-175526285D01*
X77458571Y-175573904D01*
X77506190Y-175669142D01*
X77506190Y-176050095D01*
X76982380Y-175145333D02*
X76982380Y-174526285D01*
X77363333Y-174859619D01*
X77363333Y-174716761D01*
X77410952Y-174621523D01*
X77458571Y-174573904D01*
X77553809Y-174526285D01*
X77791904Y-174526285D01*
X77887142Y-174573904D01*
X77934761Y-174621523D01*
X77982380Y-174716761D01*
X77982380Y-175002476D01*
X77934761Y-175097714D01*
X77887142Y-175145333D01*
X53085761Y-139250619D02*
X52990523Y-139203000D01*
X52895285Y-139107761D01*
X52752428Y-138964904D01*
X52657190Y-138917285D01*
X52561952Y-138917285D01*
X52609571Y-139155380D02*
X52514333Y-139107761D01*
X52419095Y-139012523D01*
X52371476Y-138822047D01*
X52371476Y-138488714D01*
X52419095Y-138298238D01*
X52514333Y-138203000D01*
X52609571Y-138155380D01*
X52800047Y-138155380D01*
X52895285Y-138203000D01*
X52990523Y-138298238D01*
X53038142Y-138488714D01*
X53038142Y-138822047D01*
X52990523Y-139012523D01*
X52895285Y-139107761D01*
X52800047Y-139155380D01*
X52609571Y-139155380D01*
X53371476Y-138155380D02*
X54038142Y-138155380D01*
X53609571Y-139155380D01*
X45904761Y-139197619D02*
X45809523Y-139150000D01*
X45714285Y-139054761D01*
X45571428Y-138911904D01*
X45476190Y-138864285D01*
X45380952Y-138864285D01*
X45428571Y-139102380D02*
X45333333Y-139054761D01*
X45238095Y-138959523D01*
X45190476Y-138769047D01*
X45190476Y-138435714D01*
X45238095Y-138245238D01*
X45333333Y-138150000D01*
X45428571Y-138102380D01*
X45619047Y-138102380D01*
X45714285Y-138150000D01*
X45809523Y-138245238D01*
X45857142Y-138435714D01*
X45857142Y-138769047D01*
X45809523Y-138959523D01*
X45714285Y-139054761D01*
X45619047Y-139102380D01*
X45428571Y-139102380D01*
X46714285Y-138102380D02*
X46523809Y-138102380D01*
X46428571Y-138150000D01*
X46380952Y-138197619D01*
X46285714Y-138340476D01*
X46238095Y-138530952D01*
X46238095Y-138911904D01*
X46285714Y-139007142D01*
X46333333Y-139054761D01*
X46428571Y-139102380D01*
X46619047Y-139102380D01*
X46714285Y-139054761D01*
X46761904Y-139007142D01*
X46809523Y-138911904D01*
X46809523Y-138673809D01*
X46761904Y-138578571D01*
X46714285Y-138530952D01*
X46619047Y-138483333D01*
X46428571Y-138483333D01*
X46333333Y-138530952D01*
X46285714Y-138578571D01*
X46238095Y-138673809D01*
X90147619Y-128095238D02*
X90100000Y-128190476D01*
X90004761Y-128285714D01*
X89861904Y-128428571D01*
X89814285Y-128523809D01*
X89814285Y-128619047D01*
X90052380Y-128571428D02*
X90004761Y-128666666D01*
X89909523Y-128761904D01*
X89719047Y-128809523D01*
X89385714Y-128809523D01*
X89195238Y-128761904D01*
X89100000Y-128666666D01*
X89052380Y-128571428D01*
X89052380Y-128380952D01*
X89100000Y-128285714D01*
X89195238Y-128190476D01*
X89385714Y-128142857D01*
X89719047Y-128142857D01*
X89909523Y-128190476D01*
X90004761Y-128285714D01*
X90052380Y-128380952D01*
X90052380Y-128571428D01*
X89052380Y-127238095D02*
X89052380Y-127714285D01*
X89528571Y-127761904D01*
X89480952Y-127714285D01*
X89433333Y-127619047D01*
X89433333Y-127380952D01*
X89480952Y-127285714D01*
X89528571Y-127238095D01*
X89623809Y-127190476D01*
X89861904Y-127190476D01*
X89957142Y-127238095D01*
X90004761Y-127285714D01*
X90052380Y-127380952D01*
X90052380Y-127619047D01*
X90004761Y-127714285D01*
X89957142Y-127761904D01*
X86447619Y-131895238D02*
X86400000Y-131990476D01*
X86304761Y-132085714D01*
X86161904Y-132228571D01*
X86114285Y-132323809D01*
X86114285Y-132419047D01*
X86352380Y-132371428D02*
X86304761Y-132466666D01*
X86209523Y-132561904D01*
X86019047Y-132609523D01*
X85685714Y-132609523D01*
X85495238Y-132561904D01*
X85400000Y-132466666D01*
X85352380Y-132371428D01*
X85352380Y-132180952D01*
X85400000Y-132085714D01*
X85495238Y-131990476D01*
X85685714Y-131942857D01*
X86019047Y-131942857D01*
X86209523Y-131990476D01*
X86304761Y-132085714D01*
X86352380Y-132180952D01*
X86352380Y-132371428D01*
X85685714Y-131085714D02*
X86352380Y-131085714D01*
X85304761Y-131323809D02*
X86019047Y-131561904D01*
X86019047Y-130942857D01*
X86347619Y-128095238D02*
X86300000Y-128190476D01*
X86204761Y-128285714D01*
X86061904Y-128428571D01*
X86014285Y-128523809D01*
X86014285Y-128619047D01*
X86252380Y-128571428D02*
X86204761Y-128666666D01*
X86109523Y-128761904D01*
X85919047Y-128809523D01*
X85585714Y-128809523D01*
X85395238Y-128761904D01*
X85300000Y-128666666D01*
X85252380Y-128571428D01*
X85252380Y-128380952D01*
X85300000Y-128285714D01*
X85395238Y-128190476D01*
X85585714Y-128142857D01*
X85919047Y-128142857D01*
X86109523Y-128190476D01*
X86204761Y-128285714D01*
X86252380Y-128380952D01*
X86252380Y-128571428D01*
X85347619Y-127761904D02*
X85300000Y-127714285D01*
X85252380Y-127619047D01*
X85252380Y-127380952D01*
X85300000Y-127285714D01*
X85347619Y-127238095D01*
X85442857Y-127190476D01*
X85538095Y-127190476D01*
X85680952Y-127238095D01*
X86252380Y-127809523D01*
X86252380Y-127190476D01*
X78261904Y-123652380D02*
X78261904Y-122652380D01*
X78500000Y-122652380D01*
X78642857Y-122700000D01*
X78738095Y-122795238D01*
X78785714Y-122890476D01*
X78833333Y-123080952D01*
X78833333Y-123223809D01*
X78785714Y-123414285D01*
X78738095Y-123509523D01*
X78642857Y-123604761D01*
X78500000Y-123652380D01*
X78261904Y-123652380D01*
X79166666Y-122652380D02*
X79833333Y-122652380D01*
X79404761Y-123652380D01*
X90861904Y-123752380D02*
X90861904Y-122752380D01*
X91100000Y-122752380D01*
X91242857Y-122800000D01*
X91338095Y-122895238D01*
X91385714Y-122990476D01*
X91433333Y-123180952D01*
X91433333Y-123323809D01*
X91385714Y-123514285D01*
X91338095Y-123609523D01*
X91242857Y-123704761D01*
X91100000Y-123752380D01*
X90861904Y-123752380D01*
X92290476Y-122752380D02*
X92100000Y-122752380D01*
X92004761Y-122800000D01*
X91957142Y-122847619D01*
X91861904Y-122990476D01*
X91814285Y-123180952D01*
X91814285Y-123561904D01*
X91861904Y-123657142D01*
X91909523Y-123704761D01*
X92004761Y-123752380D01*
X92195238Y-123752380D01*
X92290476Y-123704761D01*
X92338095Y-123657142D01*
X92385714Y-123561904D01*
X92385714Y-123323809D01*
X92338095Y-123228571D01*
X92290476Y-123180952D01*
X92195238Y-123133333D01*
X92004761Y-123133333D01*
X91909523Y-123180952D01*
X91861904Y-123228571D01*
X91814285Y-123323809D01*
D11*
X35209523Y-139361904D02*
X35209523Y-138561904D01*
X35400000Y-138561904D01*
X35514285Y-138600000D01*
X35590476Y-138676190D01*
X35628571Y-138752380D01*
X35666666Y-138904761D01*
X35666666Y-139019047D01*
X35628571Y-139171428D01*
X35590476Y-139247619D01*
X35514285Y-139323809D01*
X35400000Y-139361904D01*
X35209523Y-139361904D01*
X35971428Y-138638095D02*
X36009523Y-138600000D01*
X36085714Y-138561904D01*
X36276190Y-138561904D01*
X36352380Y-138600000D01*
X36390476Y-138638095D01*
X36428571Y-138714285D01*
X36428571Y-138790476D01*
X36390476Y-138904761D01*
X35933333Y-139361904D01*
X36428571Y-139361904D01*
D10*
X35761904Y-122752380D02*
X35761904Y-121752380D01*
X36000000Y-121752380D01*
X36142857Y-121800000D01*
X36238095Y-121895238D01*
X36285714Y-121990476D01*
X36333333Y-122180952D01*
X36333333Y-122323809D01*
X36285714Y-122514285D01*
X36238095Y-122609523D01*
X36142857Y-122704761D01*
X36000000Y-122752380D01*
X35761904Y-122752380D01*
X37285714Y-122752380D02*
X36714285Y-122752380D01*
X37000000Y-122752380D02*
X37000000Y-121752380D01*
X36904761Y-121895238D01*
X36809523Y-121990476D01*
X36714285Y-122038095D01*
X39457142Y-119157142D02*
X39409523Y-119204761D01*
X39266666Y-119252380D01*
X39171428Y-119252380D01*
X39028571Y-119204761D01*
X38933333Y-119109523D01*
X38885714Y-119014285D01*
X38838095Y-118823809D01*
X38838095Y-118680952D01*
X38885714Y-118490476D01*
X38933333Y-118395238D01*
X39028571Y-118300000D01*
X39171428Y-118252380D01*
X39266666Y-118252380D01*
X39409523Y-118300000D01*
X39457142Y-118347619D01*
X39838095Y-118347619D02*
X39885714Y-118300000D01*
X39980952Y-118252380D01*
X40219047Y-118252380D01*
X40314285Y-118300000D01*
X40361904Y-118347619D01*
X40409523Y-118442857D01*
X40409523Y-118538095D01*
X40361904Y-118680952D01*
X39790476Y-119252380D01*
X40409523Y-119252380D01*
X40790476Y-118347619D02*
X40838095Y-118300000D01*
X40933333Y-118252380D01*
X41171428Y-118252380D01*
X41266666Y-118300000D01*
X41314285Y-118347619D01*
X41361904Y-118442857D01*
X41361904Y-118538095D01*
X41314285Y-118680952D01*
X40742857Y-119252380D01*
X41361904Y-119252380D01*
X43857142Y-134742857D02*
X43904761Y-134790476D01*
X43952380Y-134933333D01*
X43952380Y-135028571D01*
X43904761Y-135171428D01*
X43809523Y-135266666D01*
X43714285Y-135314285D01*
X43523809Y-135361904D01*
X43380952Y-135361904D01*
X43190476Y-135314285D01*
X43095238Y-135266666D01*
X43000000Y-135171428D01*
X42952380Y-135028571D01*
X42952380Y-134933333D01*
X43000000Y-134790476D01*
X43047619Y-134742857D01*
X43047619Y-134361904D02*
X43000000Y-134314285D01*
X42952380Y-134219047D01*
X42952380Y-133980952D01*
X43000000Y-133885714D01*
X43047619Y-133838095D01*
X43142857Y-133790476D01*
X43238095Y-133790476D01*
X43380952Y-133838095D01*
X43952380Y-134409523D01*
X43952380Y-133790476D01*
X43952380Y-132838095D02*
X43952380Y-133409523D01*
X43952380Y-133123809D02*
X42952380Y-133123809D01*
X43095238Y-133219047D01*
X43190476Y-133314285D01*
X43238095Y-133409523D01*
X54369642Y-137057142D02*
X54322023Y-137104761D01*
X54179166Y-137152380D01*
X54083928Y-137152380D01*
X53941071Y-137104761D01*
X53845833Y-137009523D01*
X53798214Y-136914285D01*
X53750595Y-136723809D01*
X53750595Y-136580952D01*
X53798214Y-136390476D01*
X53845833Y-136295238D01*
X53941071Y-136200000D01*
X54083928Y-136152380D01*
X54179166Y-136152380D01*
X54322023Y-136200000D01*
X54369642Y-136247619D01*
X55322023Y-137152380D02*
X54750595Y-137152380D01*
X55036309Y-137152380D02*
X55036309Y-136152380D01*
X54941071Y-136295238D01*
X54845833Y-136390476D01*
X54750595Y-136438095D01*
X55893452Y-136580952D02*
X55798214Y-136533333D01*
X55750595Y-136485714D01*
X55702976Y-136390476D01*
X55702976Y-136342857D01*
X55750595Y-136247619D01*
X55798214Y-136200000D01*
X55893452Y-136152380D01*
X56083928Y-136152380D01*
X56179166Y-136200000D01*
X56226785Y-136247619D01*
X56274404Y-136342857D01*
X56274404Y-136390476D01*
X56226785Y-136485714D01*
X56179166Y-136533333D01*
X56083928Y-136580952D01*
X55893452Y-136580952D01*
X55798214Y-136628571D01*
X55750595Y-136676190D01*
X55702976Y-136771428D01*
X55702976Y-136961904D01*
X55750595Y-137057142D01*
X55798214Y-137104761D01*
X55893452Y-137152380D01*
X56083928Y-137152380D01*
X56179166Y-137104761D01*
X56226785Y-137057142D01*
X56274404Y-136961904D01*
X56274404Y-136771428D01*
X56226785Y-136676190D01*
X56179166Y-136628571D01*
X56083928Y-136580952D01*
X54244642Y-152857142D02*
X54197023Y-152904761D01*
X54054166Y-152952380D01*
X53958928Y-152952380D01*
X53816071Y-152904761D01*
X53720833Y-152809523D01*
X53673214Y-152714285D01*
X53625595Y-152523809D01*
X53625595Y-152380952D01*
X53673214Y-152190476D01*
X53720833Y-152095238D01*
X53816071Y-152000000D01*
X53958928Y-151952380D01*
X54054166Y-151952380D01*
X54197023Y-152000000D01*
X54244642Y-152047619D01*
X55197023Y-152952380D02*
X54625595Y-152952380D01*
X54911309Y-152952380D02*
X54911309Y-151952380D01*
X54816071Y-152095238D01*
X54720833Y-152190476D01*
X54625595Y-152238095D01*
X56054166Y-151952380D02*
X55863690Y-151952380D01*
X55768452Y-152000000D01*
X55720833Y-152047619D01*
X55625595Y-152190476D01*
X55577976Y-152380952D01*
X55577976Y-152761904D01*
X55625595Y-152857142D01*
X55673214Y-152904761D01*
X55768452Y-152952380D01*
X55958928Y-152952380D01*
X56054166Y-152904761D01*
X56101785Y-152857142D01*
X56149404Y-152761904D01*
X56149404Y-152523809D01*
X56101785Y-152428571D01*
X56054166Y-152380952D01*
X55958928Y-152333333D01*
X55768452Y-152333333D01*
X55673214Y-152380952D01*
X55625595Y-152428571D01*
X55577976Y-152523809D01*
X63357142Y-171057142D02*
X63309523Y-171104761D01*
X63166666Y-171152380D01*
X63071428Y-171152380D01*
X62928571Y-171104761D01*
X62833333Y-171009523D01*
X62785714Y-170914285D01*
X62738095Y-170723809D01*
X62738095Y-170580952D01*
X62785714Y-170390476D01*
X62833333Y-170295238D01*
X62928571Y-170200000D01*
X63071428Y-170152380D01*
X63166666Y-170152380D01*
X63309523Y-170200000D01*
X63357142Y-170247619D01*
X64309523Y-171152380D02*
X63738095Y-171152380D01*
X64023809Y-171152380D02*
X64023809Y-170152380D01*
X63928571Y-170295238D01*
X63833333Y-170390476D01*
X63738095Y-170438095D01*
X65166666Y-170485714D02*
X65166666Y-171152380D01*
X64928571Y-170104761D02*
X64690476Y-170819047D01*
X65309523Y-170819047D01*
X45457142Y-134842857D02*
X45504761Y-134890476D01*
X45552380Y-135033333D01*
X45552380Y-135128571D01*
X45504761Y-135271428D01*
X45409523Y-135366666D01*
X45314285Y-135414285D01*
X45123809Y-135461904D01*
X44980952Y-135461904D01*
X44790476Y-135414285D01*
X44695238Y-135366666D01*
X44600000Y-135271428D01*
X44552380Y-135128571D01*
X44552380Y-135033333D01*
X44600000Y-134890476D01*
X44647619Y-134842857D01*
X45552380Y-133890476D02*
X45552380Y-134461904D01*
X45552380Y-134176190D02*
X44552380Y-134176190D01*
X44695238Y-134271428D01*
X44790476Y-134366666D01*
X44838095Y-134461904D01*
X44552380Y-133557142D02*
X44552380Y-132938095D01*
X44933333Y-133271428D01*
X44933333Y-133128571D01*
X44980952Y-133033333D01*
X45028571Y-132985714D01*
X45123809Y-132938095D01*
X45361904Y-132938095D01*
X45457142Y-132985714D01*
X45504761Y-133033333D01*
X45552380Y-133128571D01*
X45552380Y-133414285D01*
X45504761Y-133509523D01*
X45457142Y-133557142D01*
X50357142Y-153057142D02*
X50309523Y-153104761D01*
X50166666Y-153152380D01*
X50071428Y-153152380D01*
X49928571Y-153104761D01*
X49833333Y-153009523D01*
X49785714Y-152914285D01*
X49738095Y-152723809D01*
X49738095Y-152580952D01*
X49785714Y-152390476D01*
X49833333Y-152295238D01*
X49928571Y-152200000D01*
X50071428Y-152152380D01*
X50166666Y-152152380D01*
X50309523Y-152200000D01*
X50357142Y-152247619D01*
X51309523Y-153152380D02*
X50738095Y-153152380D01*
X51023809Y-153152380D02*
X51023809Y-152152380D01*
X50928571Y-152295238D01*
X50833333Y-152390476D01*
X50738095Y-152438095D01*
X51928571Y-152152380D02*
X52023809Y-152152380D01*
X52119047Y-152200000D01*
X52166666Y-152247619D01*
X52214285Y-152342857D01*
X52261904Y-152533333D01*
X52261904Y-152771428D01*
X52214285Y-152961904D01*
X52166666Y-153057142D01*
X52119047Y-153104761D01*
X52023809Y-153152380D01*
X51928571Y-153152380D01*
X51833333Y-153104761D01*
X51785714Y-153057142D01*
X51738095Y-152961904D01*
X51690476Y-152771428D01*
X51690476Y-152533333D01*
X51738095Y-152342857D01*
X51785714Y-152247619D01*
X51833333Y-152200000D01*
X51928571Y-152152380D01*
X46057142Y-153016666D02*
X46104761Y-153064285D01*
X46152380Y-153207142D01*
X46152380Y-153302380D01*
X46104761Y-153445238D01*
X46009523Y-153540476D01*
X45914285Y-153588095D01*
X45723809Y-153635714D01*
X45580952Y-153635714D01*
X45390476Y-153588095D01*
X45295238Y-153540476D01*
X45200000Y-153445238D01*
X45152380Y-153302380D01*
X45152380Y-153207142D01*
X45200000Y-153064285D01*
X45247619Y-153016666D01*
X46152380Y-152540476D02*
X46152380Y-152350000D01*
X46104761Y-152254761D01*
X46057142Y-152207142D01*
X45914285Y-152111904D01*
X45723809Y-152064285D01*
X45342857Y-152064285D01*
X45247619Y-152111904D01*
X45200000Y-152159523D01*
X45152380Y-152254761D01*
X45152380Y-152445238D01*
X45200000Y-152540476D01*
X45247619Y-152588095D01*
X45342857Y-152635714D01*
X45580952Y-152635714D01*
X45676190Y-152588095D01*
X45723809Y-152540476D01*
X45771428Y-152445238D01*
X45771428Y-152254761D01*
X45723809Y-152159523D01*
X45676190Y-152111904D01*
X45580952Y-152064285D01*
X50433333Y-154557142D02*
X50385714Y-154604761D01*
X50242857Y-154652380D01*
X50147619Y-154652380D01*
X50004761Y-154604761D01*
X49909523Y-154509523D01*
X49861904Y-154414285D01*
X49814285Y-154223809D01*
X49814285Y-154080952D01*
X49861904Y-153890476D01*
X49909523Y-153795238D01*
X50004761Y-153700000D01*
X50147619Y-153652380D01*
X50242857Y-153652380D01*
X50385714Y-153700000D01*
X50433333Y-153747619D01*
X51004761Y-154080952D02*
X50909523Y-154033333D01*
X50861904Y-153985714D01*
X50814285Y-153890476D01*
X50814285Y-153842857D01*
X50861904Y-153747619D01*
X50909523Y-153700000D01*
X51004761Y-153652380D01*
X51195238Y-153652380D01*
X51290476Y-153700000D01*
X51338095Y-153747619D01*
X51385714Y-153842857D01*
X51385714Y-153890476D01*
X51338095Y-153985714D01*
X51290476Y-154033333D01*
X51195238Y-154080952D01*
X51004761Y-154080952D01*
X50909523Y-154128571D01*
X50861904Y-154176190D01*
X50814285Y-154271428D01*
X50814285Y-154461904D01*
X50861904Y-154557142D01*
X50909523Y-154604761D01*
X51004761Y-154652380D01*
X51195238Y-154652380D01*
X51290476Y-154604761D01*
X51338095Y-154557142D01*
X51385714Y-154461904D01*
X51385714Y-154271428D01*
X51338095Y-154176190D01*
X51290476Y-154128571D01*
X51195238Y-154080952D01*
D11*
X31935714Y-130733333D02*
X31973809Y-130771428D01*
X32011904Y-130885714D01*
X32011904Y-130961904D01*
X31973809Y-131076190D01*
X31897619Y-131152380D01*
X31821428Y-131190476D01*
X31669047Y-131228571D01*
X31554761Y-131228571D01*
X31402380Y-131190476D01*
X31326190Y-131152380D01*
X31250000Y-131076190D01*
X31211904Y-130961904D01*
X31211904Y-130885714D01*
X31250000Y-130771428D01*
X31288095Y-130733333D01*
X31211904Y-130466666D02*
X31211904Y-129933333D01*
X32011904Y-130276190D01*
D10*
X33345833Y-123727142D02*
X33298214Y-123774761D01*
X33155357Y-123822380D01*
X33060119Y-123822380D01*
X32917261Y-123774761D01*
X32822023Y-123679523D01*
X32774404Y-123584285D01*
X32726785Y-123393809D01*
X32726785Y-123250952D01*
X32774404Y-123060476D01*
X32822023Y-122965238D01*
X32917261Y-122870000D01*
X33060119Y-122822380D01*
X33155357Y-122822380D01*
X33298214Y-122870000D01*
X33345833Y-122917619D01*
X34202976Y-122822380D02*
X34012500Y-122822380D01*
X33917261Y-122870000D01*
X33869642Y-122917619D01*
X33774404Y-123060476D01*
X33726785Y-123250952D01*
X33726785Y-123631904D01*
X33774404Y-123727142D01*
X33822023Y-123774761D01*
X33917261Y-123822380D01*
X34107738Y-123822380D01*
X34202976Y-123774761D01*
X34250595Y-123727142D01*
X34298214Y-123631904D01*
X34298214Y-123393809D01*
X34250595Y-123298571D01*
X34202976Y-123250952D01*
X34107738Y-123203333D01*
X33917261Y-123203333D01*
X33822023Y-123250952D01*
X33774404Y-123298571D01*
X33726785Y-123393809D01*
D11*
X30985714Y-130733333D02*
X31023809Y-130771428D01*
X31061904Y-130885714D01*
X31061904Y-130961904D01*
X31023809Y-131076190D01*
X30947619Y-131152380D01*
X30871428Y-131190476D01*
X30719047Y-131228571D01*
X30604761Y-131228571D01*
X30452380Y-131190476D01*
X30376190Y-131152380D01*
X30300000Y-131076190D01*
X30261904Y-130961904D01*
X30261904Y-130885714D01*
X30300000Y-130771428D01*
X30338095Y-130733333D01*
X30261904Y-130009523D02*
X30261904Y-130390476D01*
X30642857Y-130428571D01*
X30604761Y-130390476D01*
X30566666Y-130314285D01*
X30566666Y-130123809D01*
X30604761Y-130047619D01*
X30642857Y-130009523D01*
X30719047Y-129971428D01*
X30909523Y-129971428D01*
X30985714Y-130009523D01*
X31023809Y-130047619D01*
X31061904Y-130123809D01*
X31061904Y-130314285D01*
X31023809Y-130390476D01*
X30985714Y-130428571D01*
X30985714Y-125033333D02*
X31023809Y-125071428D01*
X31061904Y-125185714D01*
X31061904Y-125261904D01*
X31023809Y-125376190D01*
X30947619Y-125452380D01*
X30871428Y-125490476D01*
X30719047Y-125528571D01*
X30604761Y-125528571D01*
X30452380Y-125490476D01*
X30376190Y-125452380D01*
X30300000Y-125376190D01*
X30261904Y-125261904D01*
X30261904Y-125185714D01*
X30300000Y-125071428D01*
X30338095Y-125033333D01*
X30528571Y-124347619D02*
X31061904Y-124347619D01*
X30223809Y-124538095D02*
X30795238Y-124728571D01*
X30795238Y-124233333D01*
X31885714Y-125033333D02*
X31923809Y-125071428D01*
X31961904Y-125185714D01*
X31961904Y-125261904D01*
X31923809Y-125376190D01*
X31847619Y-125452380D01*
X31771428Y-125490476D01*
X31619047Y-125528571D01*
X31504761Y-125528571D01*
X31352380Y-125490476D01*
X31276190Y-125452380D01*
X31200000Y-125376190D01*
X31161904Y-125261904D01*
X31161904Y-125185714D01*
X31200000Y-125071428D01*
X31238095Y-125033333D01*
X31161904Y-124766666D02*
X31161904Y-124271428D01*
X31466666Y-124538095D01*
X31466666Y-124423809D01*
X31504761Y-124347619D01*
X31542857Y-124309523D01*
X31619047Y-124271428D01*
X31809523Y-124271428D01*
X31885714Y-124309523D01*
X31923809Y-124347619D01*
X31961904Y-124423809D01*
X31961904Y-124652380D01*
X31923809Y-124728571D01*
X31885714Y-124766666D01*
D10*
X59257142Y-175466666D02*
X59304761Y-175514285D01*
X59352380Y-175657142D01*
X59352380Y-175752380D01*
X59304761Y-175895238D01*
X59209523Y-175990476D01*
X59114285Y-176038095D01*
X58923809Y-176085714D01*
X58780952Y-176085714D01*
X58590476Y-176038095D01*
X58495238Y-175990476D01*
X58400000Y-175895238D01*
X58352380Y-175752380D01*
X58352380Y-175657142D01*
X58400000Y-175514285D01*
X58447619Y-175466666D01*
X58447619Y-175085714D02*
X58400000Y-175038095D01*
X58352380Y-174942857D01*
X58352380Y-174704761D01*
X58400000Y-174609523D01*
X58447619Y-174561904D01*
X58542857Y-174514285D01*
X58638095Y-174514285D01*
X58780952Y-174561904D01*
X59352380Y-175133333D01*
X59352380Y-174514285D01*
X77887142Y-178566666D02*
X77934761Y-178614285D01*
X77982380Y-178757142D01*
X77982380Y-178852380D01*
X77934761Y-178995238D01*
X77839523Y-179090476D01*
X77744285Y-179138095D01*
X77553809Y-179185714D01*
X77410952Y-179185714D01*
X77220476Y-179138095D01*
X77125238Y-179090476D01*
X77030000Y-178995238D01*
X76982380Y-178852380D01*
X76982380Y-178757142D01*
X77030000Y-178614285D01*
X77077619Y-178566666D01*
X77982380Y-177614285D02*
X77982380Y-178185714D01*
X77982380Y-177900000D02*
X76982380Y-177900000D01*
X77125238Y-177995238D01*
X77220476Y-178090476D01*
X77268095Y-178185714D01*
X53557142Y-158928571D02*
X53890476Y-158928571D01*
X54033333Y-159452380D02*
X53557142Y-159452380D01*
X53557142Y-158452380D01*
X54033333Y-158452380D01*
X54414285Y-159404761D02*
X54557142Y-159452380D01*
X54795238Y-159452380D01*
X54890476Y-159404761D01*
X54938095Y-159357142D01*
X54985714Y-159261904D01*
X54985714Y-159166666D01*
X54938095Y-159071428D01*
X54890476Y-159023809D01*
X54795238Y-158976190D01*
X54604761Y-158928571D01*
X54509523Y-158880952D01*
X54461904Y-158833333D01*
X54414285Y-158738095D01*
X54414285Y-158642857D01*
X54461904Y-158547619D01*
X54509523Y-158500000D01*
X54604761Y-158452380D01*
X54842857Y-158452380D01*
X54985714Y-158500000D01*
X55414285Y-159452380D02*
X55414285Y-158452380D01*
X55795238Y-158452380D01*
X55890476Y-158500000D01*
X55938095Y-158547619D01*
X55985714Y-158642857D01*
X55985714Y-158785714D01*
X55938095Y-158880952D01*
X55890476Y-158928571D01*
X55795238Y-158976190D01*
X55414285Y-158976190D01*
X56319047Y-158452380D02*
X56938095Y-158452380D01*
X56604761Y-158833333D01*
X56747619Y-158833333D01*
X56842857Y-158880952D01*
X56890476Y-158928571D01*
X56938095Y-159023809D01*
X56938095Y-159261904D01*
X56890476Y-159357142D01*
X56842857Y-159404761D01*
X56747619Y-159452380D01*
X56461904Y-159452380D01*
X56366666Y-159404761D01*
X56319047Y-159357142D01*
X57319047Y-158547619D02*
X57366666Y-158500000D01*
X57461904Y-158452380D01*
X57700000Y-158452380D01*
X57795238Y-158500000D01*
X57842857Y-158547619D01*
X57890476Y-158642857D01*
X57890476Y-158738095D01*
X57842857Y-158880952D01*
X57271428Y-159452380D01*
X57890476Y-159452380D01*
D11*
X30401904Y-158653523D02*
X31049523Y-158653523D01*
X31125714Y-158615428D01*
X31163809Y-158577333D01*
X31201904Y-158501142D01*
X31201904Y-158348761D01*
X31163809Y-158272571D01*
X31125714Y-158234476D01*
X31049523Y-158196380D01*
X30401904Y-158196380D01*
X31163809Y-157853523D02*
X31201904Y-157739238D01*
X31201904Y-157548761D01*
X31163809Y-157472571D01*
X31125714Y-157434476D01*
X31049523Y-157396380D01*
X30973333Y-157396380D01*
X30897142Y-157434476D01*
X30859047Y-157472571D01*
X30820952Y-157548761D01*
X30782857Y-157701142D01*
X30744761Y-157777333D01*
X30706666Y-157815428D01*
X30630476Y-157853523D01*
X30554285Y-157853523D01*
X30478095Y-157815428D01*
X30440000Y-157777333D01*
X30401904Y-157701142D01*
X30401904Y-157510666D01*
X30440000Y-157396380D01*
X30782857Y-156786857D02*
X30820952Y-156672571D01*
X30859047Y-156634476D01*
X30935238Y-156596380D01*
X31049523Y-156596380D01*
X31125714Y-156634476D01*
X31163809Y-156672571D01*
X31201904Y-156748761D01*
X31201904Y-157053523D01*
X30401904Y-157053523D01*
X30401904Y-156786857D01*
X30440000Y-156710666D01*
X30478095Y-156672571D01*
X30554285Y-156634476D01*
X30630476Y-156634476D01*
X30706666Y-156672571D01*
X30744761Y-156710666D01*
X30782857Y-156786857D01*
X30782857Y-157053523D01*
D10*
X77123809Y-141252380D02*
X77123809Y-140252380D01*
X78171428Y-141157142D02*
X78123809Y-141204761D01*
X77980952Y-141252380D01*
X77885714Y-141252380D01*
X77742857Y-141204761D01*
X77647619Y-141109523D01*
X77600000Y-141014285D01*
X77552380Y-140823809D01*
X77552380Y-140680952D01*
X77600000Y-140490476D01*
X77647619Y-140395238D01*
X77742857Y-140300000D01*
X77885714Y-140252380D01*
X77980952Y-140252380D01*
X78123809Y-140300000D01*
X78171428Y-140347619D01*
X78552380Y-140347619D02*
X78600000Y-140300000D01*
X78695238Y-140252380D01*
X78933333Y-140252380D01*
X79028571Y-140300000D01*
X79076190Y-140347619D01*
X79123809Y-140442857D01*
X79123809Y-140538095D01*
X79076190Y-140680952D01*
X78504761Y-141252380D01*
X79123809Y-141252380D01*
X62323809Y-159252380D02*
X62323809Y-158252380D01*
X63371428Y-159157142D02*
X63323809Y-159204761D01*
X63180952Y-159252380D01*
X63085714Y-159252380D01*
X62942857Y-159204761D01*
X62847619Y-159109523D01*
X62800000Y-159014285D01*
X62752380Y-158823809D01*
X62752380Y-158680952D01*
X62800000Y-158490476D01*
X62847619Y-158395238D01*
X62942857Y-158300000D01*
X63085714Y-158252380D01*
X63180952Y-158252380D01*
X63323809Y-158300000D01*
X63371428Y-158347619D01*
X63704761Y-158252380D02*
X64371428Y-158252380D01*
X63942857Y-159252380D01*
X62323809Y-142652380D02*
X62323809Y-141652380D01*
X63371428Y-142557142D02*
X63323809Y-142604761D01*
X63180952Y-142652380D01*
X63085714Y-142652380D01*
X62942857Y-142604761D01*
X62847619Y-142509523D01*
X62800000Y-142414285D01*
X62752380Y-142223809D01*
X62752380Y-142080952D01*
X62800000Y-141890476D01*
X62847619Y-141795238D01*
X62942857Y-141700000D01*
X63085714Y-141652380D01*
X63180952Y-141652380D01*
X63323809Y-141700000D01*
X63371428Y-141747619D01*
X64228571Y-141652380D02*
X64038095Y-141652380D01*
X63942857Y-141700000D01*
X63895238Y-141747619D01*
X63800000Y-141890476D01*
X63752380Y-142080952D01*
X63752380Y-142461904D01*
X63800000Y-142557142D01*
X63847619Y-142604761D01*
X63942857Y-142652380D01*
X64133333Y-142652380D01*
X64228571Y-142604761D01*
X64276190Y-142557142D01*
X64323809Y-142461904D01*
X64323809Y-142223809D01*
X64276190Y-142128571D01*
X64228571Y-142080952D01*
X64133333Y-142033333D01*
X63942857Y-142033333D01*
X63847619Y-142080952D01*
X63800000Y-142128571D01*
X63752380Y-142223809D01*
X62223809Y-126810380D02*
X62223809Y-125810380D01*
X63271428Y-126715142D02*
X63223809Y-126762761D01*
X63080952Y-126810380D01*
X62985714Y-126810380D01*
X62842857Y-126762761D01*
X62747619Y-126667523D01*
X62700000Y-126572285D01*
X62652380Y-126381809D01*
X62652380Y-126238952D01*
X62700000Y-126048476D01*
X62747619Y-125953238D01*
X62842857Y-125858000D01*
X62985714Y-125810380D01*
X63080952Y-125810380D01*
X63223809Y-125858000D01*
X63271428Y-125905619D01*
X64176190Y-125810380D02*
X63700000Y-125810380D01*
X63652380Y-126286571D01*
X63700000Y-126238952D01*
X63795238Y-126191333D01*
X64033333Y-126191333D01*
X64128571Y-126238952D01*
X64176190Y-126286571D01*
X64223809Y-126381809D01*
X64223809Y-126619904D01*
X64176190Y-126715142D01*
X64128571Y-126762761D01*
X64033333Y-126810380D01*
X63795238Y-126810380D01*
X63700000Y-126762761D01*
X63652380Y-126715142D01*
X45761904Y-117052380D02*
X45761904Y-116052380D01*
X46000000Y-116052380D01*
X46142857Y-116100000D01*
X46238095Y-116195238D01*
X46285714Y-116290476D01*
X46333333Y-116480952D01*
X46333333Y-116623809D01*
X46285714Y-116814285D01*
X46238095Y-116909523D01*
X46142857Y-117004761D01*
X46000000Y-117052380D01*
X45761904Y-117052380D01*
X46904761Y-116480952D02*
X46809523Y-116433333D01*
X46761904Y-116385714D01*
X46714285Y-116290476D01*
X46714285Y-116242857D01*
X46761904Y-116147619D01*
X46809523Y-116100000D01*
X46904761Y-116052380D01*
X47095238Y-116052380D01*
X47190476Y-116100000D01*
X47238095Y-116147619D01*
X47285714Y-116242857D01*
X47285714Y-116290476D01*
X47238095Y-116385714D01*
X47190476Y-116433333D01*
X47095238Y-116480952D01*
X46904761Y-116480952D01*
X46809523Y-116528571D01*
X46761904Y-116576190D01*
X46714285Y-116671428D01*
X46714285Y-116861904D01*
X46761904Y-116957142D01*
X46809523Y-117004761D01*
X46904761Y-117052380D01*
X47095238Y-117052380D01*
X47190476Y-117004761D01*
X47238095Y-116957142D01*
X47285714Y-116861904D01*
X47285714Y-116671428D01*
X47238095Y-116576190D01*
X47190476Y-116528571D01*
X47095238Y-116480952D01*
X36166666Y-116428571D02*
X35833333Y-116428571D01*
X35833333Y-116952380D02*
X35833333Y-115952380D01*
X36309523Y-115952380D01*
X37214285Y-116952380D02*
X36642857Y-116952380D01*
X36928571Y-116952380D02*
X36928571Y-115952380D01*
X36833333Y-116095238D01*
X36738095Y-116190476D01*
X36642857Y-116238095D01*
X90147619Y-131695238D02*
X90100000Y-131790476D01*
X90004761Y-131885714D01*
X89861904Y-132028571D01*
X89814285Y-132123809D01*
X89814285Y-132219047D01*
X90052380Y-132171428D02*
X90004761Y-132266666D01*
X89909523Y-132361904D01*
X89719047Y-132409523D01*
X89385714Y-132409523D01*
X89195238Y-132361904D01*
X89100000Y-132266666D01*
X89052380Y-132171428D01*
X89052380Y-131980952D01*
X89100000Y-131885714D01*
X89195238Y-131790476D01*
X89385714Y-131742857D01*
X89719047Y-131742857D01*
X89909523Y-131790476D01*
X90004761Y-131885714D01*
X90052380Y-131980952D01*
X90052380Y-132171428D01*
X89052380Y-131409523D02*
X89052380Y-130790476D01*
X89433333Y-131123809D01*
X89433333Y-130980952D01*
X89480952Y-130885714D01*
X89528571Y-130838095D01*
X89623809Y-130790476D01*
X89861904Y-130790476D01*
X89957142Y-130838095D01*
X90004761Y-130885714D01*
X90052380Y-130980952D01*
X90052380Y-131266666D01*
X90004761Y-131361904D01*
X89957142Y-131409523D01*
X31228571Y-136933333D02*
X31228571Y-137266666D01*
X31752380Y-137266666D02*
X30752380Y-137266666D01*
X30752380Y-136790476D01*
X30847619Y-136457142D02*
X30800000Y-136409523D01*
X30752380Y-136314285D01*
X30752380Y-136076190D01*
X30800000Y-135980952D01*
X30847619Y-135933333D01*
X30942857Y-135885714D01*
X31038095Y-135885714D01*
X31180952Y-135933333D01*
X31752380Y-136504761D01*
X31752380Y-135885714D01*
X65685714Y-173952380D02*
X65685714Y-172952380D01*
X65923809Y-172952380D01*
X66066666Y-173000000D01*
X66161904Y-173095238D01*
X66209523Y-173190476D01*
X66257142Y-173380952D01*
X66257142Y-173523809D01*
X66209523Y-173714285D01*
X66161904Y-173809523D01*
X66066666Y-173904761D01*
X65923809Y-173952380D01*
X65685714Y-173952380D01*
X66685714Y-173428571D02*
X67019047Y-173428571D01*
X67161904Y-173952380D02*
X66685714Y-173952380D01*
X66685714Y-172952380D01*
X67161904Y-172952380D01*
X67923809Y-173428571D02*
X68066666Y-173476190D01*
X68114285Y-173523809D01*
X68161904Y-173619047D01*
X68161904Y-173761904D01*
X68114285Y-173857142D01*
X68066666Y-173904761D01*
X67971428Y-173952380D01*
X67590476Y-173952380D01*
X67590476Y-172952380D01*
X67923809Y-172952380D01*
X68019047Y-173000000D01*
X68066666Y-173047619D01*
X68114285Y-173142857D01*
X68114285Y-173238095D01*
X68066666Y-173333333D01*
X68019047Y-173380952D01*
X67923809Y-173428571D01*
X67590476Y-173428571D01*
X68590476Y-172952380D02*
X68590476Y-173761904D01*
X68638095Y-173857142D01*
X68685714Y-173904761D01*
X68780952Y-173952380D01*
X68971428Y-173952380D01*
X69066666Y-173904761D01*
X69114285Y-173857142D01*
X69161904Y-173761904D01*
X69161904Y-172952380D01*
X70161904Y-173000000D02*
X70066666Y-172952380D01*
X69923809Y-172952380D01*
X69780952Y-173000000D01*
X69685714Y-173095238D01*
X69638095Y-173190476D01*
X69590476Y-173380952D01*
X69590476Y-173523809D01*
X69638095Y-173714285D01*
X69685714Y-173809523D01*
X69780952Y-173904761D01*
X69923809Y-173952380D01*
X70019047Y-173952380D01*
X70161904Y-173904761D01*
X70209523Y-173857142D01*
X70209523Y-173523809D01*
X70019047Y-173523809D01*
X71161904Y-173952380D02*
X70590476Y-173952380D01*
X70876190Y-173952380D02*
X70876190Y-172952380D01*
X70780952Y-173095238D01*
X70685714Y-173190476D01*
X70590476Y-173238095D01*
M02*
