G04 #@! TF.GenerationSoftware,KiCad,Pcbnew,5.1.6*
G04 #@! TF.CreationDate,2020-06-20T19:13:06+02:00*
G04 #@! TF.ProjectId,fluepdot,666c7565-7064-46f7-942e-6b696361645f,rev?*
G04 #@! TF.SameCoordinates,Original*
G04 #@! TF.FileFunction,Paste,Top*
G04 #@! TF.FilePolarity,Positive*
%FSLAX46Y46*%
G04 Gerber Fmt 4.6, Leading zero omitted, Abs format (unit mm)*
G04 Created by KiCad (PCBNEW 5.1.6) date 2020-06-20 19:13:06*
%MOMM*%
%LPD*%
G01*
G04 APERTURE LIST*
%ADD10R,2.500000X1.800000*%
%ADD11R,3.500000X2.200000*%
%ADD12R,0.500000X0.800000*%
%ADD13R,0.400000X0.800000*%
%ADD14R,0.900000X0.800000*%
%ADD15R,1.100000X1.100000*%
%ADD16R,0.650000X0.400000*%
%ADD17R,1.000000X0.750000*%
%ADD18R,0.800000X0.500000*%
%ADD19R,0.800000X0.400000*%
%ADD20R,2.000000X0.900000*%
%ADD21R,0.900000X2.000000*%
%ADD22R,5.000000X5.000000*%
%ADD23R,2.000000X0.600000*%
%ADD24R,1.500000X0.600000*%
G04 APERTURE END LIST*
D10*
X36900000Y-133800000D03*
X40900000Y-133800000D03*
D11*
X46300000Y-122150000D03*
X46300000Y-128050000D03*
D12*
X70000000Y-143100000D03*
D13*
X71600000Y-143100000D03*
X70800000Y-143100000D03*
D12*
X72400000Y-143100000D03*
D13*
X70800000Y-141300000D03*
D12*
X70000000Y-141300000D03*
D13*
X71600000Y-141300000D03*
D12*
X72400000Y-141300000D03*
G36*
G01*
X40400000Y-127545000D02*
X40400000Y-127245000D01*
G75*
G02*
X40550000Y-127095000I150000J0D01*
G01*
X42200000Y-127095000D01*
G75*
G02*
X42350000Y-127245000I0J-150000D01*
G01*
X42350000Y-127545000D01*
G75*
G02*
X42200000Y-127695000I-150000J0D01*
G01*
X40550000Y-127695000D01*
G75*
G02*
X40400000Y-127545000I0J150000D01*
G01*
G37*
G36*
G01*
X40400000Y-128815000D02*
X40400000Y-128515000D01*
G75*
G02*
X40550000Y-128365000I150000J0D01*
G01*
X42200000Y-128365000D01*
G75*
G02*
X42350000Y-128515000I0J-150000D01*
G01*
X42350000Y-128815000D01*
G75*
G02*
X42200000Y-128965000I-150000J0D01*
G01*
X40550000Y-128965000D01*
G75*
G02*
X40400000Y-128815000I0J150000D01*
G01*
G37*
G36*
G01*
X40400000Y-130085000D02*
X40400000Y-129785000D01*
G75*
G02*
X40550000Y-129635000I150000J0D01*
G01*
X42200000Y-129635000D01*
G75*
G02*
X42350000Y-129785000I0J-150000D01*
G01*
X42350000Y-130085000D01*
G75*
G02*
X42200000Y-130235000I-150000J0D01*
G01*
X40550000Y-130235000D01*
G75*
G02*
X40400000Y-130085000I0J150000D01*
G01*
G37*
G36*
G01*
X40400000Y-131355000D02*
X40400000Y-131055000D01*
G75*
G02*
X40550000Y-130905000I150000J0D01*
G01*
X42200000Y-130905000D01*
G75*
G02*
X42350000Y-131055000I0J-150000D01*
G01*
X42350000Y-131355000D01*
G75*
G02*
X42200000Y-131505000I-150000J0D01*
G01*
X40550000Y-131505000D01*
G75*
G02*
X40400000Y-131355000I0J150000D01*
G01*
G37*
G36*
G01*
X35450000Y-131355000D02*
X35450000Y-131055000D01*
G75*
G02*
X35600000Y-130905000I150000J0D01*
G01*
X37250000Y-130905000D01*
G75*
G02*
X37400000Y-131055000I0J-150000D01*
G01*
X37400000Y-131355000D01*
G75*
G02*
X37250000Y-131505000I-150000J0D01*
G01*
X35600000Y-131505000D01*
G75*
G02*
X35450000Y-131355000I0J150000D01*
G01*
G37*
G36*
G01*
X35450000Y-130085000D02*
X35450000Y-129785000D01*
G75*
G02*
X35600000Y-129635000I150000J0D01*
G01*
X37250000Y-129635000D01*
G75*
G02*
X37400000Y-129785000I0J-150000D01*
G01*
X37400000Y-130085000D01*
G75*
G02*
X37250000Y-130235000I-150000J0D01*
G01*
X35600000Y-130235000D01*
G75*
G02*
X35450000Y-130085000I0J150000D01*
G01*
G37*
G36*
G01*
X35450000Y-128815000D02*
X35450000Y-128515000D01*
G75*
G02*
X35600000Y-128365000I150000J0D01*
G01*
X37250000Y-128365000D01*
G75*
G02*
X37400000Y-128515000I0J-150000D01*
G01*
X37400000Y-128815000D01*
G75*
G02*
X37250000Y-128965000I-150000J0D01*
G01*
X35600000Y-128965000D01*
G75*
G02*
X35450000Y-128815000I0J150000D01*
G01*
G37*
G36*
G01*
X35450000Y-127545000D02*
X35450000Y-127245000D01*
G75*
G02*
X35600000Y-127095000I150000J0D01*
G01*
X37250000Y-127095000D01*
G75*
G02*
X37400000Y-127245000I0J-150000D01*
G01*
X37400000Y-127545000D01*
G75*
G02*
X37250000Y-127695000I-150000J0D01*
G01*
X35600000Y-127695000D01*
G75*
G02*
X35450000Y-127545000I0J150000D01*
G01*
G37*
G36*
G01*
X67525000Y-161570000D02*
X67525000Y-161270000D01*
G75*
G02*
X67675000Y-161120000I150000J0D01*
G01*
X69425000Y-161120000D01*
G75*
G02*
X69575000Y-161270000I0J-150000D01*
G01*
X69575000Y-161570000D01*
G75*
G02*
X69425000Y-161720000I-150000J0D01*
G01*
X67675000Y-161720000D01*
G75*
G02*
X67525000Y-161570000I0J150000D01*
G01*
G37*
G36*
G01*
X67525000Y-162840000D02*
X67525000Y-162540000D01*
G75*
G02*
X67675000Y-162390000I150000J0D01*
G01*
X69425000Y-162390000D01*
G75*
G02*
X69575000Y-162540000I0J-150000D01*
G01*
X69575000Y-162840000D01*
G75*
G02*
X69425000Y-162990000I-150000J0D01*
G01*
X67675000Y-162990000D01*
G75*
G02*
X67525000Y-162840000I0J150000D01*
G01*
G37*
G36*
G01*
X67525000Y-164110000D02*
X67525000Y-163810000D01*
G75*
G02*
X67675000Y-163660000I150000J0D01*
G01*
X69425000Y-163660000D01*
G75*
G02*
X69575000Y-163810000I0J-150000D01*
G01*
X69575000Y-164110000D01*
G75*
G02*
X69425000Y-164260000I-150000J0D01*
G01*
X67675000Y-164260000D01*
G75*
G02*
X67525000Y-164110000I0J150000D01*
G01*
G37*
G36*
G01*
X67525000Y-165380000D02*
X67525000Y-165080000D01*
G75*
G02*
X67675000Y-164930000I150000J0D01*
G01*
X69425000Y-164930000D01*
G75*
G02*
X69575000Y-165080000I0J-150000D01*
G01*
X69575000Y-165380000D01*
G75*
G02*
X69425000Y-165530000I-150000J0D01*
G01*
X67675000Y-165530000D01*
G75*
G02*
X67525000Y-165380000I0J150000D01*
G01*
G37*
G36*
G01*
X67525000Y-166650000D02*
X67525000Y-166350000D01*
G75*
G02*
X67675000Y-166200000I150000J0D01*
G01*
X69425000Y-166200000D01*
G75*
G02*
X69575000Y-166350000I0J-150000D01*
G01*
X69575000Y-166650000D01*
G75*
G02*
X69425000Y-166800000I-150000J0D01*
G01*
X67675000Y-166800000D01*
G75*
G02*
X67525000Y-166650000I0J150000D01*
G01*
G37*
G36*
G01*
X67525000Y-167920000D02*
X67525000Y-167620000D01*
G75*
G02*
X67675000Y-167470000I150000J0D01*
G01*
X69425000Y-167470000D01*
G75*
G02*
X69575000Y-167620000I0J-150000D01*
G01*
X69575000Y-167920000D01*
G75*
G02*
X69425000Y-168070000I-150000J0D01*
G01*
X67675000Y-168070000D01*
G75*
G02*
X67525000Y-167920000I0J150000D01*
G01*
G37*
G36*
G01*
X67525000Y-169190000D02*
X67525000Y-168890000D01*
G75*
G02*
X67675000Y-168740000I150000J0D01*
G01*
X69425000Y-168740000D01*
G75*
G02*
X69575000Y-168890000I0J-150000D01*
G01*
X69575000Y-169190000D01*
G75*
G02*
X69425000Y-169340000I-150000J0D01*
G01*
X67675000Y-169340000D01*
G75*
G02*
X67525000Y-169190000I0J150000D01*
G01*
G37*
G36*
G01*
X67525000Y-170460000D02*
X67525000Y-170160000D01*
G75*
G02*
X67675000Y-170010000I150000J0D01*
G01*
X69425000Y-170010000D01*
G75*
G02*
X69575000Y-170160000I0J-150000D01*
G01*
X69575000Y-170460000D01*
G75*
G02*
X69425000Y-170610000I-150000J0D01*
G01*
X67675000Y-170610000D01*
G75*
G02*
X67525000Y-170460000I0J150000D01*
G01*
G37*
G36*
G01*
X67525000Y-171730000D02*
X67525000Y-171430000D01*
G75*
G02*
X67675000Y-171280000I150000J0D01*
G01*
X69425000Y-171280000D01*
G75*
G02*
X69575000Y-171430000I0J-150000D01*
G01*
X69575000Y-171730000D01*
G75*
G02*
X69425000Y-171880000I-150000J0D01*
G01*
X67675000Y-171880000D01*
G75*
G02*
X67525000Y-171730000I0J150000D01*
G01*
G37*
G36*
G01*
X76825000Y-171730000D02*
X76825000Y-171430000D01*
G75*
G02*
X76975000Y-171280000I150000J0D01*
G01*
X78725000Y-171280000D01*
G75*
G02*
X78875000Y-171430000I0J-150000D01*
G01*
X78875000Y-171730000D01*
G75*
G02*
X78725000Y-171880000I-150000J0D01*
G01*
X76975000Y-171880000D01*
G75*
G02*
X76825000Y-171730000I0J150000D01*
G01*
G37*
G36*
G01*
X76825000Y-170460000D02*
X76825000Y-170160000D01*
G75*
G02*
X76975000Y-170010000I150000J0D01*
G01*
X78725000Y-170010000D01*
G75*
G02*
X78875000Y-170160000I0J-150000D01*
G01*
X78875000Y-170460000D01*
G75*
G02*
X78725000Y-170610000I-150000J0D01*
G01*
X76975000Y-170610000D01*
G75*
G02*
X76825000Y-170460000I0J150000D01*
G01*
G37*
G36*
G01*
X76825000Y-169190000D02*
X76825000Y-168890000D01*
G75*
G02*
X76975000Y-168740000I150000J0D01*
G01*
X78725000Y-168740000D01*
G75*
G02*
X78875000Y-168890000I0J-150000D01*
G01*
X78875000Y-169190000D01*
G75*
G02*
X78725000Y-169340000I-150000J0D01*
G01*
X76975000Y-169340000D01*
G75*
G02*
X76825000Y-169190000I0J150000D01*
G01*
G37*
G36*
G01*
X76825000Y-167920000D02*
X76825000Y-167620000D01*
G75*
G02*
X76975000Y-167470000I150000J0D01*
G01*
X78725000Y-167470000D01*
G75*
G02*
X78875000Y-167620000I0J-150000D01*
G01*
X78875000Y-167920000D01*
G75*
G02*
X78725000Y-168070000I-150000J0D01*
G01*
X76975000Y-168070000D01*
G75*
G02*
X76825000Y-167920000I0J150000D01*
G01*
G37*
G36*
G01*
X76825000Y-166650000D02*
X76825000Y-166350000D01*
G75*
G02*
X76975000Y-166200000I150000J0D01*
G01*
X78725000Y-166200000D01*
G75*
G02*
X78875000Y-166350000I0J-150000D01*
G01*
X78875000Y-166650000D01*
G75*
G02*
X78725000Y-166800000I-150000J0D01*
G01*
X76975000Y-166800000D01*
G75*
G02*
X76825000Y-166650000I0J150000D01*
G01*
G37*
G36*
G01*
X76825000Y-165380000D02*
X76825000Y-165080000D01*
G75*
G02*
X76975000Y-164930000I150000J0D01*
G01*
X78725000Y-164930000D01*
G75*
G02*
X78875000Y-165080000I0J-150000D01*
G01*
X78875000Y-165380000D01*
G75*
G02*
X78725000Y-165530000I-150000J0D01*
G01*
X76975000Y-165530000D01*
G75*
G02*
X76825000Y-165380000I0J150000D01*
G01*
G37*
G36*
G01*
X76825000Y-164110000D02*
X76825000Y-163810000D01*
G75*
G02*
X76975000Y-163660000I150000J0D01*
G01*
X78725000Y-163660000D01*
G75*
G02*
X78875000Y-163810000I0J-150000D01*
G01*
X78875000Y-164110000D01*
G75*
G02*
X78725000Y-164260000I-150000J0D01*
G01*
X76975000Y-164260000D01*
G75*
G02*
X76825000Y-164110000I0J150000D01*
G01*
G37*
G36*
G01*
X76825000Y-162840000D02*
X76825000Y-162540000D01*
G75*
G02*
X76975000Y-162390000I150000J0D01*
G01*
X78725000Y-162390000D01*
G75*
G02*
X78875000Y-162540000I0J-150000D01*
G01*
X78875000Y-162840000D01*
G75*
G02*
X78725000Y-162990000I-150000J0D01*
G01*
X76975000Y-162990000D01*
G75*
G02*
X76825000Y-162840000I0J150000D01*
G01*
G37*
G36*
G01*
X76825000Y-161570000D02*
X76825000Y-161270000D01*
G75*
G02*
X76975000Y-161120000I150000J0D01*
G01*
X78725000Y-161120000D01*
G75*
G02*
X78875000Y-161270000I0J-150000D01*
G01*
X78875000Y-161570000D01*
G75*
G02*
X78725000Y-161720000I-150000J0D01*
G01*
X76975000Y-161720000D01*
G75*
G02*
X76825000Y-161570000I0J150000D01*
G01*
G37*
G36*
G01*
X67525000Y-145070000D02*
X67525000Y-144770000D01*
G75*
G02*
X67675000Y-144620000I150000J0D01*
G01*
X69425000Y-144620000D01*
G75*
G02*
X69575000Y-144770000I0J-150000D01*
G01*
X69575000Y-145070000D01*
G75*
G02*
X69425000Y-145220000I-150000J0D01*
G01*
X67675000Y-145220000D01*
G75*
G02*
X67525000Y-145070000I0J150000D01*
G01*
G37*
G36*
G01*
X67525000Y-146340000D02*
X67525000Y-146040000D01*
G75*
G02*
X67675000Y-145890000I150000J0D01*
G01*
X69425000Y-145890000D01*
G75*
G02*
X69575000Y-146040000I0J-150000D01*
G01*
X69575000Y-146340000D01*
G75*
G02*
X69425000Y-146490000I-150000J0D01*
G01*
X67675000Y-146490000D01*
G75*
G02*
X67525000Y-146340000I0J150000D01*
G01*
G37*
G36*
G01*
X67525000Y-147610000D02*
X67525000Y-147310000D01*
G75*
G02*
X67675000Y-147160000I150000J0D01*
G01*
X69425000Y-147160000D01*
G75*
G02*
X69575000Y-147310000I0J-150000D01*
G01*
X69575000Y-147610000D01*
G75*
G02*
X69425000Y-147760000I-150000J0D01*
G01*
X67675000Y-147760000D01*
G75*
G02*
X67525000Y-147610000I0J150000D01*
G01*
G37*
G36*
G01*
X67525000Y-148880000D02*
X67525000Y-148580000D01*
G75*
G02*
X67675000Y-148430000I150000J0D01*
G01*
X69425000Y-148430000D01*
G75*
G02*
X69575000Y-148580000I0J-150000D01*
G01*
X69575000Y-148880000D01*
G75*
G02*
X69425000Y-149030000I-150000J0D01*
G01*
X67675000Y-149030000D01*
G75*
G02*
X67525000Y-148880000I0J150000D01*
G01*
G37*
G36*
G01*
X67525000Y-150150000D02*
X67525000Y-149850000D01*
G75*
G02*
X67675000Y-149700000I150000J0D01*
G01*
X69425000Y-149700000D01*
G75*
G02*
X69575000Y-149850000I0J-150000D01*
G01*
X69575000Y-150150000D01*
G75*
G02*
X69425000Y-150300000I-150000J0D01*
G01*
X67675000Y-150300000D01*
G75*
G02*
X67525000Y-150150000I0J150000D01*
G01*
G37*
G36*
G01*
X67525000Y-151420000D02*
X67525000Y-151120000D01*
G75*
G02*
X67675000Y-150970000I150000J0D01*
G01*
X69425000Y-150970000D01*
G75*
G02*
X69575000Y-151120000I0J-150000D01*
G01*
X69575000Y-151420000D01*
G75*
G02*
X69425000Y-151570000I-150000J0D01*
G01*
X67675000Y-151570000D01*
G75*
G02*
X67525000Y-151420000I0J150000D01*
G01*
G37*
G36*
G01*
X67525000Y-152690000D02*
X67525000Y-152390000D01*
G75*
G02*
X67675000Y-152240000I150000J0D01*
G01*
X69425000Y-152240000D01*
G75*
G02*
X69575000Y-152390000I0J-150000D01*
G01*
X69575000Y-152690000D01*
G75*
G02*
X69425000Y-152840000I-150000J0D01*
G01*
X67675000Y-152840000D01*
G75*
G02*
X67525000Y-152690000I0J150000D01*
G01*
G37*
G36*
G01*
X67525000Y-153960000D02*
X67525000Y-153660000D01*
G75*
G02*
X67675000Y-153510000I150000J0D01*
G01*
X69425000Y-153510000D01*
G75*
G02*
X69575000Y-153660000I0J-150000D01*
G01*
X69575000Y-153960000D01*
G75*
G02*
X69425000Y-154110000I-150000J0D01*
G01*
X67675000Y-154110000D01*
G75*
G02*
X67525000Y-153960000I0J150000D01*
G01*
G37*
G36*
G01*
X67525000Y-155230000D02*
X67525000Y-154930000D01*
G75*
G02*
X67675000Y-154780000I150000J0D01*
G01*
X69425000Y-154780000D01*
G75*
G02*
X69575000Y-154930000I0J-150000D01*
G01*
X69575000Y-155230000D01*
G75*
G02*
X69425000Y-155380000I-150000J0D01*
G01*
X67675000Y-155380000D01*
G75*
G02*
X67525000Y-155230000I0J150000D01*
G01*
G37*
G36*
G01*
X76825000Y-155230000D02*
X76825000Y-154930000D01*
G75*
G02*
X76975000Y-154780000I150000J0D01*
G01*
X78725000Y-154780000D01*
G75*
G02*
X78875000Y-154930000I0J-150000D01*
G01*
X78875000Y-155230000D01*
G75*
G02*
X78725000Y-155380000I-150000J0D01*
G01*
X76975000Y-155380000D01*
G75*
G02*
X76825000Y-155230000I0J150000D01*
G01*
G37*
G36*
G01*
X76825000Y-153960000D02*
X76825000Y-153660000D01*
G75*
G02*
X76975000Y-153510000I150000J0D01*
G01*
X78725000Y-153510000D01*
G75*
G02*
X78875000Y-153660000I0J-150000D01*
G01*
X78875000Y-153960000D01*
G75*
G02*
X78725000Y-154110000I-150000J0D01*
G01*
X76975000Y-154110000D01*
G75*
G02*
X76825000Y-153960000I0J150000D01*
G01*
G37*
G36*
G01*
X76825000Y-152690000D02*
X76825000Y-152390000D01*
G75*
G02*
X76975000Y-152240000I150000J0D01*
G01*
X78725000Y-152240000D01*
G75*
G02*
X78875000Y-152390000I0J-150000D01*
G01*
X78875000Y-152690000D01*
G75*
G02*
X78725000Y-152840000I-150000J0D01*
G01*
X76975000Y-152840000D01*
G75*
G02*
X76825000Y-152690000I0J150000D01*
G01*
G37*
G36*
G01*
X76825000Y-151420000D02*
X76825000Y-151120000D01*
G75*
G02*
X76975000Y-150970000I150000J0D01*
G01*
X78725000Y-150970000D01*
G75*
G02*
X78875000Y-151120000I0J-150000D01*
G01*
X78875000Y-151420000D01*
G75*
G02*
X78725000Y-151570000I-150000J0D01*
G01*
X76975000Y-151570000D01*
G75*
G02*
X76825000Y-151420000I0J150000D01*
G01*
G37*
G36*
G01*
X76825000Y-150150000D02*
X76825000Y-149850000D01*
G75*
G02*
X76975000Y-149700000I150000J0D01*
G01*
X78725000Y-149700000D01*
G75*
G02*
X78875000Y-149850000I0J-150000D01*
G01*
X78875000Y-150150000D01*
G75*
G02*
X78725000Y-150300000I-150000J0D01*
G01*
X76975000Y-150300000D01*
G75*
G02*
X76825000Y-150150000I0J150000D01*
G01*
G37*
G36*
G01*
X76825000Y-148880000D02*
X76825000Y-148580000D01*
G75*
G02*
X76975000Y-148430000I150000J0D01*
G01*
X78725000Y-148430000D01*
G75*
G02*
X78875000Y-148580000I0J-150000D01*
G01*
X78875000Y-148880000D01*
G75*
G02*
X78725000Y-149030000I-150000J0D01*
G01*
X76975000Y-149030000D01*
G75*
G02*
X76825000Y-148880000I0J150000D01*
G01*
G37*
G36*
G01*
X76825000Y-147610000D02*
X76825000Y-147310000D01*
G75*
G02*
X76975000Y-147160000I150000J0D01*
G01*
X78725000Y-147160000D01*
G75*
G02*
X78875000Y-147310000I0J-150000D01*
G01*
X78875000Y-147610000D01*
G75*
G02*
X78725000Y-147760000I-150000J0D01*
G01*
X76975000Y-147760000D01*
G75*
G02*
X76825000Y-147610000I0J150000D01*
G01*
G37*
G36*
G01*
X76825000Y-146340000D02*
X76825000Y-146040000D01*
G75*
G02*
X76975000Y-145890000I150000J0D01*
G01*
X78725000Y-145890000D01*
G75*
G02*
X78875000Y-146040000I0J-150000D01*
G01*
X78875000Y-146340000D01*
G75*
G02*
X78725000Y-146490000I-150000J0D01*
G01*
X76975000Y-146490000D01*
G75*
G02*
X76825000Y-146340000I0J150000D01*
G01*
G37*
G36*
G01*
X76825000Y-145070000D02*
X76825000Y-144770000D01*
G75*
G02*
X76975000Y-144620000I150000J0D01*
G01*
X78725000Y-144620000D01*
G75*
G02*
X78875000Y-144770000I0J-150000D01*
G01*
X78875000Y-145070000D01*
G75*
G02*
X78725000Y-145220000I-150000J0D01*
G01*
X76975000Y-145220000D01*
G75*
G02*
X76825000Y-145070000I0J150000D01*
G01*
G37*
D14*
X86500000Y-143450000D03*
X84500000Y-144400000D03*
X84500000Y-142500000D03*
X86500000Y-160400000D03*
X84500000Y-161350000D03*
X84500000Y-159450000D03*
X83000000Y-143450000D03*
X81000000Y-144400000D03*
X81000000Y-142500000D03*
X83000000Y-160400000D03*
X81000000Y-161350000D03*
X81000000Y-159450000D03*
X86500000Y-147050000D03*
X84500000Y-148000000D03*
X84500000Y-146100000D03*
X86500000Y-163900000D03*
X84500000Y-164850000D03*
X84500000Y-162950000D03*
X83000000Y-147050000D03*
X81000000Y-148000000D03*
X81000000Y-146100000D03*
X83000000Y-163900000D03*
X81000000Y-164850000D03*
X81000000Y-162950000D03*
X83000000Y-150600000D03*
X81000000Y-151550000D03*
X81000000Y-149650000D03*
X86500000Y-167400000D03*
X84500000Y-168350000D03*
X84500000Y-166450000D03*
X86500000Y-150550000D03*
X84500000Y-151500000D03*
X84500000Y-149600000D03*
X83000000Y-167400000D03*
X81000000Y-168350000D03*
X81000000Y-166450000D03*
X83000000Y-154100000D03*
X81000000Y-155050000D03*
X81000000Y-153150000D03*
X86500000Y-170900000D03*
X84500000Y-171850000D03*
X84500000Y-169950000D03*
X86500000Y-154100000D03*
X84500000Y-155050000D03*
X84500000Y-153150000D03*
X83000000Y-170900000D03*
X81000000Y-171850000D03*
X81000000Y-169950000D03*
D15*
X89100000Y-136900000D03*
X89100000Y-139700000D03*
X91500000Y-155400000D03*
X91500000Y-158200000D03*
X91500000Y-136900000D03*
X91500000Y-139700000D03*
X89100000Y-155400000D03*
X89100000Y-158200000D03*
X91500000Y-141500000D03*
X91500000Y-144300000D03*
X91500000Y-160000000D03*
X91500000Y-162800000D03*
X89100000Y-141500000D03*
X89100000Y-144300000D03*
X89100000Y-160000000D03*
X89100000Y-162800000D03*
X91500000Y-146100000D03*
X91500000Y-148900000D03*
X91500000Y-164600000D03*
X91500000Y-167400000D03*
X89100000Y-146100000D03*
X89100000Y-148900000D03*
X89100000Y-164600000D03*
X89100000Y-167400000D03*
X91500000Y-150800000D03*
X91500000Y-153600000D03*
X89100000Y-169200000D03*
X89100000Y-172000000D03*
X89100000Y-150800000D03*
X89100000Y-153600000D03*
X91500000Y-169200000D03*
X91500000Y-172000000D03*
G36*
G01*
X36056250Y-157250000D02*
X35543750Y-157250000D01*
G75*
G02*
X35325000Y-157031250I0J218750D01*
G01*
X35325000Y-156593750D01*
G75*
G02*
X35543750Y-156375000I218750J0D01*
G01*
X36056250Y-156375000D01*
G75*
G02*
X36275000Y-156593750I0J-218750D01*
G01*
X36275000Y-157031250D01*
G75*
G02*
X36056250Y-157250000I-218750J0D01*
G01*
G37*
G36*
G01*
X36056250Y-158825000D02*
X35543750Y-158825000D01*
G75*
G02*
X35325000Y-158606250I0J218750D01*
G01*
X35325000Y-158168750D01*
G75*
G02*
X35543750Y-157950000I218750J0D01*
G01*
X36056250Y-157950000D01*
G75*
G02*
X36275000Y-158168750I0J-218750D01*
G01*
X36275000Y-158606250D01*
G75*
G02*
X36056250Y-158825000I-218750J0D01*
G01*
G37*
G36*
G01*
X37556250Y-157250000D02*
X37043750Y-157250000D01*
G75*
G02*
X36825000Y-157031250I0J218750D01*
G01*
X36825000Y-156593750D01*
G75*
G02*
X37043750Y-156375000I218750J0D01*
G01*
X37556250Y-156375000D01*
G75*
G02*
X37775000Y-156593750I0J-218750D01*
G01*
X37775000Y-157031250D01*
G75*
G02*
X37556250Y-157250000I-218750J0D01*
G01*
G37*
G36*
G01*
X37556250Y-158825000D02*
X37043750Y-158825000D01*
G75*
G02*
X36825000Y-158606250I0J218750D01*
G01*
X36825000Y-158168750D01*
G75*
G02*
X37043750Y-157950000I218750J0D01*
G01*
X37556250Y-157950000D01*
G75*
G02*
X37775000Y-158168750I0J-218750D01*
G01*
X37775000Y-158606250D01*
G75*
G02*
X37556250Y-158825000I-218750J0D01*
G01*
G37*
G36*
G01*
X38543750Y-157950000D02*
X39056250Y-157950000D01*
G75*
G02*
X39275000Y-158168750I0J-218750D01*
G01*
X39275000Y-158606250D01*
G75*
G02*
X39056250Y-158825000I-218750J0D01*
G01*
X38543750Y-158825000D01*
G75*
G02*
X38325000Y-158606250I0J218750D01*
G01*
X38325000Y-158168750D01*
G75*
G02*
X38543750Y-157950000I218750J0D01*
G01*
G37*
G36*
G01*
X38543750Y-156375000D02*
X39056250Y-156375000D01*
G75*
G02*
X39275000Y-156593750I0J-218750D01*
G01*
X39275000Y-157031250D01*
G75*
G02*
X39056250Y-157250000I-218750J0D01*
G01*
X38543750Y-157250000D01*
G75*
G02*
X38325000Y-157031250I0J218750D01*
G01*
X38325000Y-156593750D01*
G75*
G02*
X38543750Y-156375000I218750J0D01*
G01*
G37*
G36*
G01*
X32956250Y-169150000D02*
X32043750Y-169150000D01*
G75*
G02*
X31800000Y-168906250I0J243750D01*
G01*
X31800000Y-168418750D01*
G75*
G02*
X32043750Y-168175000I243750J0D01*
G01*
X32956250Y-168175000D01*
G75*
G02*
X33200000Y-168418750I0J-243750D01*
G01*
X33200000Y-168906250D01*
G75*
G02*
X32956250Y-169150000I-243750J0D01*
G01*
G37*
G36*
G01*
X32956250Y-171025000D02*
X32043750Y-171025000D01*
G75*
G02*
X31800000Y-170781250I0J243750D01*
G01*
X31800000Y-170293750D01*
G75*
G02*
X32043750Y-170050000I243750J0D01*
G01*
X32956250Y-170050000D01*
G75*
G02*
X33200000Y-170293750I0J-243750D01*
G01*
X33200000Y-170781250D01*
G75*
G02*
X32956250Y-171025000I-243750J0D01*
G01*
G37*
G36*
G01*
X32956250Y-165250000D02*
X32043750Y-165250000D01*
G75*
G02*
X31800000Y-165006250I0J243750D01*
G01*
X31800000Y-164518750D01*
G75*
G02*
X32043750Y-164275000I243750J0D01*
G01*
X32956250Y-164275000D01*
G75*
G02*
X33200000Y-164518750I0J-243750D01*
G01*
X33200000Y-165006250D01*
G75*
G02*
X32956250Y-165250000I-243750J0D01*
G01*
G37*
G36*
G01*
X32956250Y-167125000D02*
X32043750Y-167125000D01*
G75*
G02*
X31800000Y-166881250I0J243750D01*
G01*
X31800000Y-166393750D01*
G75*
G02*
X32043750Y-166150000I243750J0D01*
G01*
X32956250Y-166150000D01*
G75*
G02*
X33200000Y-166393750I0J-243750D01*
G01*
X33200000Y-166881250D01*
G75*
G02*
X32956250Y-167125000I-243750J0D01*
G01*
G37*
G36*
G01*
X32956250Y-161350000D02*
X32043750Y-161350000D01*
G75*
G02*
X31800000Y-161106250I0J243750D01*
G01*
X31800000Y-160618750D01*
G75*
G02*
X32043750Y-160375000I243750J0D01*
G01*
X32956250Y-160375000D01*
G75*
G02*
X33200000Y-160618750I0J-243750D01*
G01*
X33200000Y-161106250D01*
G75*
G02*
X32956250Y-161350000I-243750J0D01*
G01*
G37*
G36*
G01*
X32956250Y-163225000D02*
X32043750Y-163225000D01*
G75*
G02*
X31800000Y-162981250I0J243750D01*
G01*
X31800000Y-162493750D01*
G75*
G02*
X32043750Y-162250000I243750J0D01*
G01*
X32956250Y-162250000D01*
G75*
G02*
X33200000Y-162493750I0J-243750D01*
G01*
X33200000Y-162981250D01*
G75*
G02*
X32956250Y-163225000I-243750J0D01*
G01*
G37*
G36*
G01*
X51743750Y-126050000D02*
X52256250Y-126050000D01*
G75*
G02*
X52475000Y-126268750I0J-218750D01*
G01*
X52475000Y-126706250D01*
G75*
G02*
X52256250Y-126925000I-218750J0D01*
G01*
X51743750Y-126925000D01*
G75*
G02*
X51525000Y-126706250I0J218750D01*
G01*
X51525000Y-126268750D01*
G75*
G02*
X51743750Y-126050000I218750J0D01*
G01*
G37*
G36*
G01*
X51743750Y-124475000D02*
X52256250Y-124475000D01*
G75*
G02*
X52475000Y-124693750I0J-218750D01*
G01*
X52475000Y-125131250D01*
G75*
G02*
X52256250Y-125350000I-218750J0D01*
G01*
X51743750Y-125350000D01*
G75*
G02*
X51525000Y-125131250I0J218750D01*
G01*
X51525000Y-124693750D01*
G75*
G02*
X51743750Y-124475000I218750J0D01*
G01*
G37*
G36*
G01*
X47995000Y-145087500D02*
X47995000Y-144412500D01*
G75*
G02*
X48057500Y-144350000I62500J0D01*
G01*
X48182500Y-144350000D01*
G75*
G02*
X48245000Y-144412500I0J-62500D01*
G01*
X48245000Y-145087500D01*
G75*
G02*
X48182500Y-145150000I-62500J0D01*
G01*
X48057500Y-145150000D01*
G75*
G02*
X47995000Y-145087500I0J62500D01*
G01*
G37*
G36*
G01*
X48495000Y-145087500D02*
X48495000Y-144412500D01*
G75*
G02*
X48557500Y-144350000I62500J0D01*
G01*
X48682500Y-144350000D01*
G75*
G02*
X48745000Y-144412500I0J-62500D01*
G01*
X48745000Y-145087500D01*
G75*
G02*
X48682500Y-145150000I-62500J0D01*
G01*
X48557500Y-145150000D01*
G75*
G02*
X48495000Y-145087500I0J62500D01*
G01*
G37*
G36*
G01*
X48995000Y-145087500D02*
X48995000Y-144412500D01*
G75*
G02*
X49057500Y-144350000I62500J0D01*
G01*
X49182500Y-144350000D01*
G75*
G02*
X49245000Y-144412500I0J-62500D01*
G01*
X49245000Y-145087500D01*
G75*
G02*
X49182500Y-145150000I-62500J0D01*
G01*
X49057500Y-145150000D01*
G75*
G02*
X48995000Y-145087500I0J62500D01*
G01*
G37*
G36*
G01*
X49495000Y-145087500D02*
X49495000Y-144412500D01*
G75*
G02*
X49557500Y-144350000I62500J0D01*
G01*
X49682500Y-144350000D01*
G75*
G02*
X49745000Y-144412500I0J-62500D01*
G01*
X49745000Y-145087500D01*
G75*
G02*
X49682500Y-145150000I-62500J0D01*
G01*
X49557500Y-145150000D01*
G75*
G02*
X49495000Y-145087500I0J62500D01*
G01*
G37*
G36*
G01*
X49995000Y-145087500D02*
X49995000Y-144412500D01*
G75*
G02*
X50057500Y-144350000I62500J0D01*
G01*
X50182500Y-144350000D01*
G75*
G02*
X50245000Y-144412500I0J-62500D01*
G01*
X50245000Y-145087500D01*
G75*
G02*
X50182500Y-145150000I-62500J0D01*
G01*
X50057500Y-145150000D01*
G75*
G02*
X49995000Y-145087500I0J62500D01*
G01*
G37*
G36*
G01*
X50495000Y-145087500D02*
X50495000Y-144412500D01*
G75*
G02*
X50557500Y-144350000I62500J0D01*
G01*
X50682500Y-144350000D01*
G75*
G02*
X50745000Y-144412500I0J-62500D01*
G01*
X50745000Y-145087500D01*
G75*
G02*
X50682500Y-145150000I-62500J0D01*
G01*
X50557500Y-145150000D01*
G75*
G02*
X50495000Y-145087500I0J62500D01*
G01*
G37*
G36*
G01*
X50995000Y-145087500D02*
X50995000Y-144412500D01*
G75*
G02*
X51057500Y-144350000I62500J0D01*
G01*
X51182500Y-144350000D01*
G75*
G02*
X51245000Y-144412500I0J-62500D01*
G01*
X51245000Y-145087500D01*
G75*
G02*
X51182500Y-145150000I-62500J0D01*
G01*
X51057500Y-145150000D01*
G75*
G02*
X50995000Y-145087500I0J62500D01*
G01*
G37*
G36*
G01*
X51670000Y-145762500D02*
X51670000Y-145637500D01*
G75*
G02*
X51732500Y-145575000I62500J0D01*
G01*
X52407500Y-145575000D01*
G75*
G02*
X52470000Y-145637500I0J-62500D01*
G01*
X52470000Y-145762500D01*
G75*
G02*
X52407500Y-145825000I-62500J0D01*
G01*
X51732500Y-145825000D01*
G75*
G02*
X51670000Y-145762500I0J62500D01*
G01*
G37*
G36*
G01*
X51670000Y-146262500D02*
X51670000Y-146137500D01*
G75*
G02*
X51732500Y-146075000I62500J0D01*
G01*
X52407500Y-146075000D01*
G75*
G02*
X52470000Y-146137500I0J-62500D01*
G01*
X52470000Y-146262500D01*
G75*
G02*
X52407500Y-146325000I-62500J0D01*
G01*
X51732500Y-146325000D01*
G75*
G02*
X51670000Y-146262500I0J62500D01*
G01*
G37*
G36*
G01*
X51670000Y-146762500D02*
X51670000Y-146637500D01*
G75*
G02*
X51732500Y-146575000I62500J0D01*
G01*
X52407500Y-146575000D01*
G75*
G02*
X52470000Y-146637500I0J-62500D01*
G01*
X52470000Y-146762500D01*
G75*
G02*
X52407500Y-146825000I-62500J0D01*
G01*
X51732500Y-146825000D01*
G75*
G02*
X51670000Y-146762500I0J62500D01*
G01*
G37*
G36*
G01*
X51670000Y-147262500D02*
X51670000Y-147137500D01*
G75*
G02*
X51732500Y-147075000I62500J0D01*
G01*
X52407500Y-147075000D01*
G75*
G02*
X52470000Y-147137500I0J-62500D01*
G01*
X52470000Y-147262500D01*
G75*
G02*
X52407500Y-147325000I-62500J0D01*
G01*
X51732500Y-147325000D01*
G75*
G02*
X51670000Y-147262500I0J62500D01*
G01*
G37*
G36*
G01*
X51670000Y-147762500D02*
X51670000Y-147637500D01*
G75*
G02*
X51732500Y-147575000I62500J0D01*
G01*
X52407500Y-147575000D01*
G75*
G02*
X52470000Y-147637500I0J-62500D01*
G01*
X52470000Y-147762500D01*
G75*
G02*
X52407500Y-147825000I-62500J0D01*
G01*
X51732500Y-147825000D01*
G75*
G02*
X51670000Y-147762500I0J62500D01*
G01*
G37*
G36*
G01*
X51670000Y-148262500D02*
X51670000Y-148137500D01*
G75*
G02*
X51732500Y-148075000I62500J0D01*
G01*
X52407500Y-148075000D01*
G75*
G02*
X52470000Y-148137500I0J-62500D01*
G01*
X52470000Y-148262500D01*
G75*
G02*
X52407500Y-148325000I-62500J0D01*
G01*
X51732500Y-148325000D01*
G75*
G02*
X51670000Y-148262500I0J62500D01*
G01*
G37*
G36*
G01*
X51670000Y-148762500D02*
X51670000Y-148637500D01*
G75*
G02*
X51732500Y-148575000I62500J0D01*
G01*
X52407500Y-148575000D01*
G75*
G02*
X52470000Y-148637500I0J-62500D01*
G01*
X52470000Y-148762500D01*
G75*
G02*
X52407500Y-148825000I-62500J0D01*
G01*
X51732500Y-148825000D01*
G75*
G02*
X51670000Y-148762500I0J62500D01*
G01*
G37*
G36*
G01*
X50995000Y-149987500D02*
X50995000Y-149312500D01*
G75*
G02*
X51057500Y-149250000I62500J0D01*
G01*
X51182500Y-149250000D01*
G75*
G02*
X51245000Y-149312500I0J-62500D01*
G01*
X51245000Y-149987500D01*
G75*
G02*
X51182500Y-150050000I-62500J0D01*
G01*
X51057500Y-150050000D01*
G75*
G02*
X50995000Y-149987500I0J62500D01*
G01*
G37*
G36*
G01*
X50495000Y-149987500D02*
X50495000Y-149312500D01*
G75*
G02*
X50557500Y-149250000I62500J0D01*
G01*
X50682500Y-149250000D01*
G75*
G02*
X50745000Y-149312500I0J-62500D01*
G01*
X50745000Y-149987500D01*
G75*
G02*
X50682500Y-150050000I-62500J0D01*
G01*
X50557500Y-150050000D01*
G75*
G02*
X50495000Y-149987500I0J62500D01*
G01*
G37*
G36*
G01*
X49995000Y-149987500D02*
X49995000Y-149312500D01*
G75*
G02*
X50057500Y-149250000I62500J0D01*
G01*
X50182500Y-149250000D01*
G75*
G02*
X50245000Y-149312500I0J-62500D01*
G01*
X50245000Y-149987500D01*
G75*
G02*
X50182500Y-150050000I-62500J0D01*
G01*
X50057500Y-150050000D01*
G75*
G02*
X49995000Y-149987500I0J62500D01*
G01*
G37*
G36*
G01*
X49495000Y-149987500D02*
X49495000Y-149312500D01*
G75*
G02*
X49557500Y-149250000I62500J0D01*
G01*
X49682500Y-149250000D01*
G75*
G02*
X49745000Y-149312500I0J-62500D01*
G01*
X49745000Y-149987500D01*
G75*
G02*
X49682500Y-150050000I-62500J0D01*
G01*
X49557500Y-150050000D01*
G75*
G02*
X49495000Y-149987500I0J62500D01*
G01*
G37*
G36*
G01*
X48995000Y-149987500D02*
X48995000Y-149312500D01*
G75*
G02*
X49057500Y-149250000I62500J0D01*
G01*
X49182500Y-149250000D01*
G75*
G02*
X49245000Y-149312500I0J-62500D01*
G01*
X49245000Y-149987500D01*
G75*
G02*
X49182500Y-150050000I-62500J0D01*
G01*
X49057500Y-150050000D01*
G75*
G02*
X48995000Y-149987500I0J62500D01*
G01*
G37*
G36*
G01*
X48495000Y-149987500D02*
X48495000Y-149312500D01*
G75*
G02*
X48557500Y-149250000I62500J0D01*
G01*
X48682500Y-149250000D01*
G75*
G02*
X48745000Y-149312500I0J-62500D01*
G01*
X48745000Y-149987500D01*
G75*
G02*
X48682500Y-150050000I-62500J0D01*
G01*
X48557500Y-150050000D01*
G75*
G02*
X48495000Y-149987500I0J62500D01*
G01*
G37*
G36*
G01*
X47995000Y-149987500D02*
X47995000Y-149312500D01*
G75*
G02*
X48057500Y-149250000I62500J0D01*
G01*
X48182500Y-149250000D01*
G75*
G02*
X48245000Y-149312500I0J-62500D01*
G01*
X48245000Y-149987500D01*
G75*
G02*
X48182500Y-150050000I-62500J0D01*
G01*
X48057500Y-150050000D01*
G75*
G02*
X47995000Y-149987500I0J62500D01*
G01*
G37*
G36*
G01*
X46770000Y-148762500D02*
X46770000Y-148637500D01*
G75*
G02*
X46832500Y-148575000I62500J0D01*
G01*
X47507500Y-148575000D01*
G75*
G02*
X47570000Y-148637500I0J-62500D01*
G01*
X47570000Y-148762500D01*
G75*
G02*
X47507500Y-148825000I-62500J0D01*
G01*
X46832500Y-148825000D01*
G75*
G02*
X46770000Y-148762500I0J62500D01*
G01*
G37*
G36*
G01*
X46770000Y-148262500D02*
X46770000Y-148137500D01*
G75*
G02*
X46832500Y-148075000I62500J0D01*
G01*
X47507500Y-148075000D01*
G75*
G02*
X47570000Y-148137500I0J-62500D01*
G01*
X47570000Y-148262500D01*
G75*
G02*
X47507500Y-148325000I-62500J0D01*
G01*
X46832500Y-148325000D01*
G75*
G02*
X46770000Y-148262500I0J62500D01*
G01*
G37*
G36*
G01*
X46770000Y-147762500D02*
X46770000Y-147637500D01*
G75*
G02*
X46832500Y-147575000I62500J0D01*
G01*
X47507500Y-147575000D01*
G75*
G02*
X47570000Y-147637500I0J-62500D01*
G01*
X47570000Y-147762500D01*
G75*
G02*
X47507500Y-147825000I-62500J0D01*
G01*
X46832500Y-147825000D01*
G75*
G02*
X46770000Y-147762500I0J62500D01*
G01*
G37*
G36*
G01*
X46770000Y-147262500D02*
X46770000Y-147137500D01*
G75*
G02*
X46832500Y-147075000I62500J0D01*
G01*
X47507500Y-147075000D01*
G75*
G02*
X47570000Y-147137500I0J-62500D01*
G01*
X47570000Y-147262500D01*
G75*
G02*
X47507500Y-147325000I-62500J0D01*
G01*
X46832500Y-147325000D01*
G75*
G02*
X46770000Y-147262500I0J62500D01*
G01*
G37*
G36*
G01*
X46770000Y-146762500D02*
X46770000Y-146637500D01*
G75*
G02*
X46832500Y-146575000I62500J0D01*
G01*
X47507500Y-146575000D01*
G75*
G02*
X47570000Y-146637500I0J-62500D01*
G01*
X47570000Y-146762500D01*
G75*
G02*
X47507500Y-146825000I-62500J0D01*
G01*
X46832500Y-146825000D01*
G75*
G02*
X46770000Y-146762500I0J62500D01*
G01*
G37*
G36*
G01*
X46770000Y-146262500D02*
X46770000Y-146137500D01*
G75*
G02*
X46832500Y-146075000I62500J0D01*
G01*
X47507500Y-146075000D01*
G75*
G02*
X47570000Y-146137500I0J-62500D01*
G01*
X47570000Y-146262500D01*
G75*
G02*
X47507500Y-146325000I-62500J0D01*
G01*
X46832500Y-146325000D01*
G75*
G02*
X46770000Y-146262500I0J62500D01*
G01*
G37*
G36*
G01*
X46770000Y-145762500D02*
X46770000Y-145637500D01*
G75*
G02*
X46832500Y-145575000I62500J0D01*
G01*
X47507500Y-145575000D01*
G75*
G02*
X47570000Y-145637500I0J-62500D01*
G01*
X47570000Y-145762500D01*
G75*
G02*
X47507500Y-145825000I-62500J0D01*
G01*
X46832500Y-145825000D01*
G75*
G02*
X46770000Y-145762500I0J62500D01*
G01*
G37*
G36*
G01*
X50290000Y-148545000D02*
X50290000Y-148095000D01*
G75*
G02*
X50515000Y-147870000I225000J0D01*
G01*
X50965000Y-147870000D01*
G75*
G02*
X51190000Y-148095000I0J-225000D01*
G01*
X51190000Y-148545000D01*
G75*
G02*
X50965000Y-148770000I-225000J0D01*
G01*
X50515000Y-148770000D01*
G75*
G02*
X50290000Y-148545000I0J225000D01*
G01*
G37*
G36*
G01*
X50290000Y-147425000D02*
X50290000Y-146975000D01*
G75*
G02*
X50515000Y-146750000I225000J0D01*
G01*
X50965000Y-146750000D01*
G75*
G02*
X51190000Y-146975000I0J-225000D01*
G01*
X51190000Y-147425000D01*
G75*
G02*
X50965000Y-147650000I-225000J0D01*
G01*
X50515000Y-147650000D01*
G75*
G02*
X50290000Y-147425000I0J225000D01*
G01*
G37*
G36*
G01*
X50290000Y-146305000D02*
X50290000Y-145855000D01*
G75*
G02*
X50515000Y-145630000I225000J0D01*
G01*
X50965000Y-145630000D01*
G75*
G02*
X51190000Y-145855000I0J-225000D01*
G01*
X51190000Y-146305000D01*
G75*
G02*
X50965000Y-146530000I-225000J0D01*
G01*
X50515000Y-146530000D01*
G75*
G02*
X50290000Y-146305000I0J225000D01*
G01*
G37*
G36*
G01*
X49170000Y-148545000D02*
X49170000Y-148095000D01*
G75*
G02*
X49395000Y-147870000I225000J0D01*
G01*
X49845000Y-147870000D01*
G75*
G02*
X50070000Y-148095000I0J-225000D01*
G01*
X50070000Y-148545000D01*
G75*
G02*
X49845000Y-148770000I-225000J0D01*
G01*
X49395000Y-148770000D01*
G75*
G02*
X49170000Y-148545000I0J225000D01*
G01*
G37*
G36*
G01*
X49170000Y-147425000D02*
X49170000Y-146975000D01*
G75*
G02*
X49395000Y-146750000I225000J0D01*
G01*
X49845000Y-146750000D01*
G75*
G02*
X50070000Y-146975000I0J-225000D01*
G01*
X50070000Y-147425000D01*
G75*
G02*
X49845000Y-147650000I-225000J0D01*
G01*
X49395000Y-147650000D01*
G75*
G02*
X49170000Y-147425000I0J225000D01*
G01*
G37*
G36*
G01*
X49170000Y-146305000D02*
X49170000Y-145855000D01*
G75*
G02*
X49395000Y-145630000I225000J0D01*
G01*
X49845000Y-145630000D01*
G75*
G02*
X50070000Y-145855000I0J-225000D01*
G01*
X50070000Y-146305000D01*
G75*
G02*
X49845000Y-146530000I-225000J0D01*
G01*
X49395000Y-146530000D01*
G75*
G02*
X49170000Y-146305000I0J225000D01*
G01*
G37*
G36*
G01*
X48050000Y-148545000D02*
X48050000Y-148095000D01*
G75*
G02*
X48275000Y-147870000I225000J0D01*
G01*
X48725000Y-147870000D01*
G75*
G02*
X48950000Y-148095000I0J-225000D01*
G01*
X48950000Y-148545000D01*
G75*
G02*
X48725000Y-148770000I-225000J0D01*
G01*
X48275000Y-148770000D01*
G75*
G02*
X48050000Y-148545000I0J225000D01*
G01*
G37*
G36*
G01*
X48050000Y-147425000D02*
X48050000Y-146975000D01*
G75*
G02*
X48275000Y-146750000I225000J0D01*
G01*
X48725000Y-146750000D01*
G75*
G02*
X48950000Y-146975000I0J-225000D01*
G01*
X48950000Y-147425000D01*
G75*
G02*
X48725000Y-147650000I-225000J0D01*
G01*
X48275000Y-147650000D01*
G75*
G02*
X48050000Y-147425000I0J225000D01*
G01*
G37*
G36*
G01*
X48050000Y-146305000D02*
X48050000Y-145855000D01*
G75*
G02*
X48275000Y-145630000I225000J0D01*
G01*
X48725000Y-145630000D01*
G75*
G02*
X48950000Y-145855000I0J-225000D01*
G01*
X48950000Y-146305000D01*
G75*
G02*
X48725000Y-146530000I-225000J0D01*
G01*
X48275000Y-146530000D01*
G75*
G02*
X48050000Y-146305000I0J225000D01*
G01*
G37*
G36*
G01*
X53745000Y-131400000D02*
X53445000Y-131400000D01*
G75*
G02*
X53295000Y-131250000I0J150000D01*
G01*
X53295000Y-129600000D01*
G75*
G02*
X53445000Y-129450000I150000J0D01*
G01*
X53745000Y-129450000D01*
G75*
G02*
X53895000Y-129600000I0J-150000D01*
G01*
X53895000Y-131250000D01*
G75*
G02*
X53745000Y-131400000I-150000J0D01*
G01*
G37*
G36*
G01*
X55015000Y-131400000D02*
X54715000Y-131400000D01*
G75*
G02*
X54565000Y-131250000I0J150000D01*
G01*
X54565000Y-129600000D01*
G75*
G02*
X54715000Y-129450000I150000J0D01*
G01*
X55015000Y-129450000D01*
G75*
G02*
X55165000Y-129600000I0J-150000D01*
G01*
X55165000Y-131250000D01*
G75*
G02*
X55015000Y-131400000I-150000J0D01*
G01*
G37*
G36*
G01*
X56285000Y-131400000D02*
X55985000Y-131400000D01*
G75*
G02*
X55835000Y-131250000I0J150000D01*
G01*
X55835000Y-129600000D01*
G75*
G02*
X55985000Y-129450000I150000J0D01*
G01*
X56285000Y-129450000D01*
G75*
G02*
X56435000Y-129600000I0J-150000D01*
G01*
X56435000Y-131250000D01*
G75*
G02*
X56285000Y-131400000I-150000J0D01*
G01*
G37*
G36*
G01*
X57555000Y-131400000D02*
X57255000Y-131400000D01*
G75*
G02*
X57105000Y-131250000I0J150000D01*
G01*
X57105000Y-129600000D01*
G75*
G02*
X57255000Y-129450000I150000J0D01*
G01*
X57555000Y-129450000D01*
G75*
G02*
X57705000Y-129600000I0J-150000D01*
G01*
X57705000Y-131250000D01*
G75*
G02*
X57555000Y-131400000I-150000J0D01*
G01*
G37*
G36*
G01*
X57555000Y-126450000D02*
X57255000Y-126450000D01*
G75*
G02*
X57105000Y-126300000I0J150000D01*
G01*
X57105000Y-124650000D01*
G75*
G02*
X57255000Y-124500000I150000J0D01*
G01*
X57555000Y-124500000D01*
G75*
G02*
X57705000Y-124650000I0J-150000D01*
G01*
X57705000Y-126300000D01*
G75*
G02*
X57555000Y-126450000I-150000J0D01*
G01*
G37*
G36*
G01*
X56285000Y-126450000D02*
X55985000Y-126450000D01*
G75*
G02*
X55835000Y-126300000I0J150000D01*
G01*
X55835000Y-124650000D01*
G75*
G02*
X55985000Y-124500000I150000J0D01*
G01*
X56285000Y-124500000D01*
G75*
G02*
X56435000Y-124650000I0J-150000D01*
G01*
X56435000Y-126300000D01*
G75*
G02*
X56285000Y-126450000I-150000J0D01*
G01*
G37*
G36*
G01*
X55015000Y-126450000D02*
X54715000Y-126450000D01*
G75*
G02*
X54565000Y-126300000I0J150000D01*
G01*
X54565000Y-124650000D01*
G75*
G02*
X54715000Y-124500000I150000J0D01*
G01*
X55015000Y-124500000D01*
G75*
G02*
X55165000Y-124650000I0J-150000D01*
G01*
X55165000Y-126300000D01*
G75*
G02*
X55015000Y-126450000I-150000J0D01*
G01*
G37*
G36*
G01*
X53745000Y-126450000D02*
X53445000Y-126450000D01*
G75*
G02*
X53295000Y-126300000I0J150000D01*
G01*
X53295000Y-124650000D01*
G75*
G02*
X53445000Y-124500000I150000J0D01*
G01*
X53745000Y-124500000D01*
G75*
G02*
X53895000Y-124650000I0J-150000D01*
G01*
X53895000Y-126300000D01*
G75*
G02*
X53745000Y-126450000I-150000J0D01*
G01*
G37*
D16*
X45150000Y-146850000D03*
X45150000Y-148150000D03*
X43250000Y-147500000D03*
X45150000Y-147500000D03*
X43250000Y-148150000D03*
X43250000Y-146850000D03*
D17*
X91000000Y-178175000D03*
X85000000Y-178175000D03*
X91000000Y-174425000D03*
X85000000Y-174425000D03*
D18*
X80300000Y-130100000D03*
D19*
X80300000Y-131700000D03*
X80300000Y-130900000D03*
D18*
X80300000Y-132500000D03*
D19*
X82100000Y-130900000D03*
D18*
X82100000Y-130100000D03*
D19*
X82100000Y-131700000D03*
D18*
X82100000Y-132500000D03*
X80300000Y-133800000D03*
D19*
X80300000Y-135400000D03*
X80300000Y-134600000D03*
D18*
X80300000Y-136200000D03*
D19*
X82100000Y-134600000D03*
D18*
X82100000Y-133800000D03*
D19*
X82100000Y-135400000D03*
D18*
X82100000Y-136200000D03*
D12*
X73750000Y-143100000D03*
D13*
X75350000Y-143100000D03*
X74550000Y-143100000D03*
D12*
X76150000Y-143100000D03*
D13*
X74550000Y-141300000D03*
D12*
X73750000Y-141300000D03*
D13*
X75350000Y-141300000D03*
D12*
X76150000Y-141300000D03*
X73750000Y-159600000D03*
D13*
X75350000Y-159600000D03*
X74550000Y-159600000D03*
D12*
X76150000Y-159600000D03*
D13*
X74550000Y-157800000D03*
D12*
X73750000Y-157800000D03*
D13*
X75350000Y-157800000D03*
D12*
X76150000Y-157800000D03*
X70050000Y-159600000D03*
D13*
X71650000Y-159600000D03*
X70850000Y-159600000D03*
D12*
X72450000Y-159600000D03*
D13*
X70850000Y-157800000D03*
D12*
X70050000Y-157800000D03*
D13*
X71650000Y-157800000D03*
D12*
X72450000Y-157800000D03*
G36*
G01*
X49950000Y-140356250D02*
X49950000Y-139843750D01*
G75*
G02*
X50168750Y-139625000I218750J0D01*
G01*
X50606250Y-139625000D01*
G75*
G02*
X50825000Y-139843750I0J-218750D01*
G01*
X50825000Y-140356250D01*
G75*
G02*
X50606250Y-140575000I-218750J0D01*
G01*
X50168750Y-140575000D01*
G75*
G02*
X49950000Y-140356250I0J218750D01*
G01*
G37*
G36*
G01*
X48375000Y-140356250D02*
X48375000Y-139843750D01*
G75*
G02*
X48593750Y-139625000I218750J0D01*
G01*
X49031250Y-139625000D01*
G75*
G02*
X49250000Y-139843750I0J-218750D01*
G01*
X49250000Y-140356250D01*
G75*
G02*
X49031250Y-140575000I-218750J0D01*
G01*
X48593750Y-140575000D01*
G75*
G02*
X48375000Y-140356250I0J218750D01*
G01*
G37*
G36*
G01*
X48556250Y-130737500D02*
X48043750Y-130737500D01*
G75*
G02*
X47825000Y-130518750I0J218750D01*
G01*
X47825000Y-130081250D01*
G75*
G02*
X48043750Y-129862500I218750J0D01*
G01*
X48556250Y-129862500D01*
G75*
G02*
X48775000Y-130081250I0J-218750D01*
G01*
X48775000Y-130518750D01*
G75*
G02*
X48556250Y-130737500I-218750J0D01*
G01*
G37*
G36*
G01*
X48556250Y-132325000D02*
X48043750Y-132325000D01*
G75*
G02*
X47825000Y-132106250I0J218750D01*
G01*
X47825000Y-131668750D01*
G75*
G02*
X48043750Y-131450000I218750J0D01*
G01*
X48556250Y-131450000D01*
G75*
G02*
X48775000Y-131668750I0J-218750D01*
G01*
X48775000Y-132106250D01*
G75*
G02*
X48556250Y-132325000I-218750J0D01*
G01*
G37*
G36*
G01*
X49643750Y-131450000D02*
X50156250Y-131450000D01*
G75*
G02*
X50375000Y-131668750I0J-218750D01*
G01*
X50375000Y-132106250D01*
G75*
G02*
X50156250Y-132325000I-218750J0D01*
G01*
X49643750Y-132325000D01*
G75*
G02*
X49425000Y-132106250I0J218750D01*
G01*
X49425000Y-131668750D01*
G75*
G02*
X49643750Y-131450000I218750J0D01*
G01*
G37*
G36*
G01*
X49643750Y-129875000D02*
X50156250Y-129875000D01*
G75*
G02*
X50375000Y-130093750I0J-218750D01*
G01*
X50375000Y-130531250D01*
G75*
G02*
X50156250Y-130750000I-218750J0D01*
G01*
X49643750Y-130750000D01*
G75*
G02*
X49425000Y-130531250I0J218750D01*
G01*
X49425000Y-130093750D01*
G75*
G02*
X49643750Y-129875000I218750J0D01*
G01*
G37*
G36*
G01*
X51756250Y-130750000D02*
X51243750Y-130750000D01*
G75*
G02*
X51025000Y-130531250I0J218750D01*
G01*
X51025000Y-130093750D01*
G75*
G02*
X51243750Y-129875000I218750J0D01*
G01*
X51756250Y-129875000D01*
G75*
G02*
X51975000Y-130093750I0J-218750D01*
G01*
X51975000Y-130531250D01*
G75*
G02*
X51756250Y-130750000I-218750J0D01*
G01*
G37*
G36*
G01*
X51756250Y-132325000D02*
X51243750Y-132325000D01*
G75*
G02*
X51025000Y-132106250I0J218750D01*
G01*
X51025000Y-131668750D01*
G75*
G02*
X51243750Y-131450000I218750J0D01*
G01*
X51756250Y-131450000D01*
G75*
G02*
X51975000Y-131668750I0J-218750D01*
G01*
X51975000Y-132106250D01*
G75*
G02*
X51756250Y-132325000I-218750J0D01*
G01*
G37*
G36*
G01*
X80850000Y-128343750D02*
X80850000Y-128856250D01*
G75*
G02*
X80631250Y-129075000I-218750J0D01*
G01*
X80193750Y-129075000D01*
G75*
G02*
X79975000Y-128856250I0J218750D01*
G01*
X79975000Y-128343750D01*
G75*
G02*
X80193750Y-128125000I218750J0D01*
G01*
X80631250Y-128125000D01*
G75*
G02*
X80850000Y-128343750I0J-218750D01*
G01*
G37*
G36*
G01*
X82425000Y-128343750D02*
X82425000Y-128856250D01*
G75*
G02*
X82206250Y-129075000I-218750J0D01*
G01*
X81768750Y-129075000D01*
G75*
G02*
X81550000Y-128856250I0J218750D01*
G01*
X81550000Y-128343750D01*
G75*
G02*
X81768750Y-128125000I218750J0D01*
G01*
X82206250Y-128125000D01*
G75*
G02*
X82425000Y-128343750I0J-218750D01*
G01*
G37*
G36*
G01*
X85350000Y-136043750D02*
X85350000Y-136556250D01*
G75*
G02*
X85131250Y-136775000I-218750J0D01*
G01*
X84693750Y-136775000D01*
G75*
G02*
X84475000Y-136556250I0J218750D01*
G01*
X84475000Y-136043750D01*
G75*
G02*
X84693750Y-135825000I218750J0D01*
G01*
X85131250Y-135825000D01*
G75*
G02*
X85350000Y-136043750I0J-218750D01*
G01*
G37*
G36*
G01*
X86925000Y-136043750D02*
X86925000Y-136556250D01*
G75*
G02*
X86706250Y-136775000I-218750J0D01*
G01*
X86268750Y-136775000D01*
G75*
G02*
X86050000Y-136556250I0J218750D01*
G01*
X86050000Y-136043750D01*
G75*
G02*
X86268750Y-135825000I218750J0D01*
G01*
X86706250Y-135825000D01*
G75*
G02*
X86925000Y-136043750I0J-218750D01*
G01*
G37*
G36*
G01*
X85350000Y-139043750D02*
X85350000Y-139556250D01*
G75*
G02*
X85131250Y-139775000I-218750J0D01*
G01*
X84693750Y-139775000D01*
G75*
G02*
X84475000Y-139556250I0J218750D01*
G01*
X84475000Y-139043750D01*
G75*
G02*
X84693750Y-138825000I218750J0D01*
G01*
X85131250Y-138825000D01*
G75*
G02*
X85350000Y-139043750I0J-218750D01*
G01*
G37*
G36*
G01*
X86925000Y-139043750D02*
X86925000Y-139556250D01*
G75*
G02*
X86706250Y-139775000I-218750J0D01*
G01*
X86268750Y-139775000D01*
G75*
G02*
X86050000Y-139556250I0J218750D01*
G01*
X86050000Y-139043750D01*
G75*
G02*
X86268750Y-138825000I218750J0D01*
G01*
X86706250Y-138825000D01*
G75*
G02*
X86925000Y-139043750I0J-218750D01*
G01*
G37*
G36*
G01*
X85350000Y-140643750D02*
X85350000Y-141156250D01*
G75*
G02*
X85131250Y-141375000I-218750J0D01*
G01*
X84693750Y-141375000D01*
G75*
G02*
X84475000Y-141156250I0J218750D01*
G01*
X84475000Y-140643750D01*
G75*
G02*
X84693750Y-140425000I218750J0D01*
G01*
X85131250Y-140425000D01*
G75*
G02*
X85350000Y-140643750I0J-218750D01*
G01*
G37*
G36*
G01*
X86925000Y-140643750D02*
X86925000Y-141156250D01*
G75*
G02*
X86706250Y-141375000I-218750J0D01*
G01*
X86268750Y-141375000D01*
G75*
G02*
X86050000Y-141156250I0J218750D01*
G01*
X86050000Y-140643750D01*
G75*
G02*
X86268750Y-140425000I218750J0D01*
G01*
X86706250Y-140425000D01*
G75*
G02*
X86925000Y-140643750I0J-218750D01*
G01*
G37*
G36*
G01*
X41843750Y-157950000D02*
X42356250Y-157950000D01*
G75*
G02*
X42575000Y-158168750I0J-218750D01*
G01*
X42575000Y-158606250D01*
G75*
G02*
X42356250Y-158825000I-218750J0D01*
G01*
X41843750Y-158825000D01*
G75*
G02*
X41625000Y-158606250I0J218750D01*
G01*
X41625000Y-158168750D01*
G75*
G02*
X41843750Y-157950000I218750J0D01*
G01*
G37*
G36*
G01*
X41843750Y-156375000D02*
X42356250Y-156375000D01*
G75*
G02*
X42575000Y-156593750I0J-218750D01*
G01*
X42575000Y-157031250D01*
G75*
G02*
X42356250Y-157250000I-218750J0D01*
G01*
X41843750Y-157250000D01*
G75*
G02*
X41625000Y-157031250I0J218750D01*
G01*
X41625000Y-156593750D01*
G75*
G02*
X41843750Y-156375000I218750J0D01*
G01*
G37*
G36*
G01*
X43543750Y-156375000D02*
X44056250Y-156375000D01*
G75*
G02*
X44275000Y-156593750I0J-218750D01*
G01*
X44275000Y-157031250D01*
G75*
G02*
X44056250Y-157250000I-218750J0D01*
G01*
X43543750Y-157250000D01*
G75*
G02*
X43325000Y-157031250I0J218750D01*
G01*
X43325000Y-156593750D01*
G75*
G02*
X43543750Y-156375000I218750J0D01*
G01*
G37*
G36*
G01*
X43543750Y-157950000D02*
X44056250Y-157950000D01*
G75*
G02*
X44275000Y-158168750I0J-218750D01*
G01*
X44275000Y-158606250D01*
G75*
G02*
X44056250Y-158825000I-218750J0D01*
G01*
X43543750Y-158825000D01*
G75*
G02*
X43325000Y-158606250I0J218750D01*
G01*
X43325000Y-158168750D01*
G75*
G02*
X43543750Y-157950000I218750J0D01*
G01*
G37*
G36*
G01*
X40756250Y-157250000D02*
X40243750Y-157250000D01*
G75*
G02*
X40025000Y-157031250I0J218750D01*
G01*
X40025000Y-156593750D01*
G75*
G02*
X40243750Y-156375000I218750J0D01*
G01*
X40756250Y-156375000D01*
G75*
G02*
X40975000Y-156593750I0J-218750D01*
G01*
X40975000Y-157031250D01*
G75*
G02*
X40756250Y-157250000I-218750J0D01*
G01*
G37*
G36*
G01*
X40756250Y-158825000D02*
X40243750Y-158825000D01*
G75*
G02*
X40025000Y-158606250I0J218750D01*
G01*
X40025000Y-158168750D01*
G75*
G02*
X40243750Y-157950000I218750J0D01*
G01*
X40756250Y-157950000D01*
G75*
G02*
X40975000Y-158168750I0J-218750D01*
G01*
X40975000Y-158606250D01*
G75*
G02*
X40756250Y-158825000I-218750J0D01*
G01*
G37*
G36*
G01*
X34556250Y-157250000D02*
X34043750Y-157250000D01*
G75*
G02*
X33825000Y-157031250I0J218750D01*
G01*
X33825000Y-156593750D01*
G75*
G02*
X34043750Y-156375000I218750J0D01*
G01*
X34556250Y-156375000D01*
G75*
G02*
X34775000Y-156593750I0J-218750D01*
G01*
X34775000Y-157031250D01*
G75*
G02*
X34556250Y-157250000I-218750J0D01*
G01*
G37*
G36*
G01*
X34556250Y-158825000D02*
X34043750Y-158825000D01*
G75*
G02*
X33825000Y-158606250I0J218750D01*
G01*
X33825000Y-158168750D01*
G75*
G02*
X34043750Y-157950000I218750J0D01*
G01*
X34556250Y-157950000D01*
G75*
G02*
X34775000Y-158168750I0J-218750D01*
G01*
X34775000Y-158606250D01*
G75*
G02*
X34556250Y-158825000I-218750J0D01*
G01*
G37*
G36*
G01*
X85350000Y-137543750D02*
X85350000Y-138056250D01*
G75*
G02*
X85131250Y-138275000I-218750J0D01*
G01*
X84693750Y-138275000D01*
G75*
G02*
X84475000Y-138056250I0J218750D01*
G01*
X84475000Y-137543750D01*
G75*
G02*
X84693750Y-137325000I218750J0D01*
G01*
X85131250Y-137325000D01*
G75*
G02*
X85350000Y-137543750I0J-218750D01*
G01*
G37*
G36*
G01*
X86925000Y-137543750D02*
X86925000Y-138056250D01*
G75*
G02*
X86706250Y-138275000I-218750J0D01*
G01*
X86268750Y-138275000D01*
G75*
G02*
X86050000Y-138056250I0J218750D01*
G01*
X86050000Y-137543750D01*
G75*
G02*
X86268750Y-137325000I218750J0D01*
G01*
X86706250Y-137325000D01*
G75*
G02*
X86925000Y-137543750I0J-218750D01*
G01*
G37*
G36*
G01*
X48350000Y-151406250D02*
X48350000Y-150893750D01*
G75*
G02*
X48568750Y-150675000I218750J0D01*
G01*
X49006250Y-150675000D01*
G75*
G02*
X49225000Y-150893750I0J-218750D01*
G01*
X49225000Y-151406250D01*
G75*
G02*
X49006250Y-151625000I-218750J0D01*
G01*
X48568750Y-151625000D01*
G75*
G02*
X48350000Y-151406250I0J218750D01*
G01*
G37*
G36*
G01*
X46775000Y-151406250D02*
X46775000Y-150893750D01*
G75*
G02*
X46993750Y-150675000I218750J0D01*
G01*
X47431250Y-150675000D01*
G75*
G02*
X47650000Y-150893750I0J-218750D01*
G01*
X47650000Y-151406250D01*
G75*
G02*
X47431250Y-151625000I-218750J0D01*
G01*
X46993750Y-151625000D01*
G75*
G02*
X46775000Y-151406250I0J218750D01*
G01*
G37*
G36*
G01*
X46956250Y-130750000D02*
X46443750Y-130750000D01*
G75*
G02*
X46225000Y-130531250I0J218750D01*
G01*
X46225000Y-130093750D01*
G75*
G02*
X46443750Y-129875000I218750J0D01*
G01*
X46956250Y-129875000D01*
G75*
G02*
X47175000Y-130093750I0J-218750D01*
G01*
X47175000Y-130531250D01*
G75*
G02*
X46956250Y-130750000I-218750J0D01*
G01*
G37*
G36*
G01*
X46956250Y-132325000D02*
X46443750Y-132325000D01*
G75*
G02*
X46225000Y-132106250I0J218750D01*
G01*
X46225000Y-131668750D01*
G75*
G02*
X46443750Y-131450000I218750J0D01*
G01*
X46956250Y-131450000D01*
G75*
G02*
X47175000Y-131668750I0J-218750D01*
G01*
X47175000Y-132106250D01*
G75*
G02*
X46956250Y-132325000I-218750J0D01*
G01*
G37*
G36*
G01*
X49950000Y-142306250D02*
X49950000Y-141793750D01*
G75*
G02*
X50168750Y-141575000I218750J0D01*
G01*
X50606250Y-141575000D01*
G75*
G02*
X50825000Y-141793750I0J-218750D01*
G01*
X50825000Y-142306250D01*
G75*
G02*
X50606250Y-142525000I-218750J0D01*
G01*
X50168750Y-142525000D01*
G75*
G02*
X49950000Y-142306250I0J218750D01*
G01*
G37*
G36*
G01*
X48375000Y-142306250D02*
X48375000Y-141793750D01*
G75*
G02*
X48593750Y-141575000I218750J0D01*
G01*
X49031250Y-141575000D01*
G75*
G02*
X49250000Y-141793750I0J-218750D01*
G01*
X49250000Y-142306250D01*
G75*
G02*
X49031250Y-142525000I-218750J0D01*
G01*
X48593750Y-142525000D01*
G75*
G02*
X48375000Y-142306250I0J218750D01*
G01*
G37*
G36*
G01*
X33850000Y-133156250D02*
X33850000Y-132643750D01*
G75*
G02*
X34068750Y-132425000I218750J0D01*
G01*
X34506250Y-132425000D01*
G75*
G02*
X34725000Y-132643750I0J-218750D01*
G01*
X34725000Y-133156250D01*
G75*
G02*
X34506250Y-133375000I-218750J0D01*
G01*
X34068750Y-133375000D01*
G75*
G02*
X33850000Y-133156250I0J218750D01*
G01*
G37*
G36*
G01*
X32275000Y-133156250D02*
X32275000Y-132643750D01*
G75*
G02*
X32493750Y-132425000I218750J0D01*
G01*
X32931250Y-132425000D01*
G75*
G02*
X33150000Y-132643750I0J-218750D01*
G01*
X33150000Y-133156250D01*
G75*
G02*
X32931250Y-133375000I-218750J0D01*
G01*
X32493750Y-133375000D01*
G75*
G02*
X32275000Y-133156250I0J218750D01*
G01*
G37*
G36*
G01*
X75843750Y-175662000D02*
X76356250Y-175662000D01*
G75*
G02*
X76575000Y-175880750I0J-218750D01*
G01*
X76575000Y-176318250D01*
G75*
G02*
X76356250Y-176537000I-218750J0D01*
G01*
X75843750Y-176537000D01*
G75*
G02*
X75625000Y-176318250I0J218750D01*
G01*
X75625000Y-175880750D01*
G75*
G02*
X75843750Y-175662000I218750J0D01*
G01*
G37*
G36*
G01*
X75843750Y-174087000D02*
X76356250Y-174087000D01*
G75*
G02*
X76575000Y-174305750I0J-218750D01*
G01*
X76575000Y-174743250D01*
G75*
G02*
X76356250Y-174962000I-218750J0D01*
G01*
X75843750Y-174962000D01*
G75*
G02*
X75625000Y-174743250I0J218750D01*
G01*
X75625000Y-174305750D01*
G75*
G02*
X75843750Y-174087000I218750J0D01*
G01*
G37*
D14*
X54200000Y-141050000D03*
X52200000Y-142000000D03*
X52200000Y-140100000D03*
X45000000Y-141150000D03*
X47000000Y-140200000D03*
X47000000Y-142100000D03*
X90000000Y-129300000D03*
X92000000Y-128350000D03*
X92000000Y-130250000D03*
X86200000Y-133300000D03*
X88200000Y-132350000D03*
X88200000Y-134250000D03*
X86200000Y-129300000D03*
X88200000Y-128350000D03*
X88200000Y-130250000D03*
D10*
X79700000Y-125600000D03*
X83700000Y-125600000D03*
X87000000Y-125650000D03*
X91000000Y-125650000D03*
X36900000Y-137400000D03*
X40900000Y-137400000D03*
X37100000Y-124700000D03*
X41100000Y-124700000D03*
G36*
G01*
X39225000Y-120174999D02*
X39225000Y-122025001D01*
G75*
G02*
X38975001Y-122275000I-249999J0D01*
G01*
X38149999Y-122275000D01*
G75*
G02*
X37900000Y-122025001I0J249999D01*
G01*
X37900000Y-120174999D01*
G75*
G02*
X38149999Y-119925000I249999J0D01*
G01*
X38975001Y-119925000D01*
G75*
G02*
X39225000Y-120174999I0J-249999D01*
G01*
G37*
G36*
G01*
X42300000Y-120174999D02*
X42300000Y-122025001D01*
G75*
G02*
X42050001Y-122275000I-249999J0D01*
G01*
X41224999Y-122275000D01*
G75*
G02*
X40975000Y-122025001I0J249999D01*
G01*
X40975000Y-120174999D01*
G75*
G02*
X41224999Y-119925000I249999J0D01*
G01*
X42050001Y-119925000D01*
G75*
G02*
X42300000Y-120174999I0J-249999D01*
G01*
G37*
G36*
G01*
X43243750Y-131450000D02*
X43756250Y-131450000D01*
G75*
G02*
X43975000Y-131668750I0J-218750D01*
G01*
X43975000Y-132106250D01*
G75*
G02*
X43756250Y-132325000I-218750J0D01*
G01*
X43243750Y-132325000D01*
G75*
G02*
X43025000Y-132106250I0J218750D01*
G01*
X43025000Y-131668750D01*
G75*
G02*
X43243750Y-131450000I218750J0D01*
G01*
G37*
G36*
G01*
X43243750Y-129862500D02*
X43756250Y-129862500D01*
G75*
G02*
X43975000Y-130081250I0J-218750D01*
G01*
X43975000Y-130518750D01*
G75*
G02*
X43756250Y-130737500I-218750J0D01*
G01*
X43243750Y-130737500D01*
G75*
G02*
X43025000Y-130518750I0J218750D01*
G01*
X43025000Y-130081250D01*
G75*
G02*
X43243750Y-129862500I218750J0D01*
G01*
G37*
G36*
G01*
X59137500Y-136443750D02*
X59137500Y-136956250D01*
G75*
G02*
X58918750Y-137175000I-218750J0D01*
G01*
X58481250Y-137175000D01*
G75*
G02*
X58262500Y-136956250I0J218750D01*
G01*
X58262500Y-136443750D01*
G75*
G02*
X58481250Y-136225000I218750J0D01*
G01*
X58918750Y-136225000D01*
G75*
G02*
X59137500Y-136443750I0J-218750D01*
G01*
G37*
G36*
G01*
X57562500Y-136443750D02*
X57562500Y-136956250D01*
G75*
G02*
X57343750Y-137175000I-218750J0D01*
G01*
X56906250Y-137175000D01*
G75*
G02*
X56687500Y-136956250I0J218750D01*
G01*
X56687500Y-136443750D01*
G75*
G02*
X56906250Y-136225000I218750J0D01*
G01*
X57343750Y-136225000D01*
G75*
G02*
X57562500Y-136443750I0J-218750D01*
G01*
G37*
G36*
G01*
X59112500Y-152243750D02*
X59112500Y-152756250D01*
G75*
G02*
X58893750Y-152975000I-218750J0D01*
G01*
X58456250Y-152975000D01*
G75*
G02*
X58237500Y-152756250I0J218750D01*
G01*
X58237500Y-152243750D01*
G75*
G02*
X58456250Y-152025000I218750J0D01*
G01*
X58893750Y-152025000D01*
G75*
G02*
X59112500Y-152243750I0J-218750D01*
G01*
G37*
G36*
G01*
X57537500Y-152243750D02*
X57537500Y-152756250D01*
G75*
G02*
X57318750Y-152975000I-218750J0D01*
G01*
X56881250Y-152975000D01*
G75*
G02*
X56662500Y-152756250I0J218750D01*
G01*
X56662500Y-152243750D01*
G75*
G02*
X56881250Y-152025000I218750J0D01*
G01*
X57318750Y-152025000D01*
G75*
G02*
X57537500Y-152243750I0J-218750D01*
G01*
G37*
G36*
G01*
X59775000Y-170956250D02*
X59775000Y-170443750D01*
G75*
G02*
X59993750Y-170225000I218750J0D01*
G01*
X60431250Y-170225000D01*
G75*
G02*
X60650000Y-170443750I0J-218750D01*
G01*
X60650000Y-170956250D01*
G75*
G02*
X60431250Y-171175000I-218750J0D01*
G01*
X59993750Y-171175000D01*
G75*
G02*
X59775000Y-170956250I0J218750D01*
G01*
G37*
G36*
G01*
X61350000Y-170956250D02*
X61350000Y-170443750D01*
G75*
G02*
X61568750Y-170225000I218750J0D01*
G01*
X62006250Y-170225000D01*
G75*
G02*
X62225000Y-170443750I0J-218750D01*
G01*
X62225000Y-170956250D01*
G75*
G02*
X62006250Y-171175000I-218750J0D01*
G01*
X61568750Y-171175000D01*
G75*
G02*
X61350000Y-170956250I0J218750D01*
G01*
G37*
G36*
G01*
X44843750Y-131363000D02*
X45356250Y-131363000D01*
G75*
G02*
X45575000Y-131581750I0J-218750D01*
G01*
X45575000Y-132019250D01*
G75*
G02*
X45356250Y-132238000I-218750J0D01*
G01*
X44843750Y-132238000D01*
G75*
G02*
X44625000Y-132019250I0J218750D01*
G01*
X44625000Y-131581750D01*
G75*
G02*
X44843750Y-131363000I218750J0D01*
G01*
G37*
G36*
G01*
X44843750Y-129863000D02*
X45356250Y-129863000D01*
G75*
G02*
X45575000Y-130081750I0J-218750D01*
G01*
X45575000Y-130519250D01*
G75*
G02*
X45356250Y-130738000I-218750J0D01*
G01*
X44843750Y-130738000D01*
G75*
G02*
X44625000Y-130519250I0J218750D01*
G01*
X44625000Y-130081750D01*
G75*
G02*
X44843750Y-129863000I218750J0D01*
G01*
G37*
G36*
G01*
X48350000Y-152956250D02*
X48350000Y-152443750D01*
G75*
G02*
X48568750Y-152225000I218750J0D01*
G01*
X49006250Y-152225000D01*
G75*
G02*
X49225000Y-152443750I0J-218750D01*
G01*
X49225000Y-152956250D01*
G75*
G02*
X49006250Y-153175000I-218750J0D01*
G01*
X48568750Y-153175000D01*
G75*
G02*
X48350000Y-152956250I0J218750D01*
G01*
G37*
G36*
G01*
X46775000Y-152956250D02*
X46775000Y-152443750D01*
G75*
G02*
X46993750Y-152225000I218750J0D01*
G01*
X47431250Y-152225000D01*
G75*
G02*
X47650000Y-152443750I0J-218750D01*
G01*
X47650000Y-152956250D01*
G75*
G02*
X47431250Y-153175000I-218750J0D01*
G01*
X46993750Y-153175000D01*
G75*
G02*
X46775000Y-152956250I0J218750D01*
G01*
G37*
G36*
G01*
X45956250Y-150100000D02*
X45443750Y-150100000D01*
G75*
G02*
X45225000Y-149881250I0J218750D01*
G01*
X45225000Y-149443750D01*
G75*
G02*
X45443750Y-149225000I218750J0D01*
G01*
X45956250Y-149225000D01*
G75*
G02*
X46175000Y-149443750I0J-218750D01*
G01*
X46175000Y-149881250D01*
G75*
G02*
X45956250Y-150100000I-218750J0D01*
G01*
G37*
G36*
G01*
X45956250Y-151675000D02*
X45443750Y-151675000D01*
G75*
G02*
X45225000Y-151456250I0J218750D01*
G01*
X45225000Y-151018750D01*
G75*
G02*
X45443750Y-150800000I218750J0D01*
G01*
X45956250Y-150800000D01*
G75*
G02*
X46175000Y-151018750I0J-218750D01*
G01*
X46175000Y-151456250D01*
G75*
G02*
X45956250Y-151675000I-218750J0D01*
G01*
G37*
G36*
G01*
X48350000Y-154506250D02*
X48350000Y-153993750D01*
G75*
G02*
X48568750Y-153775000I218750J0D01*
G01*
X49006250Y-153775000D01*
G75*
G02*
X49225000Y-153993750I0J-218750D01*
G01*
X49225000Y-154506250D01*
G75*
G02*
X49006250Y-154725000I-218750J0D01*
G01*
X48568750Y-154725000D01*
G75*
G02*
X48350000Y-154506250I0J218750D01*
G01*
G37*
G36*
G01*
X46775000Y-154506250D02*
X46775000Y-153993750D01*
G75*
G02*
X46993750Y-153775000I218750J0D01*
G01*
X47431250Y-153775000D01*
G75*
G02*
X47650000Y-153993750I0J-218750D01*
G01*
X47650000Y-154506250D01*
G75*
G02*
X47431250Y-154725000I-218750J0D01*
G01*
X46993750Y-154725000D01*
G75*
G02*
X46775000Y-154506250I0J218750D01*
G01*
G37*
G36*
G01*
X34556250Y-130250000D02*
X34043750Y-130250000D01*
G75*
G02*
X33825000Y-130031250I0J218750D01*
G01*
X33825000Y-129593750D01*
G75*
G02*
X34043750Y-129375000I218750J0D01*
G01*
X34556250Y-129375000D01*
G75*
G02*
X34775000Y-129593750I0J-218750D01*
G01*
X34775000Y-130031250D01*
G75*
G02*
X34556250Y-130250000I-218750J0D01*
G01*
G37*
G36*
G01*
X34556250Y-131825000D02*
X34043750Y-131825000D01*
G75*
G02*
X33825000Y-131606250I0J218750D01*
G01*
X33825000Y-131168750D01*
G75*
G02*
X34043750Y-130950000I218750J0D01*
G01*
X34556250Y-130950000D01*
G75*
G02*
X34775000Y-131168750I0J-218750D01*
G01*
X34775000Y-131606250D01*
G75*
G02*
X34556250Y-131825000I-218750J0D01*
G01*
G37*
G36*
G01*
X33862500Y-125056250D02*
X33862500Y-124543750D01*
G75*
G02*
X34081250Y-124325000I218750J0D01*
G01*
X34518750Y-124325000D01*
G75*
G02*
X34737500Y-124543750I0J-218750D01*
G01*
X34737500Y-125056250D01*
G75*
G02*
X34518750Y-125275000I-218750J0D01*
G01*
X34081250Y-125275000D01*
G75*
G02*
X33862500Y-125056250I0J218750D01*
G01*
G37*
G36*
G01*
X32287500Y-125056250D02*
X32287500Y-124543750D01*
G75*
G02*
X32506250Y-124325000I218750J0D01*
G01*
X32943750Y-124325000D01*
G75*
G02*
X33162500Y-124543750I0J-218750D01*
G01*
X33162500Y-125056250D01*
G75*
G02*
X32943750Y-125275000I-218750J0D01*
G01*
X32506250Y-125275000D01*
G75*
G02*
X32287500Y-125056250I0J218750D01*
G01*
G37*
G36*
G01*
X32443750Y-130950000D02*
X32956250Y-130950000D01*
G75*
G02*
X33175000Y-131168750I0J-218750D01*
G01*
X33175000Y-131606250D01*
G75*
G02*
X32956250Y-131825000I-218750J0D01*
G01*
X32443750Y-131825000D01*
G75*
G02*
X32225000Y-131606250I0J218750D01*
G01*
X32225000Y-131168750D01*
G75*
G02*
X32443750Y-130950000I218750J0D01*
G01*
G37*
G36*
G01*
X32443750Y-129375000D02*
X32956250Y-129375000D01*
G75*
G02*
X33175000Y-129593750I0J-218750D01*
G01*
X33175000Y-130031250D01*
G75*
G02*
X32956250Y-130250000I-218750J0D01*
G01*
X32443750Y-130250000D01*
G75*
G02*
X32225000Y-130031250I0J218750D01*
G01*
X32225000Y-129593750D01*
G75*
G02*
X32443750Y-129375000I218750J0D01*
G01*
G37*
G36*
G01*
X32556250Y-126850000D02*
X31643750Y-126850000D01*
G75*
G02*
X31400000Y-126606250I0J243750D01*
G01*
X31400000Y-126118750D01*
G75*
G02*
X31643750Y-125875000I243750J0D01*
G01*
X32556250Y-125875000D01*
G75*
G02*
X32800000Y-126118750I0J-243750D01*
G01*
X32800000Y-126606250D01*
G75*
G02*
X32556250Y-126850000I-243750J0D01*
G01*
G37*
G36*
G01*
X32556250Y-128725000D02*
X31643750Y-128725000D01*
G75*
G02*
X31400000Y-128481250I0J243750D01*
G01*
X31400000Y-127993750D01*
G75*
G02*
X31643750Y-127750000I243750J0D01*
G01*
X32556250Y-127750000D01*
G75*
G02*
X32800000Y-127993750I0J-243750D01*
G01*
X32800000Y-128481250D01*
G75*
G02*
X32556250Y-128725000I-243750J0D01*
G01*
G37*
G36*
G01*
X34556250Y-126850000D02*
X33643750Y-126850000D01*
G75*
G02*
X33400000Y-126606250I0J243750D01*
G01*
X33400000Y-126118750D01*
G75*
G02*
X33643750Y-125875000I243750J0D01*
G01*
X34556250Y-125875000D01*
G75*
G02*
X34800000Y-126118750I0J-243750D01*
G01*
X34800000Y-126606250D01*
G75*
G02*
X34556250Y-126850000I-243750J0D01*
G01*
G37*
G36*
G01*
X34556250Y-128725000D02*
X33643750Y-128725000D01*
G75*
G02*
X33400000Y-128481250I0J243750D01*
G01*
X33400000Y-127993750D01*
G75*
G02*
X33643750Y-127750000I243750J0D01*
G01*
X34556250Y-127750000D01*
G75*
G02*
X34800000Y-127993750I0J-243750D01*
G01*
X34800000Y-128481250D01*
G75*
G02*
X34556250Y-128725000I-243750J0D01*
G01*
G37*
G36*
G01*
X59156250Y-177450000D02*
X58643750Y-177450000D01*
G75*
G02*
X58425000Y-177231250I0J218750D01*
G01*
X58425000Y-176793750D01*
G75*
G02*
X58643750Y-176575000I218750J0D01*
G01*
X59156250Y-176575000D01*
G75*
G02*
X59375000Y-176793750I0J-218750D01*
G01*
X59375000Y-177231250D01*
G75*
G02*
X59156250Y-177450000I-218750J0D01*
G01*
G37*
G36*
G01*
X59156250Y-179025000D02*
X58643750Y-179025000D01*
G75*
G02*
X58425000Y-178806250I0J218750D01*
G01*
X58425000Y-178368750D01*
G75*
G02*
X58643750Y-178150000I218750J0D01*
G01*
X59156250Y-178150000D01*
G75*
G02*
X59375000Y-178368750I0J-218750D01*
G01*
X59375000Y-178806250D01*
G75*
G02*
X59156250Y-179025000I-218750J0D01*
G01*
G37*
G36*
G01*
X75843750Y-178750000D02*
X76356250Y-178750000D01*
G75*
G02*
X76575000Y-178968750I0J-218750D01*
G01*
X76575000Y-179406250D01*
G75*
G02*
X76356250Y-179625000I-218750J0D01*
G01*
X75843750Y-179625000D01*
G75*
G02*
X75625000Y-179406250I0J218750D01*
G01*
X75625000Y-178968750D01*
G75*
G02*
X75843750Y-178750000I218750J0D01*
G01*
G37*
G36*
G01*
X75843750Y-177175000D02*
X76356250Y-177175000D01*
G75*
G02*
X76575000Y-177393750I0J-218750D01*
G01*
X76575000Y-177831250D01*
G75*
G02*
X76356250Y-178050000I-218750J0D01*
G01*
X75843750Y-178050000D01*
G75*
G02*
X75625000Y-177831250I0J218750D01*
G01*
X75625000Y-177393750D01*
G75*
G02*
X75843750Y-177175000I218750J0D01*
G01*
G37*
D20*
X39800000Y-178555000D03*
X39800000Y-177285000D03*
X39800000Y-176015000D03*
X39800000Y-174745000D03*
X39800000Y-173475000D03*
X39800000Y-172205000D03*
X39800000Y-170935000D03*
X39800000Y-169665000D03*
X39800000Y-168395000D03*
X39800000Y-167125000D03*
X39800000Y-165855000D03*
X39800000Y-164585000D03*
X39800000Y-163315000D03*
X39800000Y-162045000D03*
D21*
X42585000Y-161045000D03*
X43855000Y-161045000D03*
X45125000Y-161045000D03*
X46395000Y-161045000D03*
X47665000Y-161045000D03*
X48935000Y-161045000D03*
X50205000Y-161045000D03*
X51475000Y-161045000D03*
X52745000Y-161045000D03*
X54015000Y-161045000D03*
D20*
X56800000Y-162045000D03*
X56800000Y-163315000D03*
X56800000Y-164585000D03*
X56800000Y-165855000D03*
X56800000Y-167125000D03*
X56800000Y-168395000D03*
X56800000Y-169665000D03*
X56800000Y-170935000D03*
X56800000Y-172205000D03*
X56800000Y-173475000D03*
X56800000Y-174745000D03*
X56800000Y-176015000D03*
X56800000Y-177285000D03*
X56800000Y-178555000D03*
D22*
X49300000Y-171055000D03*
G36*
G01*
X32043750Y-158450000D02*
X32956250Y-158450000D01*
G75*
G02*
X33200000Y-158693750I0J-243750D01*
G01*
X33200000Y-159181250D01*
G75*
G02*
X32956250Y-159425000I-243750J0D01*
G01*
X32043750Y-159425000D01*
G75*
G02*
X31800000Y-159181250I0J243750D01*
G01*
X31800000Y-158693750D01*
G75*
G02*
X32043750Y-158450000I243750J0D01*
G01*
G37*
G36*
G01*
X32043750Y-156575000D02*
X32956250Y-156575000D01*
G75*
G02*
X33200000Y-156818750I0J-243750D01*
G01*
X33200000Y-157306250D01*
G75*
G02*
X32956250Y-157550000I-243750J0D01*
G01*
X32043750Y-157550000D01*
G75*
G02*
X31800000Y-157306250I0J243750D01*
G01*
X31800000Y-156818750D01*
G75*
G02*
X32043750Y-156575000I243750J0D01*
G01*
G37*
D23*
X77900000Y-129020000D03*
X77900000Y-130290000D03*
X77900000Y-131560000D03*
X77900000Y-132830000D03*
X77900000Y-134100000D03*
X77900000Y-135370000D03*
X77900000Y-136640000D03*
X77900000Y-137910000D03*
X77900000Y-139180000D03*
X68500000Y-139180000D03*
X68500000Y-137910000D03*
X68500000Y-136640000D03*
X68500000Y-135370000D03*
X68500000Y-134100000D03*
X68500000Y-132830000D03*
X68500000Y-131560000D03*
X68500000Y-130290000D03*
X68500000Y-129020000D03*
D24*
X60500000Y-169095000D03*
X60500000Y-167825000D03*
X60500000Y-166555000D03*
X60500000Y-165285000D03*
X60500000Y-164015000D03*
X60500000Y-162745000D03*
X60500000Y-161475000D03*
X60500000Y-160205000D03*
X65900000Y-160205000D03*
X65900000Y-161475000D03*
X65900000Y-162745000D03*
X65900000Y-164015000D03*
X65900000Y-165285000D03*
X65900000Y-166555000D03*
X65900000Y-167825000D03*
X65900000Y-169095000D03*
X65900000Y-152495000D03*
X65900000Y-151225000D03*
X65900000Y-149955000D03*
X65900000Y-148685000D03*
X65900000Y-147415000D03*
X65900000Y-146145000D03*
X65900000Y-144875000D03*
X65900000Y-143605000D03*
X60500000Y-143605000D03*
X60500000Y-144875000D03*
X60500000Y-146145000D03*
X60500000Y-147415000D03*
X60500000Y-148685000D03*
X60500000Y-149955000D03*
X60500000Y-151225000D03*
X60500000Y-152495000D03*
X60500000Y-136645000D03*
X60500000Y-135375000D03*
X60500000Y-134105000D03*
X60500000Y-132835000D03*
X60500000Y-131565000D03*
X60500000Y-130295000D03*
X60500000Y-129025000D03*
X60500000Y-127755000D03*
X65900000Y-127755000D03*
X65900000Y-129025000D03*
X65900000Y-130295000D03*
X65900000Y-131565000D03*
X65900000Y-132835000D03*
X65900000Y-134105000D03*
X65900000Y-135375000D03*
X65900000Y-136645000D03*
D10*
X44500000Y-118900000D03*
X48500000Y-118900000D03*
G36*
G01*
X37775000Y-117125000D02*
X37775000Y-115875000D01*
G75*
G02*
X38025000Y-115625000I250000J0D01*
G01*
X38775000Y-115625000D01*
G75*
G02*
X39025000Y-115875000I0J-250000D01*
G01*
X39025000Y-117125000D01*
G75*
G02*
X38775000Y-117375000I-250000J0D01*
G01*
X38025000Y-117375000D01*
G75*
G02*
X37775000Y-117125000I0J250000D01*
G01*
G37*
G36*
G01*
X40575000Y-117125000D02*
X40575000Y-115875000D01*
G75*
G02*
X40825000Y-115625000I250000J0D01*
G01*
X41575000Y-115625000D01*
G75*
G02*
X41825000Y-115875000I0J-250000D01*
G01*
X41825000Y-117125000D01*
G75*
G02*
X41575000Y-117375000I-250000J0D01*
G01*
X40825000Y-117375000D01*
G75*
G02*
X40575000Y-117125000I0J250000D01*
G01*
G37*
D14*
X92000000Y-134250000D03*
X92000000Y-132350000D03*
X90000000Y-133300000D03*
G36*
G01*
X32475000Y-134575000D02*
X33725000Y-134575000D01*
G75*
G02*
X33975000Y-134825000I0J-250000D01*
G01*
X33975000Y-135575000D01*
G75*
G02*
X33725000Y-135825000I-250000J0D01*
G01*
X32475000Y-135825000D01*
G75*
G02*
X32225000Y-135575000I0J250000D01*
G01*
X32225000Y-134825000D01*
G75*
G02*
X32475000Y-134575000I250000J0D01*
G01*
G37*
G36*
G01*
X32475000Y-137375000D02*
X33725000Y-137375000D01*
G75*
G02*
X33975000Y-137625000I0J-250000D01*
G01*
X33975000Y-138375000D01*
G75*
G02*
X33725000Y-138625000I-250000J0D01*
G01*
X32475000Y-138625000D01*
G75*
G02*
X32225000Y-138375000I0J250000D01*
G01*
X32225000Y-137625000D01*
G75*
G02*
X32475000Y-137375000I250000J0D01*
G01*
G37*
M02*
