M48
; DRILL file {KiCad 5.1.6} date Fri Jul 10 19:58:22 2020
; FORMAT={-:-/ absolute / inch / decimal}
; #@! TF.CreationDate,2020-07-10T19:58:22+02:00
; #@! TF.GenerationSoftware,Kicad,Pcbnew,5.1.6
FMAT,2
INCH
T1C0.0118
T2C0.0157
T3C0.0197
T4C0.0362
T5C0.0394
T6C0.0433
T7C0.0917
T8C0.1260
%
G90
G05
T1
X1.3819Y-4.8583
X1.5Y-5.0118
X1.5Y-5.0433
X1.5Y-5.0748
X1.5Y-5.1063
X1.5Y-5.1378
X1.5Y-5.1693
X1.5354Y-5.0118
X1.5354Y-5.0433
X1.5354Y-5.0748
X1.5354Y-5.1063
X1.5354Y-5.1378
X1.5354Y-5.1693
X1.5709Y-5.0118
X1.5709Y-5.0433
X1.5709Y-5.0748
X1.5709Y-5.1063
X1.5709Y-5.1378
X1.5709Y-5.1693
X1.6152Y-6.3465
X1.6181Y-4.8543
X1.6236Y-6.9297
X1.6479Y-6.9797
X1.7475Y-5.7786
X1.7717Y-5.5898
X1.7759Y-6.8306
X1.9241Y-5.666
X1.9535Y-5.6659
X1.9643Y-6.873
X2.0196Y-4.9522
X2.0809Y-5.1659
X2.1053Y-6.3971
X2.1262Y-5.5863
X2.1521Y-6.5238
X2.1665Y-5.2436
X2.185Y-5.1808
X2.1879Y-6.346
X2.2925Y-6.4882
X2.3344Y-6.5573
X2.3351Y-6.4075
X2.3351Y-6.4573
X2.338Y-5.8823
X2.4267Y-6.5291
X2.4267Y-5.7744
X2.4277Y-5.0492
X3.2879Y-5.5467
X3.4335Y-5.2597
X3.4398Y-5.42
X3.4398Y-5.498
X3.4519Y-5.1682
X3.5118Y-4.9173
X3.7126Y-4.815
X3.7126Y-4.8465
T2
X2.3046Y-5.6313
X2.481Y-6.0606
X3.2848Y-5.608
X3.2898Y-5.8589
X3.4029Y-5.6055
X3.4058Y-5.8875
X3.417Y-5.7493
X3.4652Y-5.9874
X3.4683Y-5.609
X3.5303Y-6.1639
X3.5503Y-6.5162
X3.5551Y-5.4012
X3.6807Y-5.8148
T3
X3.6457Y-5.8622
X3.6457Y-6.0472
X3.6496Y-6.2283
X3.9055Y-5.8622
X3.9055Y-6.0512
X3.9065Y-6.253
T4
X1.4488Y-5.7579
X1.4488Y-5.8563
X1.5276Y-5.7579
X1.5276Y-5.8563
T5
X1.7717Y-4.6142
X3.3937Y-5.2992
X3.6693Y-4.9965
X2.4961Y-6.9118
X2.4961Y-7.0118
X2.5961Y-6.9118
X2.5961Y-7.0118
X2.6961Y-6.9118
X2.6961Y-7.0118
X2.7961Y-6.9118
X2.7961Y-7.0118
X2.8961Y-6.9118
X2.8961Y-7.0118
X3.7386Y-5.0063
X3.7386Y-5.1063
X3.7386Y-5.2063
X3.7386Y-5.3063
X3.7386Y-5.4063
X3.7386Y-5.5063
X3.7386Y-5.6063
X3.7386Y-5.7063
X3.7386Y-5.8063
X3.7386Y-5.9063
X3.7386Y-6.0063
X3.7386Y-6.1063
X3.7386Y-6.2063
X3.7386Y-6.3063
X3.7386Y-6.4063
X3.7386Y-6.5063
X3.7386Y-6.6063
X3.8386Y-5.0063
X3.8386Y-5.1063
X3.8386Y-5.2063
X3.8386Y-5.3063
X3.8386Y-5.4063
X3.8386Y-5.5063
X3.8386Y-5.6063
X3.8386Y-5.7063
X3.8386Y-5.8063
X3.8386Y-5.9063
X3.8386Y-6.0063
X3.8386Y-6.1063
X3.8386Y-6.2063
X3.8386Y-6.3063
X3.8386Y-6.4063
X3.8386Y-6.5063
X3.8386Y-6.6063
T6
X2.1091Y-4.6693
X2.2091Y-4.6693
X2.3091Y-4.6693
X2.4091Y-4.6693
X2.5091Y-4.6693
X2.6091Y-4.6693
X2.7091Y-4.6693
X2.8091Y-4.6693
X2.9091Y-4.6693
X3.0091Y-4.6693
T7
X1.3421Y-5.5701
X1.3421Y-6.0441
T8
X3.7795Y-4.685
X1.3388Y-4.6835
X3.7795Y-6.9276
X1.3383Y-6.9306
T0
M30
